<svg width="12" height="12" viewBox="0 0 12 12" fill="none" xmlns="http://www.w3.org/2000/svg">
<path fill-rule="evenodd" clip-rule="evenodd" d="M1 6C1 3.24 3.245 1 6 1L6.13988 1.00192C8.83529 1.07608 11 3.28678 11 6C11 8.755 8.76 11 6 11C3.245 11 1 8.755 1 6ZM6.99 8C7.135 7.85 7.135 7.615 6.985 7.47L5.51 6L6.985 4.53C7.135 4.385 7.135 4.145 6.99 4C6.84 3.85 6.605 3.85 6.46 4L4.715 5.735C4.645 5.805 4.605 5.9 4.605 6C4.605 6.1 4.645 6.195 4.715 6.265L6.46 8C6.53 8.075 6.625 8.11 6.72 8.11C6.82 8.11 6.915 8.075 6.99 8Z" fill="#58DBCB"/>
</svg>
