<svg width="12" height="12" viewBox="0 0 12 12" fill="none" xmlns="http://www.w3.org/2000/svg">
<path fill-rule="evenodd" clip-rule="evenodd" d="M6 1C8.76 1 11 3.245 11 6L10.9981 6.13988C10.9239 8.83529 8.71322 11 6 11C3.245 11 1 8.76 1 6C1 3.245 3.245 1 6 1ZM4 6.99C4.15 7.135 4.385 7.135 4.53 6.985L6 5.51L7.47 6.985C7.615 7.135 7.855 7.135 8 6.99C8.15 6.84 8.15 6.605 8 6.46L6.265 4.715C6.195 4.645 6.1 4.605 6 4.605C5.9 4.605 5.805 4.645 5.735 4.715L4 6.46C3.925 6.53 3.89 6.625 3.89 6.72C3.89 6.82 3.925 6.915 4 6.99Z" fill="#58DBCB"/>
</svg>
