<svg width="12" height="12" viewBox="0 0 12 12" fill="none" xmlns="http://www.w3.org/2000/svg">
<path fill-rule="evenodd" clip-rule="evenodd" d="M7.23863 2.22105L10.873 8.52861C10.953 8.71688 10.988 8.86997 10.998 9.02901C11.018 9.4006 10.888 9.76178 10.6331 10.0397C10.3781 10.3167 10.0332 10.4802 9.65822 10.5H2.33945C2.18448 10.4906 2.0295 10.4554 1.88453 10.4009C1.15965 10.1086 0.80971 9.28615 1.10466 8.5732L4.76404 2.21659C4.88902 1.99314 5.07899 1.80041 5.31395 1.67655C5.99384 1.29951 6.85869 1.54723 7.23863 2.22105ZM6.43376 6.37786C6.43376 6.61568 6.2388 6.81435 5.99884 6.81435C5.75888 6.81435 5.55891 6.61568 5.55891 6.37786V4.97624C5.55891 4.73793 5.75888 4.5452 5.99884 4.5452C6.2388 4.5452 6.43376 4.73793 6.43376 4.97624V6.37786ZM5.99884 8.50879C5.75888 8.50879 5.55891 8.31012 5.55891 8.0728C5.55891 7.83448 5.75888 7.6363 5.99884 7.6363C6.2388 7.6363 6.43376 7.83003 6.43376 8.06735C6.43376 8.31012 6.2388 8.50879 5.99884 8.50879Z" fill="#58DBCB"/>
</svg>
