<svg width="12" height="12" viewBox="0 0 12 12" fill="none" xmlns="http://www.w3.org/2000/svg">
<path d="M4.56739 10.3867V8.85781C4.56739 8.46753 4.88609 8.15115 5.27922 8.15115H6.71631C6.90509 8.15115 7.08615 8.2256 7.21964 8.35813C7.35314 8.49065 7.42813 8.67039 7.42813 8.85781V10.3867C7.42694 10.5489 7.49103 10.7049 7.60619 10.8201C7.72134 10.9352 7.87802 11 8.04147 11H9.02191C9.47982 11.0012 9.91938 10.8214 10.2436 10.5004C10.5678 10.1794 10.75 9.74349 10.75 9.28891V4.93343C10.75 4.56623 10.586 4.21792 10.3023 3.98233L6.96701 1.33793C6.38683 0.874281 5.55556 0.889251 4.9927 1.37349L1.73351 3.98233C1.43637 4.21098 1.25878 4.56032 1.25 4.93343V9.28447C1.25 10.2319 2.02369 11 2.97809 11H3.93615C4.27561 11 4.5515 10.7281 4.55396 10.3911L4.56739 10.3867Z" fill="#58DBCB"/>
</svg>
