<svg width="12" height="12" viewBox="0 0 12 12" fill="none" xmlns="http://www.w3.org/2000/svg">
<path fill-rule="evenodd" clip-rule="evenodd" d="M7.02723 7.63C7.17079 7.485 7.17079 7.25 7.02723 7.105L6.42327 6.495L7.02723 5.885C7.17079 5.74 7.17079 5.505 7.02723 5.36C6.88366 5.21 6.64604 5.21 6.50248 5.36L5.89851 5.97L5.29455 5.36C5.15099 5.21 4.91832 5.21 4.77475 5.36C4.63119 5.505 4.63119 5.74 4.77475 5.885L5.37871 6.495L4.77475 7.105C4.63119 7.25 4.63119 7.485 4.77475 7.63C4.84406 7.705 4.93812 7.74 5.03218 7.74C5.12624 7.74 5.22525 7.705 5.29455 7.63L5.89851 7.02L6.50248 7.63C6.57673 7.705 6.67079 7.74 6.76485 7.74C6.85891 7.74 6.95297 7.705 7.02723 7.63ZM9.66768 4.51278C9.78428 4.51145 9.91044 4.51 10.0223 4.51C10.151 4.51 10.25 4.61 10.25 4.735V8.755C10.25 9.995 9.25495 11 8.02228 11H4.08663C2.79455 11 1.75 9.945 1.75 8.645V3.255C1.75 2.015 2.75 1 3.98267 1H6.62624C6.75 1 6.85396 1.105 6.85396 1.23V2.84C6.85396 3.755 7.60149 4.505 8.50743 4.51C8.71665 4.51 8.90386 4.51159 9.0673 4.51297C9.1939 4.51405 9.30623 4.515 9.40347 4.515C9.47438 4.515 9.5675 4.51393 9.66768 4.51278ZM9.80282 3.7831C9.39589 3.7846 8.91668 3.7831 8.57163 3.7796C8.02411 3.7796 7.57312 3.3241 7.57312 2.7711V1.4531C7.57312 1.2376 7.83203 1.1306 7.97955 1.2861C8.36066 1.68596 8.94401 2.29869 9.43717 2.81669C9.63715 3.02674 9.8223 3.22121 9.97312 3.3796C10.1172 3.5311 10.0117 3.7826 9.80282 3.7831Z" fill="#58DBCB"/>
</svg>
