<svg width="12" height="12" viewBox="0 0 12 12" fill="none" xmlns="http://www.w3.org/2000/svg">
<path fill-rule="evenodd" clip-rule="evenodd" d="M4.45 1H7.535C8.89 1 9.985 1.535 10 2.895V10.485C10 10.57 9.98 10.655 9.94 10.73C9.875 10.85 9.765 10.94 9.63 10.98C9.5 11.02 9.355 11 9.235 10.93L5.995 9.31L2.75 10.93C2.6755 10.9695 2.59 10.995 2.505 10.995C2.225 10.995 2 10.765 2 10.485V2.895C2 1.535 3.1 1 4.45 1ZM4.11 4.81H7.875C8.09 4.81 8.265 4.6345 8.265 4.415C8.265 4.195 8.09 4.02 7.875 4.02H4.11C3.895 4.02 3.72 4.195 3.72 4.415C3.72 4.6345 3.895 4.81 4.11 4.81Z" fill="#58DBCB"/>
</svg>
