<svg width="12" height="12" viewBox="0 0 12 12" fill="none" xmlns="http://www.w3.org/2000/svg">
<path d="M1 2.40909C1 1.90701 1.40701 1.5 1.90909 1.5H10.0909C10.593 1.5 11 1.90701 11 2.40909C11 2.91117 10.593 3.31818 10.0909 3.31818H1.90909C1.40701 3.31818 1 2.91117 1 2.40909Z" fill="#58DBCB"/>
<path d="M1 6.04545C1 5.54338 1.40701 5.13636 1.90909 5.13636H10.0909C10.593 5.13636 11 5.54338 11 6.04545C11 6.54753 10.593 6.95455 10.0909 6.95455H1.90909C1.40701 6.95455 1 6.54753 1 6.04545Z" fill="#FEFDFF"/>
<path d="M1 9.68182C1 9.17974 1.40701 8.77273 1.90909 8.77273H10.0909C10.593 8.77273 11 9.17974 11 9.68182C11 10.1839 10.593 10.5909 10.0909 10.5909H1.90909C1.40701 10.5909 1 10.1839 1 9.68182Z" fill="#FEFDFF"/>
</svg>
