<svg width="12" height="12" viewBox="0 0 12 12" fill="none" xmlns="http://www.w3.org/2000/svg">
<path d="M6.20832 3C5.8419 3 5.47477 3.05345 5.18347 3.16601L1.89477 4.43866C1.74927 4.49489 1.63336 4.55961 1.55062 4.63785C1.47513 4.70925 1.42865 4.79645 1.42059 4.8887C1.42049 4.89 1.42068 4.89118 1.42059 4.89236C1.41876 4.89839 1.41749 4.90457 1.41679 4.91081C1.41678 4.91211 1.41679 4.91329 1.41679 4.91447C1.41677 4.91569 1.41677 4.91691 1.41679 4.91813V6.28676H1.14911H1.11469H1.11089C1.079 6.28676 1.06237 6.2929 1.04206 6.30889C1.02175 6.32485 1 6.35774 1 6.39373V8.16442V8.20869L1.03441 8.2382L1.042 8.23088C1.05228 8.24103 1.05937 8.25626 1.06876 8.26039C1.09201 8.27054 1.11465 8.27149 1.11465 8.27149H1.16437L1.19879 8.2346L1.52001 7.85833L1.84505 8.2346L1.87564 8.27149H1.92918H1.94068L1.95219 8.26783C1.98742 8.26098 2.02195 8.23124 2.03249 8.20881C2.04301 8.1864 2.0402 8.16454 2.0402 8.16454V6.39385C2.0402 6.39378 2.04166 6.37822 2.0402 6.37173C2.03873 6.36523 2.03493 6.35864 2.03249 6.35328C2.02796 6.34253 2.0216 6.33309 2.01337 6.32376C1.99701 6.30511 1.96657 6.28688 1.92924 6.28688H1.63861V5.26135C1.7098 5.31118 1.7941 5.35522 1.89482 5.39415L3.24089 5.9143V7.39353C3.24089 7.57691 3.34156 7.74487 3.50093 7.88416C3.66033 8.02346 3.8799 8.14327 4.1472 8.24199C4.68182 8.43942 5.40737 8.55556 6.20841 8.55556C7.00947 8.55556 7.73449 8.43941 8.26961 8.24199C8.53719 8.14328 8.76012 8.02345 8.91971 7.88416C9.07929 7.7449 9.17974 7.57697 9.17974 7.39353V5.9143L10.5258 5.39415C10.6713 5.33791 10.7834 5.26952 10.8662 5.19127C10.9489 5.113 11 5.01692 11 4.91459C11 4.81226 10.9489 4.71618 10.8662 4.63791C10.7834 4.55966 10.6713 4.49494 10.5258 4.43872L7.23332 3.16607C6.94204 3.05351 6.57491 3.00006 6.20847 3.00006L6.20832 3Z" fill="#58DBCB"/>
</svg>
