<svg width="12" height="12" viewBox="0 0 12 12" fill="none" xmlns="http://www.w3.org/2000/svg">
<path d="M10.7177 1.29099C10.4676 1.0343 10.0974 0.938669 9.75229 1.03933L1.704 3.37976C1.33985 3.48093 1.08174 3.77134 1.01222 4.14028C0.941186 4.51575 1.18929 4.99239 1.51342 5.19171L4.02995 6.7384C4.28806 6.89695 4.62119 6.85719 4.83478 6.64177L7.71646 3.74215C7.86152 3.59116 8.10162 3.59116 8.24668 3.74215C8.39174 3.88811 8.39174 4.12467 8.24668 4.27567L5.35999 7.17579C5.14591 7.3907 5.10589 7.72541 5.26346 7.98512L6.80108 10.5269C6.98116 10.8289 7.29129 11 7.63142 11C7.67144 11 7.71646 11 7.75648 10.995C8.14664 10.9446 8.45676 10.6779 8.57181 10.3004L10.9578 2.2624C11.0628 1.92014 10.9678 1.54768 10.7177 1.29099" fill="#58DBCB"/>
</svg>
