<svg width="12" height="12" viewBox="0 0 12 12" fill="none" xmlns="http://www.w3.org/2000/svg">
<path fill-rule="evenodd" clip-rule="evenodd" d="M7.10618 3.88121C7.10618 5.20309 6.02447 6.26241 4.67467 6.26241C3.32535 6.26241 2.24315 5.20309 2.24315 3.88121C2.24315 2.55933 3.32535 1.5 4.67467 1.5C6.02447 1.5 7.10618 2.55933 7.10618 3.88121ZM1 8.95868C1 7.73502 2.69276 7.42887 4.67467 7.42887C6.66733 7.42887 8.34933 7.74556 8.34933 8.97018C8.34933 10.1938 6.65657 10.5 4.67467 10.5C2.682 10.5 1 10.1833 1 8.95868ZM8.08671 3.92437C8.08671 4.59753 7.88025 5.22565 7.51822 5.74741C7.48055 5.80107 7.51381 5.87342 7.57937 5.88492C7.67037 5.89977 7.76381 5.90887 7.85921 5.91079C8.80834 5.93522 9.6601 5.33681 9.89542 4.43559C10.2442 3.09838 9.22076 1.89771 7.91694 1.89771C7.77556 1.89771 7.64004 1.91209 7.50794 1.93844C7.48984 1.94227 7.47027 1.9509 7.46049 1.96623C7.44777 1.98587 7.45706 2.01126 7.46978 2.02803C7.86166 2.56608 8.08671 3.22103 8.08671 3.92437ZM9.65863 6.85115C10.2966 6.97332 10.7159 7.22198 10.8896 7.58468C11.0368 7.88173 11.0368 8.22669 10.8896 8.52374C10.6239 9.08527 9.76675 9.26589 9.43358 9.31237C9.3646 9.32195 9.30932 9.26446 9.31665 9.19642C9.48691 7.64025 8.13319 6.90241 7.78289 6.73281C7.76822 6.72466 7.76479 6.71316 7.76626 6.7055C7.76724 6.70071 7.7736 6.69304 7.78485 6.6916C8.54268 6.67723 9.35775 6.77928 9.65863 6.85115Z" fill="#58DBCB"/>
</svg>
