<svg width="12" height="12" viewBox="0 0 12 12" fill="none" xmlns="http://www.w3.org/2000/svg">
<path fill-rule="evenodd" clip-rule="evenodd" d="M5.35218 1.75949C5.01701 1.75949 4.73187 1.9924 4.65183 2.30632H7.34317C7.26313 1.9924 6.97799 1.75949 6.64282 1.75949H5.35218ZM8.10355 2.30632H9.09405C10.1446 2.30632 11 3.17214 11 4.23543C11 4.23543 10.97 4.68555 10.96 5.31238C10.959 5.362 10.935 5.41061 10.8954 5.43998C10.6548 5.6177 10.4347 5.76453 10.4147 5.77466C9.58429 6.33162 8.61931 6.72352 7.5913 6.91845C7.52426 6.93162 7.45823 6.89668 7.42421 6.83693C7.13607 6.33769 6.5978 6.01263 5.9975 6.01263C5.4012 6.01263 4.85793 6.33415 4.56128 6.83389C4.52676 6.89263 4.46173 6.92655 4.3952 6.91389C3.37569 6.71845 2.41071 6.32706 1.58529 5.77972L1.10505 5.44555C1.06503 5.42023 1.04002 5.37466 1.04002 5.32403C1.02501 5.0658 1 4.23543 1 4.23543C1 3.17214 1.85543 2.30632 2.90595 2.30632H3.89145C3.98649 1.57215 4.6018 1 5.35218 1H6.64282C7.3932 1 8.0085 1.57215 8.10355 2.30632ZM10.8299 6.40762L10.8099 6.41774C9.7994 7.09622 8.58379 7.54685 7.30815 7.73419C7.12806 7.75951 6.94797 7.64305 6.89795 7.46078C6.78789 7.04559 6.43272 6.77217 6.0075 6.77217H6.0025H5.9925C5.56728 6.77217 5.21211 7.04559 5.10205 7.46078C5.05203 7.64305 4.87194 7.75951 4.69185 7.73419C3.41621 7.54685 2.2006 7.09622 1.1901 6.41774C1.18509 6.41268 1.13507 6.3823 1.09505 6.40762C1.05002 6.43293 1.05002 6.49369 1.05002 6.49369L1.08504 9.07596C1.08504 10.1392 1.93547 11 2.98599 11H9.009C10.0595 11 10.91 10.1392 10.91 9.07596L10.95 6.49369C10.95 6.49369 10.95 6.43293 10.905 6.40762C10.8799 6.39243 10.8499 6.39749 10.8299 6.40762ZM6.37269 8.52913C6.37269 8.74178 6.2076 8.90887 5.9975 8.90887C5.7924 8.90887 5.62231 8.74178 5.62231 8.52913V7.87597C5.62231 7.66837 5.7924 7.49622 5.9975 7.49622C6.2076 7.49622 6.37269 7.66837 6.37269 7.87597V8.52913Z" fill="#58DBCB"/>
</svg>
