<svg width="24" height="24" viewBox="0 0 24 24" fill="none" xmlns="http://www.w3.org/2000/svg">
<path d="M12 22C6.48561 22 2 17.5144 2 12C2 6.48561 6.48721 2 12 2C17.5144 2 22 6.48561 22 12C22 17.5144 17.5144 22 12 22ZM12 4.38929C7.80336 4.38929 4.38889 7.80376 4.38889 12.0004C4.38889 16.1986 7.80336 19.6115 12 19.6115C16.1966 19.6115 19.6111 16.197 19.6111 12.0004C19.6127 7.80376 16.1966 4.38929 12 4.38929V4.38929Z" fill="#ED1C24"/>
<path d="M13.0411 12.2278V8.00058C13.0411 7.35174 12.5151 6.82574 11.8662 6.82574V6.82574C11.2174 6.82574 10.6914 7.35174 10.6914 8.00058V13.1817C10.6914 13.1842 10.6935 13.1863 10.696 13.1863V13.1863C10.7001 13.1863 10.7021 13.1912 10.6992 13.1941L10.6985 13.1948C10.6946 13.1987 10.6946 13.205 10.6985 13.2089L13.5476 16.0568C14.006 16.5151 14.7491 16.5152 15.2077 16.057V16.057C15.6666 15.5986 15.6669 14.8549 15.2083 14.3961L13.0411 12.2278Z" fill="#ED1C24"/>
</svg>
