<svg width="24" height="24" viewBox="0 0 24 24" fill="none" xmlns="http://www.w3.org/2000/svg">
<path d="M8.58387 8.982C8.44906 8.89701 8.31133 8.81983 8.16576 8.74657C8.02118 8.67916 7.87074 8.61859 7.71541 8.56389C7.3657 8.45155 6.99057 8.39098 6.60469 8.39098C6.16997 8.39098 5.75186 8.46815 5.36698 8.60882C5.19896 8.67134 5.0446 8.74168 4.89223 8.82667C4.5845 8.98883 4.30218 9.20472 4.057 9.447C3.93489 9.56911 3.82157 9.70196 3.71704 9.84165C3.66233 9.91394 3.60665 9.99209 3.55976 10.0722C3.48258 10.1894 3.42006 10.3076 3.35461 10.4346C3.30479 10.5401 3.25985 10.6476 3.2198 10.757C3.17975 10.8742 3.14263 10.9973 3.10941 11.1243C3.09964 11.1644 3.09183 11.2093 3.08206 11.2572C3.05959 11.3422 3.04494 11.4301 3.03712 11.52C3.02735 11.5649 3.02442 11.6098 3.01954 11.6548C3.01465 11.687 3.00977 11.7173 3.00977 11.7495C3.00488 11.8316 3 11.9117 3 11.9996C3 12.0221 3 12.0494 3.00488 12.0719C3.00488 12.2292 3.01758 12.3845 3.04201 12.5467V12.5564C3.05178 12.619 3.05959 12.6844 3.07425 12.7469C3.07913 12.7694 3.08401 12.7919 3.09183 12.8143C3.22469 13.3897 3.49431 13.9123 3.86161 14.3422C4.37936 14.9547 5.08957 15.3904 5.89743 15.5447C5.94726 15.5545 5.99219 15.5623 6.04201 15.5623C6.10453 15.575 6.16998 15.5799 6.23739 15.5897C6.28721 15.5946 6.34289 15.5994 6.39467 15.6024L6.43863 15.6034C6.49333 15.6082 6.55097 15.6082 6.60665 15.6082C6.67406 15.6082 6.74146 15.6082 6.80691 15.5985C6.85185 15.5985 6.8919 15.5985 6.93977 15.5936C6.94954 15.5936 6.96224 15.5887 6.97201 15.5887C7.08924 15.5789 7.20744 15.5613 7.32468 15.5389C7.3872 15.5262 7.44679 15.5066 7.50931 15.4939C7.62653 15.4617 7.73692 15.4314 7.84927 15.3884C8.072 15.3064 8.28399 15.2038 8.48426 15.0836C8.66889 14.9664 8.84668 14.8335 9.00983 14.689C9.05477 14.6489 9.09482 14.6118 9.1378 14.5717L13.654 17.2796V18.3904C13.654 20.6157 15.685 22.3819 17.9952 21.9285C19.3961 21.6511 20.5313 20.5179 20.8057 19.1181C21.258 16.8097 19.4957 14.7739 17.2675 14.7739C16.2799 14.7739 15.3889 15.1744 14.7364 15.8172L10.2174 13.1026L10.1647 13.0704L10.0719 13.0156C10.1666 12.6933 10.2164 12.3533 10.2164 12.0007C10.2164 11.648 10.1666 11.3081 10.0719 10.9857L10.2164 10.9007L14.7374 8.18503C15.5404 8.98315 16.7156 9.39539 17.971 9.15996C19.3816 8.89229 20.5196 7.76204 20.8019 6.36128C21.3099 3.83494 19.1637 1.62921 16.6483 2.05235C15.31 2.27508 14.2002 3.28031 13.8094 4.58844C13.5866 5.31916 13.6189 6.00396 13.8045 6.63405L9.13694 9.42697C8.96989 9.26188 8.78428 9.11437 8.58403 8.9825L8.58387 8.982Z" fill="#ED1C24"/>
</svg>
