<svg width="12" height="12" viewBox="0 0 12 12" fill="none" xmlns="http://www.w3.org/2000/svg">
<path d="M6.07074 3.29495C5.95374 3.35807 5.8808 3.47809 5.8808 3.60863V5.64136H1.86715C1.66448 5.64136 1.5 5.80202 1.5 5.99999C1.5 6.19795 1.66448 6.35862 1.86715 6.35862H5.8808V8.39134C5.8808 8.52236 5.95374 8.64239 6.07074 8.70503C6.18773 8.76862 6.33068 8.76432 6.44376 8.69498L10.3287 6.30363C10.4354 6.23764 10.5 6.12336 10.5 5.99999C10.5 5.87662 10.4354 5.76233 10.3287 5.69635L6.44376 3.30499C6.38404 3.26865 6.31599 3.25 6.24795 3.25C6.18725 3.25 6.12605 3.2653 6.07074 3.29495" fill="#F3F3F3"/>
</svg>
