<svg width="12" height="12" viewBox="0 0 12 12" fill="none" xmlns="http://www.w3.org/2000/svg">
<path fill-rule="evenodd" clip-rule="evenodd" d="M3.665 1.00006H8.33C10.03 1.00006 11 1.96006 11 3.66506V8.33506C11 10.0301 10.035 11.0001 8.335 11.0001H3.665C1.96 11.0001 1 10.0301 1 8.33506V3.66506C1 1.96006 1.96 1.00006 3.665 1.00006ZM6.41 6.41506H7.83C8.06 6.41006 8.245 6.22506 8.245 5.99506C8.245 5.76506 8.06 5.58006 7.83 5.58006H6.41V4.17006C6.41 3.94006 6.225 3.75506 5.995 3.75506C5.765 3.75506 5.58 3.94006 5.58 4.17006V5.58006H4.165C4.055 5.58006 3.95 5.62506 3.87 5.70006C3.795 5.78006 3.75 5.88456 3.75 5.99506C3.75 6.22506 3.935 6.41006 4.165 6.41506H5.58V7.83006C5.58 8.06006 5.765 8.24506 5.995 8.24506C6.225 8.24506 6.41 8.06006 6.41 7.83006V6.41506Z" fill="#F3F3F3"/>
</svg>
