<svg width="12" height="12" viewBox="0 0 12 12" fill="none" xmlns="http://www.w3.org/2000/svg">
<g clip-path="url(#clip0_554_27250)">
<path fill-rule="evenodd" clip-rule="evenodd" d="M1 2H11V9.5H1V2Z" fill="white"/>
<path fill-rule="evenodd" clip-rule="evenodd" d="M1 2H4.33281V9.5H1V2Z" fill="#002654"/>
<path fill-rule="evenodd" clip-rule="evenodd" d="M7.66699 2H10.9998V9.5H7.66699V2Z" fill="#CE1126"/>
</g>
<defs>
<clipPath id="clip0_554_27250">
<path d="M1 5.75C1 4.10626 1 3.28439 1.45398 2.73121C1.53709 2.62995 1.62995 2.53709 1.73121 2.45398C2.28439 2 3.10626 2 4.75 2H7.25C8.89374 2 9.71561 2 10.2688 2.45398C10.3701 2.53709 10.4629 2.62995 10.546 2.73121C11 3.28439 11 4.10626 11 5.75C11 7.39374 11 8.21561 10.546 8.76879C10.4629 8.87005 10.3701 8.96291 10.2688 9.04602C9.71561 9.5 8.89374 9.5 7.25 9.5H4.75C3.10626 9.5 2.28439 9.5 1.73121 9.04602C1.62995 8.96291 1.53709 8.87005 1.45398 8.76879C1 8.21561 1 7.39374 1 5.75Z" fill="white"/>
</clipPath>
</defs>
</svg>