<svg width="24" height="24" viewBox="0 0 24 24" fill="none" xmlns="http://www.w3.org/2000/svg">
<path d="M8.762 3.28807H5.864C3.72949 3.28807 2 5.01757 2 7.15208V17.4561C2 19.5906 3.72949 21.3201 5.864 21.3201H16.168C18.3025 21.3201 20.032 19.5906 20.032 17.4561V14.8801C20.032 14.1682 19.4559 13.5921 18.744 13.5921C18.0321 13.5921 17.456 14.1682 17.456 14.8801V17.4561C17.456 17.7982 17.3202 18.1252 17.0787 18.3667C16.8371 18.6082 16.5101 18.7441 16.168 18.7441H5.864C5.15209 18.7441 4.576 18.168 4.576 17.4561V7.15208C4.576 6.44017 5.15209 5.86408 5.864 5.86408H8.762C9.47391 5.86408 10.05 5.28799 10.05 4.57607C10.05 3.86416 9.47391 3.28807 8.762 3.28807V3.28807Z" fill="#EAEAEA"/>
<path d="M8.43998 13.2701V14.5027C8.42614 15.182 8.928 15.7618 9.6022 15.8461C9.96571 15.8813 10.3254 15.7618 10.5959 15.5165C10.865 15.2713 11.0172 14.9228 11.016 14.5581V13.2701C11.016 11.9041 11.5594 10.5935 12.5254 9.62761C13.4914 8.66178 14.802 8.11824 16.1678 8.11824H18.2092L16.9212 9.40624C16.6848 9.62259 16.5326 9.91564 16.4898 10.2339C16.4445 10.6238 16.5804 11.0137 16.8583 11.2917C17.1363 11.5697 17.5262 11.7055 17.9162 11.6602C18.2319 11.6212 18.525 11.4728 18.7438 11.2414L21.184 8.80123C22.272 7.71197 22.272 5.94851 21.184 4.85931L18.7011 2.3764L18.7023 2.37765C18.457 2.13238 18.1237 1.99654 17.7778 2.0003C17.3778 1.9915 16.9967 2.17514 16.754 2.49335C16.354 3.00781 16.4018 3.7411 16.8672 4.19895L18.2093 5.5423H16.1678C14.1189 5.5423 12.1528 6.3561 10.7038 7.80635C9.25356 9.25535 8.43977 11.2212 8.43977 13.2704L8.43998 13.2701Z" fill="#EAEAEA"/>
</svg>
