<svg width="12" height="12" viewBox="0 0 12 12" fill="none" xmlns="http://www.w3.org/2000/svg">
<path fill-rule="evenodd" clip-rule="evenodd" d="M10.2012 6.79006C10.38 6.88506 10.518 7.03506 10.6151 7.18506C10.8041 7.49506 10.7888 7.87506 10.6048 8.21006L10.2472 8.81006C10.0581 9.13006 9.70552 9.33006 9.34273 9.33006C9.16389 9.33006 8.9646 9.28006 8.80109 9.18006C8.66824 9.09506 8.51494 9.06506 8.35143 9.06506C7.84556 9.06506 7.42145 9.48006 7.40612 9.97506C7.40612 10.5501 6.93602 11.0001 6.34839 11.0001H5.65346C5.06073 11.0001 4.59063 10.5501 4.59063 9.97506C4.58041 9.48006 4.15629 9.06506 3.65043 9.06506C3.4818 9.06506 3.32851 9.09506 3.20076 9.18006C3.03725 9.28006 2.83286 9.33006 2.65913 9.33006C2.29122 9.33006 1.93865 9.13006 1.74959 8.81006L1.39701 8.21006C1.20795 7.88506 1.19773 7.49506 1.38679 7.18506C1.46855 7.03506 1.62184 6.88506 1.79557 6.79006C1.93865 6.72006 2.03062 6.60506 2.11749 6.47006C2.37298 6.04006 2.21969 5.47506 1.78535 5.22006C1.27948 4.93506 1.11597 4.30006 1.40723 3.80506L1.74959 3.21506C2.04595 2.72006 2.67957 2.54506 3.19055 2.83506C3.6351 3.07506 4.2125 2.91506 4.4731 2.49006C4.55486 2.35006 4.60085 2.20006 4.59063 2.05006C4.58041 1.85506 4.63661 1.67006 4.7337 1.52006C4.92276 1.21006 5.26512 1.01006 5.63813 1.00006H6.35861C6.73674 1.00006 7.07909 1.21006 7.26816 1.52006C7.36013 1.67006 7.42145 1.85506 7.40612 2.05006C7.3959 2.20006 7.44189 2.35006 7.52364 2.49006C7.78424 2.91506 8.36165 3.07506 8.81131 2.83506C9.31718 2.54506 9.9559 2.72006 10.2472 3.21506L10.5895 3.80506C10.8859 4.30006 10.7224 4.93506 10.2114 5.22006C9.77706 5.47506 9.62377 6.04006 9.88437 6.47006C9.96612 6.60506 10.0581 6.72006 10.2012 6.79006ZM4.55486 6.00506C4.55486 6.79006 5.2038 7.41506 6.00604 7.41506C6.80827 7.41506 7.44189 6.79006 7.44189 6.00506C7.44189 5.22006 6.80827 4.59006 6.00604 4.59006C5.2038 4.59006 4.55486 5.22006 4.55486 6.00506Z" fill="#070214"/>
</svg>
