<svg width="66" height="66" viewBox="0 0 66 66" fill="none" xmlns="http://www.w3.org/2000/svg">
<circle cx="33" cy="33" r="32" stroke="#FEFDFF" stroke-width="2" stroke-dasharray="8 8"/>
<path d="M17.1888 32.9998C17.1888 31.4151 18.4735 30.1304 20.0582 30.1304L45.8833 30.1304C47.468 30.1304 48.7527 31.4151 48.7527 32.9998C48.7527 34.5846 47.468 35.8693 45.8833 35.8693L20.0582 35.8693C18.4735 35.8693 17.1888 34.5846 17.1888 32.9998Z" fill="#FEFDFF"/>
<path d="M32.9705 48.782C31.3858 48.782 30.1011 47.4973 30.1011 45.9125L30.1011 20.0875C30.1011 18.5027 31.3858 17.218 32.9705 17.218C34.5553 17.218 35.84 18.5027 35.84 20.0875L35.84 45.9125C35.84 47.4973 34.5553 48.782 32.9705 48.782Z" fill="#FEFDFF"/>
</svg>
