<svg width="1001" height="1001" viewBox="0 0 1001 1001" fill="none" xmlns="http://www.w3.org/2000/svg">
<g clip-path="url(#clip0_4573_24015)">
<path d="M541.971 873.515C758.388 873.515 933.829 698.074 933.829 481.657C933.829 265.24 758.388 89.7993 541.971 89.7993C325.554 89.7993 150.113 265.24 150.113 481.657C150.113 698.074 325.554 873.515 541.971 873.515Z" fill="url(#paint0_linear_4573_24015)"/>
<path d="M753.981 109.809H329.697C313.91 109.809 298.77 116.514 287.606 128.45C276.443 140.385 270.172 156.573 270.172 173.452V690.375H270.899V871.898C270.899 878.907 272.578 885.8 275.777 891.917C278.977 898.035 283.589 903.174 289.174 906.844C294.759 910.514 301.13 912.593 307.68 912.881C314.23 913.17 320.74 911.659 326.589 908.493L522.295 802.422C527.627 799.563 533.509 798.074 539.474 798.074C545.439 798.074 551.322 799.563 556.654 802.422L758.379 909.271C764.231 912.371 770.727 913.823 777.251 913.487C783.775 913.152 790.111 911.042 795.659 907.355C801.206 903.669 805.781 898.53 808.951 892.424C812.121 886.318 813.779 879.448 813.771 872.464L813.241 690.375V173.275C813.198 156.476 806.944 140.376 795.842 128.487C784.741 116.598 769.693 109.884 753.981 109.809Z" fill="#776BFF"/>
<path fill-rule="evenodd" clip-rule="evenodd" d="M671.862 722.646L336.699 902.734L330.385 890.983L665.548 710.896L671.862 722.646Z" fill="black"/>
<circle cx="541.977" cy="381.608" r="191.76" fill="black"/>
<path fill-rule="evenodd" clip-rule="evenodd" d="M540.304 226.533C481.51 226.533 430.965 261.916 408.83 312.577C407.356 315.953 403.424 317.494 400.048 316.019C396.672 314.544 395.132 310.612 396.606 307.236C420.788 251.892 476.019 213.193 540.304 213.193C543.988 213.193 546.974 216.179 546.974 219.863C546.974 223.546 543.988 226.533 540.304 226.533Z" fill="white"/>
<path d="M551.921 272.961L578.892 330.121C579.692 331.816 580.873 333.282 582.335 334.393C583.797 335.504 585.494 336.228 587.282 336.501L647.568 345.595C649.609 345.922 651.523 346.835 653.098 348.233C654.672 349.631 655.845 351.459 656.485 353.513C657.125 355.567 657.207 357.766 656.723 359.866C656.239 361.967 655.207 363.885 653.742 365.408L610.18 409.887C608.885 411.206 607.916 412.835 607.359 414.634C606.801 416.433 606.671 418.346 606.98 420.209L617.283 483.016C617.636 485.163 617.408 487.371 616.623 489.389C615.839 491.408 614.53 493.156 612.845 494.437C611.159 495.717 609.165 496.479 607.087 496.635C605.01 496.791 602.932 496.335 601.089 495.319L547.168 465.6C545.567 464.722 543.786 464.263 541.978 464.263C540.17 464.263 538.389 464.722 536.789 465.6L482.867 495.319C481.025 496.33 478.949 496.781 476.875 496.622C474.8 496.463 472.809 495.701 471.127 494.422C469.445 493.142 468.138 491.396 467.355 489.38C466.571 487.365 466.341 485.16 466.692 483.016L476.977 420.209C477.285 418.346 477.155 416.433 476.598 414.634C476.04 412.835 475.071 411.206 473.776 409.887L430.214 365.408C428.749 363.885 427.717 361.967 427.233 359.866C426.749 357.766 426.831 355.567 427.471 353.513C428.111 351.459 429.284 349.631 430.858 348.233C432.433 346.835 434.347 345.922 436.388 345.595L496.674 336.441C498.462 336.168 500.159 335.445 501.621 334.334C503.083 333.222 504.264 331.756 505.064 330.062L532.035 272.902C532.973 270.985 534.4 269.377 536.158 268.257C537.917 267.136 539.937 266.546 541.995 266.552C544.054 266.558 546.071 267.16 547.823 268.292C549.575 269.423 550.993 271.039 551.921 272.961Z" fill="url(#paint1_linear_4573_24015)"/>
<g filter="url(#filter0_f_4573_24015)">
<ellipse cx="540.778" cy="593.955" rx="173.886" ry="37.2612" fill="#6B6B6B" fill-opacity="0.39"/>
</g>
<path fill-rule="evenodd" clip-rule="evenodd" d="M198.684 796.586C188.339 809.908 182.173 824.425 174.981 839.406C173.577 842.332 174.817 845.835 177.741 847.242C180.667 848.65 184.182 847.412 185.588 844.487C192.407 830.281 198.159 816.435 207.982 803.78C209.97 801.22 209.5 797.525 206.93 795.548C204.37 793.554 200.67 794.026 198.684 796.586Z" fill="black"/>
<path fill-rule="evenodd" clip-rule="evenodd" d="M180.219 753.643C145.031 765.328 108.384 784.192 78.7131 806.5C76.1237 808.449 75.6072 812.133 77.5652 814.715C79.5231 817.297 83.2098 817.824 85.7992 815.874C114.489 794.307 149.932 776.062 183.951 764.777C187.029 763.751 188.69 760.426 187.658 757.358C186.626 754.29 183.297 752.617 180.219 753.643Z" fill="black"/>
<path fill-rule="evenodd" clip-rule="evenodd" d="M184.963 725.896C163.737 711.945 137.273 707.876 112.407 707.704C109.158 707.692 106.514 710.301 106.502 713.526C106.484 716.769 109.108 719.411 112.349 719.441C134.998 719.589 159.179 722.985 178.513 735.689C181.225 737.472 184.873 736.721 186.649 734.024C188.427 731.329 187.673 727.679 184.963 725.896Z" fill="black"/>
<circle cx="890.475" cy="169.837" r="20.0098" fill="#CECECE"/>
</g>
<defs>
<filter id="filter0_f_4573_24015" x="346.202" y="536.003" width="389.153" height="115.904" filterUnits="userSpaceOnUse" color-interpolation-filters="sRGB">
<feFlood flood-opacity="0" result="BackgroundImageFix"/>
<feBlend mode="normal" in="SourceGraphic" in2="BackgroundImageFix" result="shape"/>
<feGaussianBlur stdDeviation="10.3453" result="effect1_foregroundBlur_4573_24015"/>
</filter>
<linearGradient id="paint0_linear_4573_24015" x1="538.95" y1="-37.7993" x2="546.978" y2="1338.35" gradientUnits="userSpaceOnUse">
<stop stop-color="#F2F2F2"/>
<stop offset="1" stop-color="#EFEFEF"/>
</linearGradient>
<linearGradient id="paint1_linear_4573_24015" x1="426.922" y1="266.183" x2="658.693" y2="451.61" gradientUnits="userSpaceOnUse">
<stop stop-color="#E1DCEB"/>
<stop offset="1" stop-color="#B3AFBA"/>
</linearGradient>
<clipPath id="clip0_4573_24015">
<rect width="1000.49" height="1000.49" fill="white" transform="translate(0.289062)"/>
</clipPath>
</defs>
</svg>
