<svg width="1001" height="1001" viewBox="0 0 1001 1001" fill="none" xmlns="http://www.w3.org/2000/svg">
<g clip-path="url(#clip0_4573_24020)">
<path d="M520.408 988.718C752.284 988.718 940.256 782.317 940.256 527.709C940.256 273.1 752.284 66.6992 520.408 66.6992C288.533 66.6992 100.561 273.1 100.561 527.709C100.561 782.317 288.533 988.718 520.408 988.718Z" fill="url(#paint0_linear_4573_24020)"/>
<path fill-rule="evenodd" clip-rule="evenodd" d="M822.772 229.708C829.783 211.901 831.863 194.126 834.911 175.519C835.505 171.885 833.038 168.467 829.405 167.868C825.769 167.269 822.337 169.74 821.74 173.374C818.85 191.018 817.008 207.929 810.352 224.844C809.005 228.266 810.696 232.139 814.126 233.471C817.55 234.825 821.427 233.13 822.772 229.708Z" fill="#303030"/>
<path fill-rule="evenodd" clip-rule="evenodd" d="M856.584 270.571C891.166 246.616 925.046 214.378 950.231 180.618C952.428 177.668 951.814 173.492 948.858 171.306C945.902 169.12 941.72 169.723 939.523 172.673C915.17 205.314 882.404 236.493 848.966 259.64C845.943 261.74 845.196 265.891 847.299 268.902C849.401 271.913 853.56 272.672 856.584 270.571Z" fill="#303030"/>
<path fill-rule="evenodd" clip-rule="evenodd" d="M860.285 302.296C887.85 310.711 917.963 306.693 945.092 298.942C948.633 297.918 950.68 294.233 949.663 290.718C948.647 287.182 944.947 285.142 941.409 286.144C916.701 293.213 889.288 297.235 864.182 289.575C860.66 288.499 856.928 290.482 855.855 293.984C854.78 297.487 856.765 301.22 860.285 302.296Z" fill="#303030"/>
<path d="M174.084 686.797L174.084 686.797C179.476 703.461 189.692 716.1 204.701 725.147C207.314 726.709 208.155 730.096 206.577 732.7L206.576 732.702C205.005 735.286 201.61 736.127 199.006 734.55C181.681 724.107 169.827 709.422 163.586 690.153L174.084 686.797ZM174.084 686.797C173.149 683.913 170.046 682.316 167.148 683.244M174.084 686.797L167.148 683.244M167.148 683.244C164.249 684.159 162.65 687.261 163.586 690.152L167.148 683.244Z" fill="#303030" stroke="black" stroke-width="3.33496"/>
<path d="M163.704 901.964L163.703 901.965C160.854 905.132 156.929 905.495 153.185 904.139C149.751 902.907 146.314 900.007 144.791 898.522C141.664 895.477 138.835 892.157 136.306 888.639C108.404 894.922 90.8991 920.605 95.7295 948.697L95.7299 948.699C96.2428 951.707 94.2147 954.529 91.2227 955.045L91.2119 955.047L91.2119 955.047C88.2259 955.541 85.3691 953.543 84.8559 950.537C79.2261 917.797 98.7174 887.702 130.288 878.816C128.74 875.831 127.375 872.749 126.194 869.608L126.194 869.608C112.725 833.746 131.606 791.614 172.121 766.552L172.121 766.551C178.649 762.516 187.205 760.295 196.848 759.382C206.509 758.468 217.382 758.856 228.639 760.13M163.704 901.964L228.452 761.787M163.704 901.964C167.034 898.257 167.857 894.568 167.174 891.271C166.526 888.129 164.416 885.394 161.448 883.28L161.447 883.28M163.704 901.964L161.447 883.28M228.639 760.13L228.452 761.787M228.639 760.13C228.639 760.13 228.639 760.13 228.639 760.13L228.452 761.787M228.639 760.13C250.394 762.59 273.778 768.222 292.406 773.371M228.452 761.787C251.682 764.414 276.821 770.685 296.001 776.108C294.793 775.206 293.595 774.293 292.406 773.371M292.406 773.371C293.886 773.78 295.335 774.187 296.752 774.588L179.759 641.943L179.019 640.448C179.018 640.448 179.018 640.448 179.018 640.449C176.287 641.801 175.202 645.111 176.566 647.829L176.568 647.835C196.764 687.726 230.342 718.232 262.834 747.75C265.553 750.221 268.265 752.684 270.961 755.146L270.961 755.146C277.932 761.511 284.997 767.628 292.406 773.371ZM161.447 883.28C158.614 881.264 154.862 879.76 151.203 878.733C147.913 877.81 144.591 877.243 141.898 877.056M161.447 883.28L141.898 877.056M141.898 877.056C139.785 873.462 137.991 869.685 136.524 865.776C124.944 834.925 141.783 798.266 177.952 775.891C184.002 772.15 192.454 770.319 202.44 769.88C212.396 769.442 223.701 770.396 235.321 772.077L235.321 772.077C266.794 776.627 300.078 786.884 315.798 791.728C318.156 792.455 320.118 793.06 321.62 793.505L321.624 793.506C323.094 793.939 324.306 794.208 325.218 794.363C325.674 794.44 326.065 794.491 326.384 794.518C326.648 794.54 326.994 794.559 327.297 794.515C329.898 794.155 331.034 792.5 331.56 791.407L331.564 791.398L331.568 791.39C332.291 789.845 332.338 788.41 332.06 787.171L332.058 787.161C331.668 785.469 330.605 783.929 328.768 782.875L328.757 782.868C327.749 782.3 326.385 781.881 325.073 781.564L325.065 781.562L325.057 781.56C324.794 781.5 324.531 781.451 324.298 781.408C324.054 781.364 323.852 781.329 323.655 781.289C323.462 781.249 323.314 781.213 323.199 781.178C323.081 781.141 323.04 781.118 323.043 781.119L141.898 877.056ZM155.045 892.22L155.047 892.222C155.524 892.562 155.86 892.822 156.096 893.067C156.274 893.252 156.335 893.368 156.358 893.431C156.351 893.45 156.339 893.479 156.32 893.518C156.317 893.524 156.313 893.53 156.31 893.537C156.3 893.532 156.291 893.528 156.283 893.524C154.882 892.804 153.503 891.627 152.674 890.843C153.549 891.265 154.352 891.725 155.045 892.22ZM156.367 893.4C156.367 893.4 156.367 893.401 156.366 893.404C156.367 893.401 156.367 893.4 156.367 893.4Z" fill="#303030" stroke="black" stroke-width="3.33496"/>
<path d="M455.643 241.409C453.917 234.259 443.746 234.259 442.02 241.409L439.785 250.671C439.168 253.226 437.173 255.221 434.618 255.838L425.356 258.074C418.206 259.8 418.206 269.97 425.356 271.696L434.618 273.932C437.173 274.549 439.168 276.544 439.785 279.099L442.02 288.36C443.746 295.511 453.917 295.511 455.643 288.36L457.879 279.099C458.495 276.544 460.49 274.549 463.046 273.932L472.307 271.696C479.457 269.97 479.457 259.8 472.307 258.074L463.046 255.838C460.49 255.221 458.495 253.226 457.879 250.671L455.643 241.409Z" fill="#6355FF"/>
<circle cx="753.977" cy="733.447" r="20.0098" fill="#6355FF"/>
<path d="M370.895 472.788C375.952 434.909 390.491 398.932 413.154 368.214C435.818 337.496 465.867 313.037 500.5 297.119C535.133 281.201 573.22 274.342 611.21 277.183C649.199 280.024 685.852 292.472 717.749 313.365L804.655 283.726C807.276 282.859 810.09 282.764 812.764 283.451C815.438 284.138 817.86 285.579 819.744 287.604C821.627 289.628 822.893 292.151 823.392 294.875C823.891 297.598 823.603 300.408 822.56 302.972L787.708 386.372C806.244 417.351 817.114 452.333 819.407 488.391C821.7 524.449 815.35 560.533 800.888 593.624C786.427 626.714 764.275 655.848 736.286 678.586C708.297 701.325 675.286 717.007 640.017 724.319C604.747 731.631 568.244 730.361 533.563 720.616C498.883 710.87 467.034 692.932 440.683 668.303C414.332 643.674 394.244 613.07 382.102 579.054C369.961 545.038 366.118 508.6 370.895 472.788Z" fill="#303030"/>
<path d="M222.36 573.902C227.417 611.781 241.956 647.757 264.619 678.475C287.282 709.194 317.332 733.653 351.965 749.571C386.598 765.489 424.685 772.347 462.674 769.506C500.664 766.665 537.316 754.218 569.214 733.324L656.12 762.963C658.741 763.83 661.555 763.926 664.229 763.238C666.903 762.551 669.325 761.11 671.208 759.086C673.092 757.061 674.358 754.538 674.857 751.815C675.356 749.091 675.067 746.281 674.025 743.717L639.173 660.317C657.709 629.339 668.578 594.356 670.872 558.299C673.165 522.241 666.815 486.156 652.353 453.066C637.892 419.975 615.74 390.842 587.751 368.103C559.762 345.364 526.751 329.683 491.481 322.37C456.211 315.058 419.709 316.328 385.028 326.074C350.348 335.82 318.499 353.758 292.148 378.387C265.796 403.016 245.709 433.619 233.567 467.635C221.425 501.651 217.582 538.09 222.36 573.902Z" fill="#776BFF"/>
<path fill-rule="evenodd" clip-rule="evenodd" d="M405.026 610.178C405.026 581.47 426.069 560.472 449.339 560.472C472.61 560.472 493.652 581.47 493.652 610.178H523.667C523.667 567.405 491.592 530.457 449.339 530.457C407.087 530.457 375.012 567.405 375.012 610.178H405.026Z" fill="white"/>
<path d="M368.444 529.287C383.336 529.287 395.408 517.215 395.408 502.323C395.408 487.431 383.336 475.359 368.444 475.359C353.553 475.359 341.48 487.431 341.48 502.323C341.48 517.215 353.553 529.287 368.444 529.287Z" fill="white"/>
<path d="M530.229 529.287C545.121 529.287 557.193 517.215 557.193 502.323C557.193 487.431 545.121 475.359 530.229 475.359C515.338 475.359 503.266 487.431 503.266 502.323C503.266 517.215 515.338 529.287 530.229 529.287Z" fill="white"/>
</g>
<defs>
<linearGradient id="paint0_linear_4573_24020" x1="517.172" y1="-83.4167" x2="527.542" y2="1535.57" gradientUnits="userSpaceOnUse">
<stop stop-color="#F2F2F2"/>
<stop offset="1" stop-color="#EFEFEF"/>
</linearGradient>
<clipPath id="clip0_4573_24020">
<rect width="1000.49" height="1000.49" fill="white" transform="translate(0.511719)"/>
</clipPath>
</defs>
</svg>
