<svg width="1002" height="1001" viewBox="0 0 1002 1001" fill="none" xmlns="http://www.w3.org/2000/svg">
<path d="M498.978 903.53C723.684 903.53 905.844 722.117 905.844 498.333C905.844 274.548 723.684 93.1348 498.978 93.1348C274.273 93.1348 92.1133 274.548 92.1133 498.333C92.1133 722.117 274.273 903.53 498.978 903.53Z" fill="url(#paint0_linear_4573_24014)"/>
<path fill-rule="evenodd" clip-rule="evenodd" d="M824.155 317.246C837.918 307.149 840.89 287.806 830.793 274.042C820.696 260.279 801.353 257.307 787.589 267.404C773.826 277.502 770.854 296.845 780.951 310.608C787.178 319.097 796.923 323.481 806.707 323.225C807.407 323.147 808.131 323.103 808.867 323.093C814.219 322.577 819.505 320.657 824.155 317.246ZM682.981 325.59C713.499 332.385 741.244 336.627 769.128 332.84C766.461 330.416 763.995 327.691 761.78 324.672C743.916 300.321 749.175 266.099 773.526 248.234C797.877 230.37 832.099 235.628 849.963 259.979C859.256 272.646 862.292 287.984 859.638 302.302C881.688 289.831 901.319 274.076 916.568 253.93C920.53 248.695 927.957 247.835 933.155 252.01C938.353 256.185 939.354 263.814 935.391 269.049C907.858 305.424 869.398 326.734 829.767 341.522C824.145 344.261 818.202 345.957 812.199 346.651C767.314 362.925 721.005 359 677.74 349.367C671.388 347.952 667.411 341.483 668.858 334.917C670.305 328.352 676.628 324.176 682.981 325.59Z" fill="black"/>
<path d="M737.43 324.914C737.43 246.636 673.972 183.178 595.694 183.178H460.628V466.65H595.694C673.972 466.65 737.43 403.193 737.43 324.914Z" fill="url(#paint1_linear_4573_24014)"/>
<path d="M578.711 415.143C558.629 454.08 525.014 479.575 486.956 479.575H450.194C388.655 479.575 338.752 412.899 338.752 330.676C338.752 248.454 388.655 181.801 450.194 181.778H487.072C525.129 181.778 558.791 207.227 578.826 246.21C591.741 272.486 598.456 301.375 598.456 330.653C598.456 359.932 591.741 388.82 578.826 415.097L578.711 415.143Z" fill="black"/>
<path d="M541.531 415.143C521.496 454.01 487.95 479.482 449.962 479.575C388.468 479.575 338.635 412.853 338.635 330.676C338.635 248.5 388.468 181.87 449.962 181.778C487.95 181.778 521.496 207.227 541.531 246.21C554.461 272.482 561.185 301.372 561.185 330.653C561.185 359.934 554.461 388.825 541.531 415.097V415.143Z" fill="#776BFF"/>
<path d="M453.294 358.129C447.869 348.392 438.786 342.011 428.5 341.988C411.85 341.988 398.357 358.703 398.357 379.29C398.357 399.877 411.85 416.569 428.5 416.593C438.786 416.593 447.869 410.217 453.294 400.451C456.795 393.869 458.615 386.632 458.615 379.296C458.615 371.96 456.795 364.723 453.294 358.141V358.129Z" fill="white"/>
<path d="M453.294 257.7C447.869 247.963 438.786 241.581 428.5 241.558C411.85 241.558 398.357 258.273 398.357 278.861C398.357 299.448 411.85 316.14 428.5 316.163C438.786 316.163 447.869 309.787 453.294 300.021C456.795 293.44 458.615 286.202 458.615 278.866C458.615 271.531 456.795 264.293 453.294 257.711V257.7Z" fill="white"/>
<path d="M327.229 381.524C327.229 395.384 338.465 406.621 352.326 406.621H423.942C438.677 406.621 450.622 394.676 450.622 379.941C450.622 365.206 438.677 353.261 423.942 353.261H352.326C338.465 353.261 327.229 364.498 327.229 378.358V381.524Z" fill="black"/>
<path d="M327.229 278.225C327.229 292.038 338.427 303.237 352.241 303.237H425.61C439.424 303.237 450.622 292.038 450.622 278.225C450.622 264.411 439.424 253.212 425.61 253.212H352.241C338.427 253.212 327.229 264.411 327.229 278.225Z" fill="black"/>
<path fill-rule="evenodd" clip-rule="evenodd" d="M530.166 457.241H598.485V467.246H530.166V457.241Z" fill="black"/>
<path fill-rule="evenodd" clip-rule="evenodd" d="M91.6354 672.898C149.314 638.263 214.656 631.669 277.216 633.742C286.155 634.038 293.161 641.525 292.865 650.464C292.569 659.403 285.082 666.41 276.143 666.114C216.103 664.124 158.159 670.732 108.31 700.666C100.642 705.27 90.6931 702.787 86.0887 695.119C81.4842 687.451 83.9676 677.503 91.6354 672.898Z" fill="black"/>
<path d="M230.514 650.073C230.514 572.715 293.224 510.004 370.582 510.004H507.315V790.141H370.582C293.224 790.141 230.514 727.43 230.514 650.073Z" fill="url(#paint2_linear_4573_24014)"/>
<path d="M367.113 742.402C387.217 781.339 420.833 806.834 458.89 806.834H495.768C557.307 806.834 607.21 740.158 607.21 657.936C607.21 575.713 557.307 509.06 495.768 509.037H458.89C420.833 509.037 387.171 534.486 367.113 573.469C353.968 599.672 347.236 628.622 347.471 657.936C347.236 687.249 353.968 716.2 367.113 742.402Z" fill="black"/>
<path d="M404.292 742.402C424.351 781.27 457.873 806.741 495.885 806.834C557.378 806.834 607.211 740.112 607.211 657.936C607.211 575.759 557.378 509.13 495.885 509.06C457.873 509.06 424.351 534.509 404.292 573.469C391.148 599.672 384.416 628.622 384.65 657.936C384.416 687.249 391.148 716.2 404.292 742.402Z" fill="#776BFF"/>
<path d="M505.961 677.71C521.016 677.71 533.22 693.769 533.22 713.578C533.22 733.387 521.016 749.446 505.961 749.446C490.906 749.446 478.701 733.387 478.701 713.578C478.701 693.769 490.906 677.71 505.961 677.71Z" fill="white"/>
<path d="M505.961 562.933C521.016 562.933 533.22 578.991 533.22 598.8C533.22 618.609 521.016 634.668 505.961 634.668C490.906 634.668 478.701 618.609 478.701 598.8C478.701 578.991 490.906 562.933 505.961 562.933Z" fill="white"/>
<path fill-rule="evenodd" clip-rule="evenodd" d="M357.568 780.856H415.1V790.861H357.568V780.856Z" fill="black"/>
<path fill-rule="evenodd" clip-rule="evenodd" d="M794.362 134.832C798.718 117.176 798.432 100.173 798.954 82.2635C799.056 78.7659 796.3 75.8581 792.803 75.7527C789.303 75.6474 786.383 78.4076 786.279 81.9052C785.785 98.8874 786.184 115.048 782.051 131.819C781.214 135.212 783.295 138.646 786.693 139.468C790.089 140.311 793.528 138.225 794.362 134.832Z" fill="black"/>
<path fill-rule="evenodd" clip-rule="evenodd" d="M831.363 169.05C860.91 142.123 888.749 107.484 908.208 72.5081C909.905 69.453 908.8 65.597 905.74 63.9114C902.68 62.2259 898.817 63.3216 897.12 66.3767C878.304 100.194 851.379 133.695 822.809 159.716C820.227 162.076 820.047 166.079 822.407 168.649C824.768 171.22 828.781 171.41 831.363 169.05Z" fill="black"/>
<path fill-rule="evenodd" clip-rule="evenodd" d="M838.848 198.462C865.872 202.908 893.726 195.323 918.299 184.599C921.504 183.187 922.967 179.458 921.566 176.276C920.163 173.074 916.42 171.62 913.214 173.01C890.835 182.787 865.526 190.035 840.913 185.989C837.46 185.42 834.195 187.759 833.627 191.193C833.056 194.628 835.398 197.894 838.848 198.462Z" fill="black"/>
<path fill-rule="evenodd" clip-rule="evenodd" d="M94.2765 842.007C98.1266 840.635 102.178 838.812 105.303 836.172C109.013 833.037 110.523 828.998 111.536 824.748C112.837 819.287 113.357 813.469 114.935 807.999C115.519 805.968 116.643 805.2 117.125 804.859C118.345 803.999 119.577 803.769 120.737 803.855C122.111 803.954 123.998 804.474 125.24 806.778C125.417 807.108 125.647 807.61 125.802 808.298C125.914 808.803 125.987 810.38 126.107 811.031C126.406 812.633 126.656 814.235 126.89 815.846C127.671 821.207 128.121 825.761 130.588 830.687C133.936 837.374 137.29 841.465 141.84 843.277C146.239 845.03 151.498 844.7 158.218 843.326C158.858 843.171 159.491 843.038 160.117 842.93C163.08 842.412 165.912 844.357 166.494 847.309C167.076 850.258 165.193 853.133 162.257 853.781C161.644 853.916 161.04 854.044 160.442 854.162C151.361 856.41 140.848 864.433 134.739 871.459C132.856 873.625 130.099 879.681 127.286 883.545C125.211 886.395 122.879 888.273 120.92 888.937C119.608 889.384 118.502 889.316 117.588 889.09C116.26 888.763 115.158 888.043 114.313 886.899C113.853 886.273 113.426 885.434 113.222 884.363C113.125 883.848 113.114 882.538 113.116 881.945C112.543 879.973 111.841 878.048 111.33 876.059C110.111 871.313 107.719 868.308 104.878 864.338C102.22 860.623 99.3659 858.288 95.1816 856.425C94.6373 856.293 90.2449 855.217 88.6938 854.6C86.4279 853.695 85.3481 852.179 84.9564 851.363C84.2904 849.977 84.2218 848.767 84.3546 847.758C84.5515 846.269 85.2198 844.994 86.4058 843.965C87.1405 843.326 88.238 842.704 89.7073 842.401C90.8424 842.164 93.8538 842.027 94.2765 842.007ZM120.044 834.271C120.248 834.725 120.464 835.181 120.695 835.641C125.598 845.435 131.081 850.902 137.746 853.555L137.97 853.642C133.511 856.952 129.475 860.652 126.39 864.199C125.12 865.659 123.438 868.693 121.622 871.804C119.971 866.438 117.271 862.645 113.877 857.899C111.284 854.277 108.566 851.551 105.227 849.329C107.819 847.999 110.29 846.441 112.443 844.623C116.028 841.593 118.398 838.084 120.044 834.271Z" fill="#CECECE"/>
<defs>
<linearGradient id="paint0_linear_4573_24014" x1="495.842" y1="-38.8076" x2="504.109" y2="1384.19" gradientUnits="userSpaceOnUse">
<stop stop-color="#F2F2F2"/>
<stop offset="1" stop-color="#EFEFEF"/>
</linearGradient>
<linearGradient id="paint1_linear_4573_24014" x1="737.43" y1="182.723" x2="453.479" y2="404.552" gradientUnits="userSpaceOnUse">
<stop stop-color="#E1DCEB"/>
<stop offset="1" stop-color="#B3AFBA"/>
</linearGradient>
<linearGradient id="paint2_linear_4573_24014" x1="230.514" y1="509.555" x2="511.91" y2="732.005" gradientUnits="userSpaceOnUse">
<stop stop-color="#E1DCEB"/>
<stop offset="1" stop-color="#B3AFBA"/>
</linearGradient>
</defs>
</svg>
