<svg width="1001" height="1001" viewBox="0 0 1001 1001" fill="none" xmlns="http://www.w3.org/2000/svg">
<g clip-path="url(#clip0_4573_24018)">
<path d="M518.561 913.535C734.978 913.535 910.419 738.094 910.419 521.677C910.419 305.26 734.978 129.819 518.561 129.819C302.144 129.819 126.703 305.26 126.703 521.677C126.703 738.094 302.144 913.535 518.561 913.535Z" fill="url(#paint0_linear_4573_24018)"/>
<path d="M282.327 673.418L446.986 221.275L794.215 588.417L390.926 773.547C326.324 803.203 258.003 740.21 282.327 673.418Z" fill="#776BFF"/>
<path d="M665.536 364.064C713.478 415.144 752.121 465.785 775.852 506.342C787.724 526.632 795.815 544.317 799.501 558.224C801.344 565.179 802.061 571.102 801.648 575.89C801.237 580.664 799.716 584.197 797.184 586.572C794.653 588.948 791.031 590.243 786.24 590.351C781.436 590.46 775.57 589.369 768.746 587.089C755.1 582.531 737.963 573.335 718.465 560.202C679.493 533.952 631.4 492.179 583.458 441.099C535.516 390.018 496.873 339.377 473.143 298.821C461.27 278.531 453.179 260.845 449.494 246.938C447.651 239.984 446.933 234.06 447.346 229.273C447.757 224.498 449.279 220.966 451.81 218.59C454.342 216.214 457.963 214.92 462.754 214.811C467.558 214.703 473.424 215.793 480.248 218.073C493.894 222.632 511.032 231.827 530.529 244.96C569.501 271.211 617.594 312.983 665.536 364.064Z" fill="black" stroke="black" stroke-width="3.33496"/>
<mask id="mask0_4573_24018" style="mask-type:alpha" maskUnits="userSpaceOnUse" x="277" y="221" width="518" height="561">
<path d="M282.327 673.418L446.986 221.275L794.215 588.417L390.926 773.547C326.324 803.203 258.003 740.21 282.327 673.418Z" fill="#E1DCEB"/>
</mask>
<g mask="url(#mask0_4573_24018)">
<path fill-rule="evenodd" clip-rule="evenodd" d="M439.271 521.924C369.703 430.818 334.503 322.203 323.15 249.282L379.17 240.56C389.389 306.199 421.644 405.423 484.33 487.517C546.427 568.838 637.276 632.253 766.84 632.253V688.948C615.633 688.948 509.429 613.803 439.271 521.924Z" fill="black"/>
<path fill-rule="evenodd" clip-rule="evenodd" d="M446.736 504.502C377.168 413.396 341.968 304.781 330.615 231.859L386.635 223.138C396.854 288.776 429.109 388.001 491.795 470.095C553.892 551.416 644.741 614.831 774.304 614.831V671.525C623.098 671.525 516.893 596.38 446.736 504.502Z" fill="white"/>
<path fill-rule="evenodd" clip-rule="evenodd" d="M357.134 636.423C287.566 545.317 252.367 436.702 241.014 363.781L297.033 355.059C307.252 420.698 339.508 519.922 402.194 602.016C464.29 683.337 555.139 746.752 684.703 746.752V803.447C533.496 803.447 427.292 728.302 357.134 636.423Z" fill="white"/>
</g>
<circle cx="600.264" cy="710.102" r="100.049" fill="black"/>
<path fill-rule="evenodd" clip-rule="evenodd" d="M640.749 679.744C644.623 683.684 644.568 690.019 640.628 693.892L593.13 740.582C589.237 744.408 582.996 744.408 579.103 740.582L559.902 721.707C555.961 717.834 555.907 711.499 559.78 707.559C563.654 703.618 569.988 703.564 573.929 707.437L586.116 719.418L626.601 679.622C630.541 675.749 636.876 675.803 640.749 679.744Z" fill="white"/>
<path d="M795.906 232.433L795.906 232.432C801.826 217.397 804.185 202.402 806.658 186.685C807.08 184.007 807.504 181.308 807.951 178.584L795.906 232.433ZM795.906 232.433C794.897 234.999 791.988 236.268 789.424 235.255L789.424 235.255L789.415 235.251C786.848 234.254 785.58 231.353 786.589 228.79L786.589 228.789M795.906 232.433L786.589 228.789M786.589 228.789C792.238 214.435 794.467 200.061 796.73 185.465M786.589 228.789L796.73 185.465M796.73 185.465C797.168 182.645 797.606 179.816 798.071 176.978L796.73 185.465ZM803.819 172.848C806.549 173.298 808.396 175.864 807.951 178.584L798.071 176.978C798.52 174.251 801.096 172.399 803.819 172.848Z" fill="black" stroke="black" stroke-width="3.33496"/>
<path d="M830.32 272.534L830.318 272.536C828.054 274.109 824.931 273.543 823.351 271.281C821.779 269.03 822.334 265.922 824.601 264.345C858.18 241.1 891.079 209.797 915.545 177.004L915.546 177.003C917.19 174.796 920.329 174.337 922.552 175.981L923.526 174.664L922.552 175.981C924.764 177.616 925.226 180.744 923.58 182.955C898.508 216.564 864.761 248.677 830.32 272.534Z" fill="black" stroke="black" stroke-width="3.33496"/>
<path d="M922.746 294.513L922.747 294.516C923.505 297.135 921.982 299.902 919.317 300.674C892.315 308.388 862.572 312.313 835.458 304.036C832.816 303.228 831.331 300.425 832.135 297.808L832.135 297.807C832.937 295.188 835.736 293.696 838.381 294.504L838.381 294.504C863.947 302.305 891.736 298.182 916.551 291.083C919.212 290.33 921.986 291.867 922.746 294.513Z" fill="black" stroke="black" stroke-width="3.33496"/>
<circle cx="837.049" cy="353.261" r="20.0098" fill="#6355FF"/>
<circle cx="670.301" cy="146.494" r="20.0098" fill="#6355FF"/>
<path d="M708.797 234.739C707.071 227.588 696.901 227.588 695.175 234.739L692.939 244C692.322 246.556 690.327 248.551 687.772 249.167L678.51 251.403C671.36 253.129 671.36 263.3 678.51 265.026L687.772 267.261C690.327 267.878 692.322 269.873 692.939 272.428L695.175 281.69C696.901 288.84 707.071 288.84 708.797 281.69L711.033 272.428C711.65 269.873 713.645 267.878 716.2 267.261L725.462 265.026C732.612 263.3 732.612 253.129 725.462 251.403L716.2 249.167C713.645 248.551 711.65 246.556 711.033 244L708.797 234.739Z" fill="#CECECE"/>
<path fill-rule="evenodd" clip-rule="evenodd" d="M623.493 80.8296C625.515 85.9718 622.985 91.7797 617.843 93.8018C603.165 99.5736 584.355 118.165 571.796 141.306C562.236 158.92 557.592 176.709 559.542 191.267C565.415 182.884 572.447 176.007 580.602 171.589C595.222 163.67 611.902 164.511 628.05 175.515C642.16 185.131 647.914 198.813 646.39 212.445C644.933 225.479 636.982 237.263 626.195 244.665C615.247 252.178 600.71 255.643 585.715 251.051C577.215 248.448 569.062 243.414 561.601 235.771C554.485 263.479 554.741 298.186 566.504 328.882C568.481 334.042 565.901 339.827 560.742 341.805C555.582 343.782 549.796 341.202 547.819 336.042C532.305 295.56 534.321 249.326 546.971 215.653C546.612 215.003 546.256 214.345 545.902 213.678C532.594 188.551 540.562 156.906 554.209 131.761C567.962 106.422 589.769 83.34 610.52 75.18C615.663 73.1579 621.471 75.6873 623.493 80.8296ZM569.439 213.932C576.995 224.666 584.834 229.854 591.574 231.918C600.061 234.517 608.336 232.653 614.873 228.166C621.572 223.569 625.782 216.682 626.504 210.222C627.159 204.361 625.111 197.727 616.782 192.051C606.225 184.857 597.556 185.163 590.133 189.183C582.731 193.193 575.402 201.583 569.439 213.932Z" fill="#CECECE"/>
<path fill-rule="evenodd" clip-rule="evenodd" d="M946.47 472.124C841.599 433.145 761.343 481.614 735.392 509.028C729.06 515.715 718.507 516.005 711.819 509.673C705.131 503.342 704.842 492.788 711.173 486.101C744.13 451.287 837.945 396.209 958.089 440.864C966.721 444.072 971.118 453.671 967.909 462.303C964.701 470.936 955.102 475.332 946.47 472.124Z" fill="#6355FF"/>
<path fill-rule="evenodd" clip-rule="evenodd" d="M839.778 507.165C842.118 506.308 844.58 505.17 846.48 503.521C848.735 501.562 849.652 499.04 850.268 496.385C851.059 492.974 851.375 489.34 852.334 485.924C852.689 484.655 853.373 484.176 853.666 483.963C854.407 483.425 855.156 483.281 855.861 483.335C856.696 483.397 857.843 483.722 858.598 485.161C858.705 485.367 858.845 485.681 858.939 486.111C859.008 486.426 859.052 487.411 859.125 487.817C859.306 488.818 859.458 489.819 859.601 490.825C860.076 494.174 860.349 497.018 861.848 500.095C863.883 504.271 865.922 506.827 868.688 507.959C871.361 509.053 874.558 508.847 878.643 507.989C879.032 507.892 879.416 507.809 879.797 507.742C881.598 507.418 883.319 508.633 883.673 510.477C884.027 512.319 882.882 514.115 881.098 514.519C880.725 514.604 880.358 514.684 879.995 514.757C874.475 516.161 868.085 521.173 864.372 525.561C863.227 526.914 861.551 530.697 859.842 533.11C858.58 534.89 857.163 536.064 855.972 536.478C855.175 536.757 854.502 536.715 853.947 536.574C853.14 536.369 852.47 535.92 851.956 535.205C851.677 534.814 851.417 534.29 851.293 533.621C851.234 533.299 851.227 532.481 851.229 532.111C850.88 530.879 850.454 529.677 850.143 528.434C849.402 525.47 847.948 523.593 846.221 521.113C844.606 518.793 842.871 517.335 840.328 516.171C839.997 516.088 837.327 515.416 836.384 515.031C835.007 514.466 834.351 513.519 834.113 513.009C833.708 512.144 833.666 511.388 833.747 510.757C833.866 509.827 834.273 509.031 834.994 508.389C835.44 507.989 836.107 507.601 837 507.411C837.69 507.263 839.521 507.178 839.778 507.165ZM855.44 502.334C855.563 502.617 855.695 502.902 855.835 503.189C858.816 509.306 862.148 512.721 866.199 514.379L866.335 514.432C863.625 516.5 861.172 518.811 859.297 521.026C858.525 521.939 857.503 523.833 856.399 525.777C855.395 522.425 853.754 520.056 851.691 517.092C850.115 514.829 848.463 513.126 846.434 511.739C848.009 510.908 849.511 509.935 850.82 508.799C852.999 506.907 854.439 504.715 855.44 502.334Z" fill="#CECECE"/>
<path d="M259.392 516.31L259.391 516.31C246.37 528.023 238.989 542.502 236.842 559.895C236.48 562.917 233.729 565.065 230.708 564.685L230.706 564.685C227.706 564.303 225.555 561.546 225.934 558.524C228.413 538.448 236.995 521.64 252.05 508.09L259.392 516.31ZM259.392 516.31C261.644 514.282 261.838 510.796 259.81 508.528M259.392 516.31L259.81 508.528M259.81 508.528C257.793 506.253 254.309 506.057 252.05 508.09L259.81 508.528Z" fill="black" stroke="black" stroke-width="3.33496"/>
<path d="M58.6555 594.497L58.6544 594.497C54.602 593.186 52.6707 589.749 52.384 585.777C52.1099 582.14 53.3586 577.819 54.0941 575.823C55.6004 571.727 57.4801 567.791 59.6625 564.048C42.5568 541.126 11.9702 535.603 -11.7163 551.459L-11.7183 551.46C-14.2564 553.154 -17.6599 552.452 -19.3495 549.929L-19.3556 549.92L-19.3556 549.92C-21.0234 547.395 -20.3625 543.972 -17.8264 542.278C9.77928 523.799 45.2049 529.338 66.1815 554.55C68.2773 551.919 70.5355 549.418 72.9226 547.06L72.923 547.06C100.186 520.148 146.355 520.227 185.75 547.016L185.75 547.017C192.095 551.334 197.609 558.243 202.371 566.677C207.142 575.128 211.218 585.216 214.64 596.015M58.6555 594.497L213.051 596.519M58.6555 594.497C63.3981 596.028 67.1021 595.277 69.8348 593.31C72.44 591.438 74.0783 588.397 74.7992 584.825L74.7993 584.825M58.6555 594.497L74.7993 584.825M214.64 596.015L213.051 596.519M214.64 596.015C214.64 596.015 214.64 596.015 214.64 596.015L213.051 596.519M214.64 596.015C221.256 616.886 225.64 640.535 228.526 659.644M213.051 596.519C220.115 618.805 224.63 644.317 227.492 664.043C227.824 662.572 228.169 661.106 228.526 659.644M228.526 659.644C228.756 661.163 228.975 662.652 229.186 664.11L302.66 503.225L303.724 501.941C303.723 501.94 303.723 501.94 303.723 501.94C301.375 499.997 297.91 500.355 295.983 502.707L295.98 502.712C267.776 537.407 253.597 580.501 239.877 622.2C238.729 625.69 237.584 629.17 236.434 632.635L236.434 632.635C233.462 641.595 230.754 650.539 228.526 659.644ZM74.7993 584.825C75.486 581.416 75.3313 577.377 74.7783 573.617C74.281 570.236 73.445 566.971 72.519 564.435M74.7993 584.825L72.519 564.435M72.519 564.435C74.9403 561.042 77.6592 557.865 80.6312 554.932C104.087 531.788 144.427 532.231 179.596 556.147C185.477 560.148 190.593 567.12 195.062 576.061C199.518 584.975 203.253 595.688 206.452 606.985L206.452 606.985C215.119 637.581 219.312 672.156 221.292 688.486C221.589 690.935 221.836 692.974 222.042 694.527L222.042 694.531C222.246 696.05 222.493 697.266 222.724 698.163C222.839 698.61 222.952 698.988 223.058 699.29C223.145 699.541 223.268 699.864 223.432 700.123C224.821 702.352 226.794 702.715 228.007 702.75L228.016 702.75L228.025 702.75C229.732 702.781 231.061 702.239 232.079 701.481L232.087 701.475C233.474 700.429 234.447 698.831 234.662 696.724L234.663 696.711C234.771 695.559 234.598 694.143 234.353 692.816L234.352 692.808L234.35 692.799C234.298 692.534 234.236 692.274 234.18 692.045C234.121 691.803 234.071 691.605 234.027 691.409C233.984 691.216 233.957 691.066 233.942 690.947C233.928 690.824 233.933 690.777 233.932 690.781L72.519 564.435ZM64.0262 582.62L64.0258 582.622C63.9094 583.197 63.8091 583.609 63.6815 583.924C63.5851 584.162 63.5036 584.266 63.4555 584.312C63.4352 584.314 63.4044 584.314 63.3606 584.313C63.3537 584.312 63.3466 584.312 63.3394 584.312C63.3395 584.301 63.3398 584.291 63.3401 584.281C63.4271 582.709 63.9398 580.97 64.3179 579.893C64.2895 580.864 64.1961 581.786 64.0262 582.62ZM63.4878 584.308C63.4879 584.308 63.4864 584.308 63.4832 584.309C63.4862 584.308 63.4878 584.308 63.4878 584.308Z" fill="black" stroke="black" stroke-width="3.33496"/>
</g>
<defs>
<linearGradient id="paint0_linear_4573_24018" x1="515.54" y1="2.22028" x2="523.568" y2="1378.37" gradientUnits="userSpaceOnUse">
<stop stop-color="#F2F2F2"/>
<stop offset="1" stop-color="#EFEFEF"/>
</linearGradient>
<clipPath id="clip0_4573_24018">
<rect width="1000.49" height="1000.49" fill="white" transform="translate(0.222656)"/>
</clipPath>
</defs>
</svg>
