<svg width="12" height="12" viewBox="0 0 12 12" fill="none" xmlns="http://www.w3.org/2000/svg">
<path d="M1.59017 4.7003C2.43247 4.7003 3.25382 5.04784 3.8329 5.65859L3.91721 5.7429L4.73854 4.8899L4.69659 4.84795C3.89624 4.00565 2.75951 3.52112 1.60135 3.52112C1.27479 3.52112 1.01157 3.78434 1.01157 4.1109C1.00046 4.43705 1.26368 4.70026 1.59024 4.70026L1.59017 4.7003Z" fill="#CECECE"/>
<path d="M10.8658 7.95346L9.10761 6.67927C8.88633 6.52133 8.58117 6.67927 8.58117 6.95318V7.62685C7.77054 7.60588 7.00185 7.25835 6.44373 6.67927L6.35941 6.58467L5.53809 7.43767L5.58004 7.47962C6.359 8.30095 7.44352 8.77476 8.58073 8.79571V9.48008C8.58073 9.754 8.8859 9.91193 9.10717 9.754L10.8654 8.47981C11.0447 8.35355 11.0447 8.07963 10.8658 7.95337L10.8658 7.95346Z" fill="#CECECE"/>
<path d="M8.58119 4.7003V5.37397C8.58119 5.64788 8.88635 5.80582 9.10763 5.64788L10.8658 4.37369C11.0447 4.23674 11.0447 3.97352 10.8658 3.83656L9.10763 2.56279C8.88635 2.40486 8.58119 2.56279 8.58119 2.83671V3.52108C7.45472 3.54205 6.35941 4.02613 5.58049 4.83675L3.83251 6.66896C3.25343 7.27971 2.43208 7.62725 1.58978 7.62725C1.26322 7.62725 1 7.89047 1 8.21703C1 8.54359 1.26322 8.8068 1.58978 8.8068C2.74794 8.8068 3.88515 8.32231 4.68502 7.47997L6.43301 5.64818C7.0018 5.06869 7.77047 4.73144 8.58108 4.70018L8.58119 4.7003Z" fill="#CECECE"/>
</svg>
