<svg width="24" height="24" viewBox="0 0 24 24" fill="none" xmlns="http://www.w3.org/2000/svg">
<path fill-rule="evenodd" clip-rule="evenodd" d="M12 22C17.5228 22 22 17.5228 22 12C22 6.47715 17.5228 2 12 2C6.47715 2 2 6.47715 2 12C2 17.5228 6.47715 22 12 22ZM11.9843 9.94637L14.7836 7.14711C15.3455 6.58519 16.257 6.58519 16.8198 7.14798C17.3826 7.71077 17.3826 8.62227 16.8207 9.1842L14.0214 11.9835L16.8207 14.7827C17.3835 15.3455 17.3826 16.2579 16.8207 16.8198C16.2579 17.3826 15.3464 17.3826 14.7836 16.8198L11.9843 14.0205L9.18507 16.8198C8.62228 17.3826 7.71077 17.3826 7.14798 16.8198C6.58519 16.257 6.58519 15.3455 7.14798 14.7827L9.94724 11.9835L7.14798 9.1842C6.58605 8.62227 6.58605 7.71077 7.14884 7.14798C7.71077 6.58605 8.62314 6.58519 9.18507 7.14711L11.9843 9.94637Z" fill="#FF931E"/>
</svg>
