<svg width="24" height="24" viewBox="0 0 24 24" fill="none" xmlns="http://www.w3.org/2000/svg">
<path d="M5.83304 10.0281C5.89949 9.83143 5.97303 9.6365 6.05277 9.44336C6.00847 9.54969 5.96417 9.65601 5.91987 9.76055C6.18391 9.14033 6.52415 8.55556 6.93438 8.01951C6.86527 8.10811 6.79438 8.19849 6.72616 8.28709C7.1355 7.75992 7.60775 7.28588 8.13493 6.87833C8.04633 6.94744 7.95595 7.01832 7.86735 7.08654C8.3901 6.68518 8.96158 6.35114 9.56674 6.09243C9.46042 6.13673 9.35409 6.18103 9.24955 6.22533C9.89813 5.95068 10.583 5.76461 11.283 5.67157C11.166 5.68752 11.0482 5.70258 10.9286 5.71764C11.6126 5.62904 12.3037 5.62904 12.9859 5.71941C12.8689 5.70347 12.7511 5.6884 12.6315 5.67334C13.3155 5.76638 13.9853 5.95245 14.6233 6.22091C14.5169 6.17661 14.4106 6.13231 14.3061 6.08801C14.9263 6.35382 15.5111 6.69494 16.0445 7.10871C15.9558 7.0396 15.8655 6.96871 15.7769 6.90049C16.2952 7.3063 16.7621 7.77056 17.1662 8.29154C17.097 8.20294 17.0262 8.11257 16.9579 8.02396C17.3673 8.55559 17.7066 9.13859 17.968 9.75613C17.9237 9.64981 17.8794 9.54349 17.8351 9.43894C18.0123 9.866 18.154 10.3072 18.256 10.7573C18.3268 11.0745 18.5909 11.3909 18.8673 11.553C19.1526 11.7196 19.5717 11.7904 19.8907 11.6859C20.2114 11.5813 20.5215 11.3829 20.6863 11.0745C20.8564 10.7485 20.9007 10.4118 20.8192 10.0512C20.4781 8.54319 19.7276 7.14946 18.7016 5.99766C17.6986 4.87242 16.4051 4.0484 14.9981 3.52734C14.2804 3.26153 13.5361 3.12154 12.7759 3.04004C11.9945 2.95587 11.2254 3.01346 10.4501 3.12864C9.64205 3.24825 8.88184 3.50963 8.13584 3.83746C7.40486 4.15821 6.75363 4.59944 6.13344 5.09739C5.52208 5.58914 5.01262 6.1739 4.54568 6.80297C4.07786 7.43381 3.73498 8.12491 3.44258 8.85144C3.38056 9.0065 3.32297 9.16155 3.27247 9.32103C3.16614 9.63822 3.24145 10.0635 3.40537 10.3444C3.56663 10.619 3.88383 10.8831 4.20101 10.9557C4.54213 11.0337 4.92312 11.016 5.22437 10.8228C5.52295 10.6288 5.72054 10.3701 5.83307 10.0281L5.83304 10.0281Z" fill="#FF931E"/>
<path d="M19.3894 6.82335C19.0598 7.76697 18.7293 8.71234 18.3988 9.6568C18.3527 9.78971 18.3058 9.92262 18.2588 10.0582C18.8037 9.74805 19.3486 9.43971 19.8935 9.1296C18.9499 8.80001 18.0045 8.46951 17.0601 8.13903C16.9272 8.09295 16.7943 8.04599 16.6587 7.99903C16.3468 7.89005 15.9118 7.97068 15.6354 8.13194C15.3607 8.29319 15.0967 8.6104 15.024 8.92758C14.946 9.2687 14.9638 9.64969 15.1569 9.95094C15.226 10.0395 15.2969 10.1299 15.3651 10.2185C15.5317 10.3824 15.7266 10.4976 15.9517 10.5596C16.8953 10.8892 17.8407 11.2197 18.7851 11.5502C18.918 11.5963 19.0509 11.6432 19.1865 11.6902C19.3637 11.7451 19.5409 11.754 19.7163 11.715C19.8935 11.7062 20.0574 11.6548 20.2107 11.5573C20.2993 11.4882 20.3897 11.4173 20.4783 11.3491C20.6422 11.1825 20.7574 10.9876 20.8194 10.7625C21.149 9.81892 21.4795 8.87355 21.81 7.92909C21.8561 7.79619 21.903 7.66328 21.95 7.52773C22.059 7.21585 21.9783 6.7808 21.8171 6.50438C21.6558 6.22972 21.3386 5.96567 21.0214 5.89302C20.6803 5.81505 20.2993 5.83277 19.9981 6.02593C19.9095 6.09504 19.8191 6.16592 19.7305 6.23414C19.5666 6.40249 19.454 6.59742 19.3894 6.82336L19.3894 6.82335Z" fill="#FEFDFF"/>
<path d="M18.1491 14.1801C18.0888 14.3573 18.0206 14.5345 17.9497 14.7073C17.994 14.601 18.0383 14.4947 18.0826 14.3901C17.8186 15.0121 17.4757 15.5995 17.0619 16.1356C17.131 16.047 17.2019 15.9566 17.2701 15.868C16.8643 16.389 16.3974 16.8559 15.8773 17.2608C15.9659 17.1917 16.0563 17.1208 16.1449 17.0526C15.6115 17.462 15.0285 17.804 14.4101 18.0644C14.5164 18.0201 14.6227 17.9758 14.7272 17.9315C14.0849 18.1991 13.4088 18.3834 12.7204 18.4764C12.8373 18.4605 12.9552 18.4454 13.0748 18.4304C12.3908 18.519 11.6997 18.519 11.0175 18.4286C11.1344 18.4445 11.2523 18.4596 11.3719 18.4747C10.6879 18.3816 10.018 18.1955 9.3801 17.9271C9.48643 17.9714 9.59275 18.0157 9.69729 18.06C9.07707 17.7942 8.4923 17.4531 7.95891 17.0393C8.04751 17.1084 8.13788 17.1793 8.22649 17.2475C7.70815 16.8417 7.24122 16.3774 6.8372 15.8565C6.90631 15.9451 6.9772 16.0354 7.04542 16.124C6.63607 15.5924 6.29673 15.0094 6.03536 14.3919C6.07966 14.4982 6.12396 14.6045 6.16826 14.7091C5.99106 14.282 5.84931 13.8408 5.74739 13.3907C5.67651 13.0735 5.41247 12.7571 5.13604 12.595C4.85075 12.4284 4.43165 12.3575 4.11269 12.4621C3.79194 12.5667 3.48185 12.7651 3.31704 13.0735C3.14693 13.3995 3.10263 13.7362 3.18414 14.0968C3.52526 15.6013 4.27218 16.987 5.29111 18.1388C6.28788 19.264 7.57702 20.0836 8.97697 20.6107C9.69021 20.8782 10.4283 21.0182 11.1814 21.1051C11.9567 21.1937 12.7186 21.1387 13.4895 21.0298C14.3029 20.9146 15.0605 20.6576 15.8127 20.3342C16.5463 20.0197 17.1949 19.5829 17.8195 19.092C18.4353 18.6047 18.943 18.0288 19.4143 17.4042C19.891 16.7751 20.2366 16.084 20.5378 15.3574C20.6016 15.2024 20.6601 15.0473 20.715 14.8879C20.824 14.5733 20.746 14.1436 20.5821 13.8645C20.4208 13.5899 20.1036 13.3258 19.7865 13.2532C19.4453 13.1752 19.0643 13.1929 18.7631 13.3861C18.4592 13.5792 18.2669 13.8388 18.1491 14.1799L18.1491 14.1801Z" fill="#FEFDFF"/>
<path d="M4.6132 17.3255C4.94279 16.3818 5.2733 15.4365 5.60378 14.492C5.64985 14.3591 5.69681 14.2262 5.74377 14.0906C5.19887 14.4008 4.65396 14.7091 4.10906 15.0192C5.05269 15.3488 5.99806 15.6793 6.94252 16.0098C7.07543 16.0559 7.20833 16.1028 7.34388 16.1498C7.65576 16.2588 8.09081 16.1781 8.36724 16.0169C8.64189 15.8556 8.90594 15.5384 8.97859 15.2212C9.05656 14.8801 9.03884 14.4991 8.84568 14.1979C8.77657 14.1093 8.70569 14.0189 8.63747 13.9303C8.4709 13.7664 8.27596 13.6512 8.05093 13.5892C7.10731 13.2596 6.16194 12.9291 5.21747 12.5986C5.08457 12.5525 4.95166 12.5056 4.81611 12.4586C4.63891 12.4037 4.4617 12.3948 4.28628 12.4338C4.10907 12.4427 3.94516 12.494 3.79187 12.5915C3.70327 12.6606 3.6129 12.7315 3.52429 12.7997C3.36038 12.9663 3.24519 13.1612 3.18317 13.3863C2.85002 14.3281 2.51954 15.2735 2.18994 16.2179C2.14387 16.3508 2.09691 16.4837 2.04995 16.6193C1.94097 16.9312 2.0216 17.3662 2.18286 17.6426C2.34411 17.9173 2.66131 18.1813 2.9785 18.254C3.31962 18.332 3.70061 18.3142 4.00185 18.1211C4.09046 18.052 4.18083 17.9811 4.26944 17.9129C4.43601 17.7454 4.55119 17.5487 4.61321 17.3254L4.6132 17.3255Z" fill="#FEFDFF"/>
</svg>
