<svg width="12" height="12" viewBox="0 0 12 12" fill="none" xmlns="http://www.w3.org/2000/svg">
<path d="M8.70505 6.07074C8.64193 5.95374 8.52191 5.8808 8.39137 5.8808H6.35864V1.86715C6.35864 1.66448 6.19798 1.5 6.00001 1.5C5.80205 1.5 5.64138 1.66448 5.64138 1.86715V5.8808H3.60866C3.47764 5.8808 3.35762 5.95374 3.29497 6.07074C3.23138 6.18773 3.23568 6.33068 3.30502 6.44376L5.69637 10.3287C5.76236 10.4354 5.87664 10.5 6.00001 10.5C6.12338 10.5 6.23767 10.4354 6.30365 10.3287L8.69501 6.44376C8.73135 6.38404 8.75 6.31599 8.75 6.24795C8.75 6.18725 8.7347 6.12605 8.70505 6.07074" fill="#22B573"/>
</svg>
