<svg width="12" height="12" viewBox="0 0 12 12" fill="none" xmlns="http://www.w3.org/2000/svg">
<path fill-rule="evenodd" clip-rule="evenodd" d="M4.11303 4.35553H8.1156C9.29432 4.35553 10.25 5.29033 10.25 6.4433V8.91224C10.25 10.0652 9.29432 11 8.1156 11H3.88389C2.70568 11 1.75 10.0652 1.75 8.91224V6.4433C1.75 5.49508 2.40033 4.70341 3.28539 4.44896L3.23001 4.45542V3.69357C3.24017 2.20813 4.47528 1 5.98933 1C7.17313 1 8.21925 1.73104 8.60538 2.81394C8.64603 2.92327 8.63586 3.04254 8.58506 3.1469C8.53425 3.25127 8.44331 3.33078 8.33102 3.36607C8.10239 3.44508 7.84836 3.32631 7.76198 3.0977C7.50287 2.36169 6.79208 1.86969 5.99949 1.86969C4.96252 1.86969 4.12472 2.68522 4.11913 3.68363V4.35454L4.11303 4.35553ZM5.99746 8.66425C6.24641 8.66425 6.44456 8.47043 6.44456 8.22692V7.12365C6.44456 6.8851 6.24641 6.69128 5.99746 6.69128C5.75359 6.69128 5.55544 6.8851 5.55544 7.12365V8.22692C5.55544 8.47043 5.75359 8.66425 5.99746 8.66425Z" fill="#22B573"/>
</svg>
