<svg width="24" height="24" viewBox="0 0 24 24" fill="none" xmlns="http://www.w3.org/2000/svg">
<g clip-path="url(#clip0_4510_24423)">
<rect width="24" height="24" rx="12" fill="#FFCD4E"/>
<g clip-path="url(#clip1_4510_24423)">
<circle cx="6.75" cy="13.875" r="1.875" fill="#EAC0B3"/>
<path d="M6.75 15.375H13.125V24.7014C13.125 24.7014 11.7589 25.5 9.9375 25.5C8.11607 25.5 6.75 24.196 6.75 24.196V15.375Z" fill="#EAC0B3"/>
<path d="M13.125 20.2004C13.125 22.3206 12.7942 22.1199 10.6436 22.1199C8.49315 22.1199 7.5006 20.4011 7.5006 18.2809C7.5006 16.1607 7.41898 14.25 9.15484 14.25C14.0625 14.4375 13.125 18.0802 13.125 20.2004Z" fill="#C99688"/>
<path d="M17.2072 13.5372C17.2072 16.8831 18.5893 20.9974 12.5625 20.9974C6.53563 20.9974 6.53563 16.8831 6.53563 13.5372C5.62497 9.5625 5.81247 4.875 12 4.875C18.1875 4.875 17.2072 10.1913 17.2072 13.5372Z" fill="#F5D0C5"/>
<rect x="13.5" y="15.375" width="1.125" height="0.75" rx="0.375" fill="#EAC0B3"/>
</g>
<g clip-path="url(#clip2_4510_24423)">
<g clip-path="url(#clip3_4510_24423)">
<rect x="2.625" y="22.5" width="15" height="8.625" rx="3.375" fill="#E05A33"/>
</g>
</g>
<path d="M8.24996 10.5C8.01399 11.625 8.62496 13.1179 8.62496 13.4037C8.62496 13.6895 7.15076 14.5382 6.74996 14.8125C6.34916 15.0869 6.18746 12.1875 6.18746 12.1875C5.06245 12.1875 4.87496 14.25 4.87496 14.25C4.87496 14.25 4.03322 13.9725 3.74996 12.5625C3.5586 11.61 3.86186 9.52919 3.93746 9.00002C4.12496 7.68752 4.31246 4.68752 6.74996 3.18752C9.18746 1.68752 15.375 1.68752 16.875 2.06252C20.585 2.99004 21.0817 8.05746 19.875 9.75002C18 11.8125 12.75 9.37502 11.0625 9.37502C9.37495 9.37502 8.48593 9.37502 8.24996 10.5Z" fill="#1B0B47"/>
<g clip-path="url(#clip4_4510_24423)">
<path d="M10.8483 17.25C10.8483 17.0429 11.0162 16.875 11.2233 16.875H14.6518C14.8589 16.875 15.0268 17.0429 15.0268 17.25C15.0268 18.2855 14.1874 19.125 13.1518 19.125H12.7233C11.6877 19.125 10.8483 18.2855 10.8483 17.25Z" fill="#66253C"/>
<path fill-rule="evenodd" clip-rule="evenodd" d="M13.783 19.0161C13.5858 19.0866 13.3733 19.125 13.1518 19.125H12.7233C11.7128 19.125 10.8891 18.3257 10.8497 17.3249C11.1362 17.2177 11.5615 17.2301 11.9813 17.2423C12.1146 17.2461 12.2474 17.25 12.375 17.25C13.2035 17.25 13.875 17.8376 13.875 18.5625C13.875 18.7219 13.8426 18.8747 13.783 19.0161Z" fill="#B03E67"/>
<path d="M11.25 16.875H15V17.25C15 17.4571 14.8321 17.625 14.625 17.625H11.625C11.4179 17.625 11.25 17.4571 11.25 17.25V16.875Z" fill="white"/>
<path d="M12 16.9875C12 16.9254 12.0504 16.875 12.1125 16.875H12.6375C12.6996 16.875 12.75 16.9254 12.75 16.9875V17.8875C12.75 17.9496 12.6996 18 12.6375 18H12.1125C12.0504 18 12 17.9496 12 17.8875V16.9875Z" fill="#B03E67"/>
</g>
<g clip-path="url(#clip5_4510_24423)">
<rect x="11.25" y="13.125" width="1.125" height="1.5" rx="0.5625" fill="#1B0B47"/>
<rect x="15" y="13.125" width="1.125" height="1.5" rx="0.5625" fill="#1B0B47"/>
</g>
<g clip-path="url(#clip6_4510_24423)">
<g clip-path="url(#clip7_4510_24423)">
<path d="M10.5 17.25C10.5 16.6287 11.0037 16.125 11.625 16.125H15C15.6213 16.125 16.125 16.6287 16.125 17.25H10.5Z" fill="#1B0B47"/>
</g>
</g>
</g>
<defs>
<clipPath id="clip0_4510_24423">
<rect width="24" height="24" rx="12" fill="white"/>
</clipPath>
<clipPath id="clip1_4510_24423">
<rect width="24" height="24" fill="white"/>
</clipPath>
<clipPath id="clip2_4510_24423">
<rect width="24" height="24" fill="white"/>
</clipPath>
<clipPath id="clip3_4510_24423">
<rect width="24" height="24" fill="white"/>
</clipPath>
<clipPath id="clip4_4510_24423">
<rect width="24" height="24" fill="white" transform="translate(0.375)"/>
</clipPath>
<clipPath id="clip5_4510_24423">
<rect y="-0.375" width="24" height="24" rx="12" fill="white"/>
</clipPath>
<clipPath id="clip6_4510_24423">
<rect width="24" height="24" rx="12" fill="white"/>
</clipPath>
<clipPath id="clip7_4510_24423">
<rect width="24" height="24" fill="white"/>
</clipPath>
</defs>
</svg>
