<svg width="24" height="24" viewBox="0 0 24 24" fill="none" xmlns="http://www.w3.org/2000/svg">
<g clip-path="url(#clip0_4510_24383)">
<rect width="24" height="24" rx="12" fill="#FF595E"/>
<g clip-path="url(#clip1_4510_24383)">
<circle cx="6.75" cy="13.875" r="1.875" fill="#F0BD70"/>
<path d="M6.75 15.375H13.125V24.7014C13.125 24.7014 11.7589 25.5 9.9375 25.5C8.11607 25.5 6.75 24.196 6.75 24.196V15.375Z" fill="#F0BD70"/>
<path d="M13.0543 19.9171C13.0543 21.9363 12.7276 21.7452 10.6041 21.7452C8.48066 21.7452 7.5006 20.1082 7.5006 18.089C7.5006 16.0697 7.42 14.25 9.13402 14.25C13.98 14.4286 13.0543 17.8978 13.0543 19.9171Z" fill="#E9B05B"/>
<path d="M17.2072 13.5372C17.2072 16.8831 16.6875 20.9974 12.5625 20.9974C8.43747 20.9974 6.53563 16.8831 6.53563 13.5372C5.62497 9.5625 5.81247 4.875 12 4.875C18.1875 4.875 17.2072 10.1913 17.2072 13.5372Z" fill="#FFCB7E"/>
<rect x="13.5" y="15.375" width="1.125" height="0.75" rx="0.375" fill="#F0BD70"/>
</g>
<g clip-path="url(#clip2_4510_24383)">
<g clip-path="url(#clip3_4510_24383)">
<rect x="2.625" y="22.5" width="15" height="8.625" rx="3.375" fill="#E05A33"/>
<path d="M6.375 21.75H13.5V22.875C13.5 22.875 11.625 23.25 9.9375 23.25C8.25 23.25 6.375 22.875 6.375 22.875V21.75Z" fill="#E05A33"/>
<path d="M6.375 21.75H13.5V22.5C13.5 22.5 12.375 23.0625 9.9375 23.0625C7.5 23.0625 6.375 22.5 6.375 22.5V21.75Z" fill="#C53926"/>
<path d="M6.1875 22.125C6.1875 21.7108 6.52329 21.375 6.9375 21.375H12.9375C13.3517 21.375 13.6875 21.7108 13.6875 22.125C13.6875 22.125 11.8125 22.5 9.9375 22.5C8.0625 22.5 6.1875 22.125 6.1875 22.125Z" fill="#E05A33"/>
</g>
</g>
<g clip-path="url(#clip4_4510_24383)">
<g clip-path="url(#clip5_4510_24383)">
<path fill-rule="evenodd" clip-rule="evenodd" d="M18 9.375C18 8.48858 17.8254 7.61083 17.4862 6.79189C17.147 5.97294 16.6498 5.22882 16.023 4.60203C15.3962 3.97523 14.6521 3.47803 13.8331 3.13881C13.0142 2.79959 12.1364 2.625 11.25 2.625C10.3636 2.625 9.48583 2.79959 8.66689 3.13881C7.84794 3.47803 7.10382 3.97523 6.47703 4.60203C5.85023 5.22883 5.35303 5.97294 5.01381 6.79189C4.69858 7.55294 4.52551 8.36476 4.50261 9.18714L4.5 9.1875V9.375V24.375H8.625V12.9741C9.55677 12.7947 11.1672 12.4003 13.2031 11.5652C15.2519 10.7249 16.5304 9.93085 17.2034 9.45147C17.2942 10.3979 17.2628 11.3864 17.2336 12.3055C17.2199 12.735 17.2067 13.1493 17.2067 13.5372C17.2067 13.6901 17.2037 13.8438 17.1977 13.998C17.2843 13.9706 17.3652 13.9406 17.437 13.9079C17.9995 13.6513 17.9995 13.3092 17.9995 13.3092V9.375H18ZM5.625 12.375C5.55418 12.4281 5.48705 12.4863 5.42417 12.5492C5.25006 12.7233 5.11195 12.93 5.01773 13.1575C4.9235 13.385 4.875 13.6288 4.875 13.875C4.875 14.1212 4.9235 14.365 5.01773 14.5925C5.11195 14.82 5.25006 15.0267 5.42417 15.2008C5.48705 15.2637 5.55418 15.3219 5.625 15.375V12.375Z" fill="#47280B"/>
</g>
</g>
<g clip-path="url(#clip6_4510_24383)">
<path d="M10.8483 17.25C10.8483 17.0429 11.0162 16.875 11.2233 16.875H14.6518C14.8589 16.875 15.0268 17.0429 15.0268 17.25C15.0268 18.2855 14.1874 19.125 13.1518 19.125H12.7233C11.6877 19.125 10.8483 18.2855 10.8483 17.25Z" fill="#66253C"/>
<path fill-rule="evenodd" clip-rule="evenodd" d="M13.783 19.0161C13.5858 19.0866 13.3733 19.125 13.1518 19.125H12.7233C11.7128 19.125 10.8891 18.3257 10.8497 17.3249C11.1362 17.2177 11.5615 17.2301 11.9813 17.2423C12.1146 17.2461 12.2474 17.25 12.375 17.25C13.2035 17.25 13.875 17.8376 13.875 18.5625C13.875 18.7219 13.8426 18.8747 13.783 19.0161Z" fill="#B03E67"/>
<path d="M11.25 16.875H15V17.25C15 17.4571 14.8321 17.625 14.625 17.625H11.625C11.4179 17.625 11.25 17.4571 11.25 17.25V16.875Z" fill="white"/>
</g>
<g clip-path="url(#clip7_4510_24383)">
<path d="M11.25 13.6875C11.25 13.3768 11.5018 13.125 11.8125 13.125C12.1232 13.125 12.375 13.3768 12.375 13.6875V14.1477C12.375 14.2042 12.3292 14.25 12.2727 14.25H11.3523C11.2958 14.25 11.25 14.2042 11.25 14.1477V13.6875Z" fill="#1B0B47"/>
<path d="M15 13.6875C15 13.3768 15.2518 13.125 15.5625 13.125C15.8732 13.125 16.125 13.3768 16.125 13.6875V14.1477C16.125 14.2042 16.0792 14.25 16.0227 14.25H15.1023C15.0458 14.25 15 14.2042 15 14.1477V13.6875Z" fill="#1B0B47"/>
</g>
</g>
<defs>
<clipPath id="clip0_4510_24383">
<rect width="24" height="24" rx="12" fill="white"/>
</clipPath>
<clipPath id="clip1_4510_24383">
<rect width="24" height="24" fill="white"/>
</clipPath>
<clipPath id="clip2_4510_24383">
<rect width="24" height="24" fill="white"/>
</clipPath>
<clipPath id="clip3_4510_24383">
<rect width="24" height="24" fill="white"/>
</clipPath>
<clipPath id="clip4_4510_24383">
<rect width="24" height="24" fill="white"/>
</clipPath>
<clipPath id="clip5_4510_24383">
<rect width="24" height="24" fill="white"/>
</clipPath>
<clipPath id="clip6_4510_24383">
<rect width="24" height="24" fill="white" transform="translate(0.375)"/>
</clipPath>
<clipPath id="clip7_4510_24383">
<rect y="-0.375" width="24" height="24" rx="12" fill="white"/>
</clipPath>
</defs>
</svg>
