<svg width="24" height="24" viewBox="0 0 24 24" fill="none" xmlns="http://www.w3.org/2000/svg">
<g clip-path="url(#clip0_4510_24399)">
<rect width="24" height="24" rx="12" fill="#AB987B"/>
<g clip-path="url(#clip1_4510_24399)">
<circle cx="6.75" cy="13.875" r="1.875" fill="#F0BD70"/>
<path d="M6.75 15.375H13.125V24.7014C13.125 24.7014 11.7589 25.5 9.9375 25.5C8.11607 25.5 6.75 24.196 6.75 24.196V15.375Z" fill="#F0BD70"/>
<path d="M13.1251 20.2004C13.1251 22.3206 11.8125 22.4998 10.6437 22.1199C9.47492 21.74 7.125 18.4325 7.125 16.3123C7.125 14.1921 7.41904 14.25 9.1549 14.25C14.0626 14.4375 13.1251 18.0802 13.1251 20.2004Z" fill="#E9B05B"/>
<path d="M17.2072 13.5372C17.2072 16.8831 15.7494 20.625 13.3119 21.1875C9.74939 20.8125 6.53563 16.8831 6.53563 13.5372C5.62497 9.5625 5.81247 4.875 12 4.875C18.1875 4.875 17.2072 10.1913 17.2072 13.5372Z" fill="#FFCB7E"/>
<rect x="13.5" y="15.375" width="1.125" height="0.75" rx="0.375" fill="#F0BD70"/>
</g>
<g clip-path="url(#clip2_4510_24399)">
<g clip-path="url(#clip3_4510_24399)">
<rect x="2.625" y="22.5" width="15" height="8.625" rx="3.375" fill="#3633E0"/>
</g>
</g>
<path fill-rule="evenodd" clip-rule="evenodd" d="M10.8618 9.82543C12.966 10.524 15.8826 11.4923 18.9375 8.4375C20.4375 6.9375 13.6875 0.5625 8.24995 4.125C3.99998 4.75463 4.24287 7.30119 4.43031 9.26649C4.46615 9.64223 4.49996 9.99672 4.49996 10.3125C4.49996 10.5124 4.52609 10.662 4.57511 10.7694C4.51483 11.2318 4.5 11.6945 4.5 12C4.5 12.8284 5.17157 13.5 6 13.5C6.82843 13.5 7.5 12.8284 7.5 12C8.32843 12 9 11.3284 9 10.5C9 10.3702 8.98352 10.2443 8.95255 10.1243C8.96831 10.1248 8.98412 10.125 9 10.125C9.45889 10.125 9.86966 9.91893 10.1448 9.59428C10.3715 9.66264 10.6109 9.74212 10.8618 9.82543Z" fill="#47280B"/>
<g clip-path="url(#clip4_4510_24399)">
<path d="M10.8483 17.25C10.8483 17.0429 11.0162 16.875 11.2233 16.875H14.6518C14.8589 16.875 15.0268 17.0429 15.0268 17.25C15.0268 18.2855 14.1874 19.125 13.1518 19.125H12.7233C11.6877 19.125 10.8483 18.2855 10.8483 17.25Z" fill="#66253C"/>
<path fill-rule="evenodd" clip-rule="evenodd" d="M13.783 19.0161C13.5858 19.0866 13.3733 19.125 13.1518 19.125H12.7233C11.7128 19.125 10.8891 18.3257 10.8497 17.3249C11.1362 17.2177 11.5615 17.2301 11.9813 17.2423C12.1146 17.2461 12.2474 17.25 12.375 17.25C13.2035 17.25 13.875 17.8376 13.875 18.5625C13.875 18.7219 13.8426 18.8747 13.783 19.0161Z" fill="#B03E67"/>
<path d="M11.25 16.875H15V17.25C15 17.4571 14.8321 17.625 14.625 17.625H11.625C11.4179 17.625 11.25 17.4571 11.25 17.25V16.875Z" fill="white"/>
</g>
<g clip-path="url(#clip5_4510_24399)">
<rect x="11.25" y="13.125" width="1.125" height="1.5" rx="0.5625" fill="#1B0B47"/>
<rect x="15" y="13.125" width="1.125" height="1.5" rx="0.5625" fill="#1B0B47"/>
</g>
<g clip-path="url(#clip6_4510_24399)">
<circle cx="11.3508" cy="13.6008" r="1.60084" stroke="black" stroke-width="0.75"/>
<circle cx="16.6008" cy="13.6008" r="1.60084" stroke="black" stroke-width="0.75"/>
<line x1="12.7445" y1="13.1639" x2="15.3695" y2="13.125" stroke="black" stroke-width="0.75"/>
</g>
<g clip-path="url(#clip7_4510_24399)">
<g clip-path="url(#clip8_4510_24399)">
<path d="M10.5 17.25C10.5 16.6287 11.0037 16.125 11.625 16.125H15C15.6213 16.125 16.125 16.6287 16.125 17.25H10.5Z" fill="#47280B"/>
</g>
</g>
</g>
<defs>
<clipPath id="clip0_4510_24399">
<rect width="24" height="24" rx="12" fill="white"/>
</clipPath>
<clipPath id="clip1_4510_24399">
<rect width="24" height="24" fill="white"/>
</clipPath>
<clipPath id="clip2_4510_24399">
<rect width="24" height="24" fill="white"/>
</clipPath>
<clipPath id="clip3_4510_24399">
<rect width="24" height="24" fill="white"/>
</clipPath>
<clipPath id="clip4_4510_24399">
<rect width="24" height="24" fill="white" transform="translate(0.375)"/>
</clipPath>
<clipPath id="clip5_4510_24399">
<rect y="-0.375" width="24" height="24" rx="12" fill="white"/>
</clipPath>
<clipPath id="clip6_4510_24399">
<rect width="24" height="24" rx="12" fill="white"/>
</clipPath>
<clipPath id="clip7_4510_24399">
<rect width="24" height="24" rx="12" fill="white"/>
</clipPath>
<clipPath id="clip8_4510_24399">
<rect width="24" height="24" fill="white"/>
</clipPath>
</defs>
</svg>
