<svg width="24" height="24" viewBox="0 0 24 24" fill="none" xmlns="http://www.w3.org/2000/svg">
<g clip-path="url(#clip0_4510_24439)">
<rect width="24" height="24" rx="12" fill="#AFCBFF"/>
<g clip-path="url(#clip1_4510_24439)">
<circle cx="6.75" cy="13.875" r="1.875" fill="#68463C"/>
<path d="M6.75 15.375H13.125V24.7014C13.125 24.7014 11.7589 25.5 9.9375 25.5C8.11607 25.5 6.75 24.196 6.75 24.196V15.375Z" fill="#68463C"/>
<path d="M13.0543 19.9171C13.0543 21.9363 12.7276 21.7452 10.6041 21.7452C8.48066 21.7452 7.5006 20.1082 7.5006 18.089C7.5006 16.0697 7.42 14.25 9.13402 14.25C13.98 14.4286 13.0543 17.8978 13.0543 19.9171Z" fill="#553329"/>
<path d="M17.2072 13.5372C17.2072 16.8831 16.6875 20.9974 12.5625 20.9974C8.43747 20.9974 6.53563 16.8831 6.53563 13.5372C5.62497 9.5625 5.81247 4.875 12 4.875C18.1875 4.875 17.2072 10.1913 17.2072 13.5372Z" fill="#836055"/>
<rect x="13.5" y="15.375" width="1.125" height="0.75" rx="0.375" fill="#68463C"/>
</g>
<g clip-path="url(#clip2_4510_24439)">
<g clip-path="url(#clip3_4510_24439)">
<rect x="2.625" y="22.5" width="15" height="8.625" rx="3.375" fill="#E05A33"/>
<path d="M6.375 21.75H13.5V22.875C13.5 22.875 11.625 23.25 9.9375 23.25C8.25 23.25 6.375 22.875 6.375 22.875V21.75Z" fill="#E05A33"/>
<path d="M6.375 21.75H13.5V22.5C13.5 22.5 12.375 23.0625 9.9375 23.0625C7.5 23.0625 6.375 22.5 6.375 22.5V21.75Z" fill="#C53926"/>
<path d="M6.1875 22.125C6.1875 21.7108 6.52329 21.375 6.9375 21.375H12.9375C13.3517 21.375 13.6875 21.7108 13.6875 22.125C13.6875 22.125 11.8125 22.5 9.9375 22.5C8.0625 22.5 6.1875 22.125 6.1875 22.125Z" fill="#E05A33"/>
</g>
</g>
<path fill-rule="evenodd" clip-rule="evenodd" d="M17.2379 12.1812C17.6929 11.9236 17.9999 11.4352 17.9999 10.875C17.9999 10.6902 17.9665 10.5131 17.9053 10.3496C18.4053 10.1063 18.7499 9.59342 18.7499 9C18.7499 8.17157 18.0784 7.5 17.2499 7.5C17.0908 7.5 16.9374 7.52479 16.7935 7.57072C17.3251 8.94843 17.2861 10.6526 17.2379 12.1812Z" fill="#1B0B47"/>
<path fill-rule="evenodd" clip-rule="evenodd" d="M13.6112 8.53476C13.2812 8.8244 12.8486 9 12.375 9C11.9432 9 11.5455 8.85404 11.2285 8.60877C10.7537 9.08227 10.0985 9.375 9.375 9.375C9.10815 9.375 8.8506 9.33518 8.60796 9.26116C8.51059 9.3678 8.39803 9.46033 8.2737 9.53533C8.49294 9.79612 8.625 10.1326 8.625 10.5C8.625 11.0987 8.27425 11.6155 7.76702 11.856C7.83492 11.949 7.875 12.0636 7.875 12.1875C7.875 12.4982 7.62316 12.75 7.3125 12.75L7.29941 12.7499C7.04008 13.1983 6.55527 13.5 6 13.5C5.17157 13.5 4.5 12.8284 4.5 12C4.5 11.8474 4.52278 11.7002 4.56513 11.5614C4.29322 11.2899 4.125 10.9146 4.125 10.5C4.125 10.0854 4.29322 9.71006 4.56513 9.43855C4.52278 9.29983 4.5 9.15258 4.5 9C4.5 8.63786 4.62833 8.3057 4.842 8.0465C4.62433 7.66404 4.5 7.22154 4.5 6.75C4.5 5.55948 5.29254 4.55407 6.3788 4.23258C6.37628 4.19705 6.375 4.16117 6.375 4.125C6.375 3.29657 7.04657 2.625 7.875 2.625C8.13849 2.625 8.38612 2.69294 8.60132 2.81226C9.05523 2.02778 9.90348 1.5 10.875 1.5C11.39 1.5 11.8704 1.64831 12.2757 1.90454C12.7208 1.42504 13.3566 1.125 14.0625 1.125C15.0812 1.125 15.954 1.74993 16.3183 2.63734C17.0554 2.73217 17.625 3.36207 17.625 4.125C17.625 4.20283 17.6191 4.27928 17.6076 4.35392C18.3034 4.86898 18.75 5.66685 18.75 6.5625C18.75 8.1158 17.4069 9.375 15.75 9.375C14.9127 9.375 14.1555 9.05339 13.6112 8.53476Z" fill="#1B0B47"/>
<g clip-path="url(#clip4_4510_24439)">
<path d="M10.8483 17.25C10.8483 17.0429 11.0162 16.875 11.2233 16.875H14.6518C14.8589 16.875 15.0268 17.0429 15.0268 17.25C15.0268 18.2855 14.1874 19.125 13.1518 19.125H12.7233C11.6877 19.125 10.8483 18.2855 10.8483 17.25Z" fill="#66253C"/>
<path fill-rule="evenodd" clip-rule="evenodd" d="M13.783 19.0161C13.5858 19.0866 13.3733 19.125 13.1518 19.125H12.7233C11.7128 19.125 10.8891 18.3257 10.8497 17.3249C11.1362 17.2177 11.5615 17.2301 11.9813 17.2423C12.1146 17.2461 12.2474 17.25 12.375 17.25C13.2035 17.25 13.875 17.8376 13.875 18.5625C13.875 18.7219 13.8426 18.8747 13.783 19.0161Z" fill="#B03E67"/>
<path d="M11.25 16.875H15V17.25C15 17.4571 14.8321 17.625 14.625 17.625H11.625C11.4179 17.625 11.25 17.4571 11.25 17.25V16.875Z" fill="white"/>
</g>
<g clip-path="url(#clip5_4510_24439)">
<rect x="11.25" y="13.125" width="1.125" height="1.5" rx="0.5625" fill="#1B0B47"/>
<rect x="15" y="13.125" width="1.125" height="1.5" rx="0.5625" fill="#1B0B47"/>
</g>
</g>
<defs>
<clipPath id="clip0_4510_24439">
<rect width="24" height="24" rx="12" fill="white"/>
</clipPath>
<clipPath id="clip1_4510_24439">
<rect width="24" height="24" fill="white"/>
</clipPath>
<clipPath id="clip2_4510_24439">
<rect width="24" height="24" fill="white"/>
</clipPath>
<clipPath id="clip3_4510_24439">
<rect width="24" height="24" fill="white"/>
</clipPath>
<clipPath id="clip4_4510_24439">
<rect width="24" height="24" fill="white" transform="translate(0.375)"/>
</clipPath>
<clipPath id="clip5_4510_24439">
<rect y="-0.375" width="24" height="24" rx="12" fill="white"/>
</clipPath>
</defs>
</svg>
