<svg width="24" height="24" viewBox="0 0 24 24" fill="none" xmlns="http://www.w3.org/2000/svg">
<g clip-path="url(#clip0_4510_24375)">
<rect width="24" height="24" rx="12" fill="#6E84D4"/>
<g clip-path="url(#clip1_4510_24375)">
<circle cx="6.75" cy="13.875" r="1.875" fill="#EAC0B3"/>
<path d="M6.75 15.375H13.125V24.7014C13.125 24.7014 11.7589 25.5 9.9375 25.5C8.11607 25.5 6.75 24.196 6.75 24.196V15.375Z" fill="#EAC0B3"/>
<path d="M13.0543 19.9171C13.0543 21.9363 12.7276 21.7452 10.6041 21.7452C8.48066 21.7452 7.5006 20.1082 7.5006 18.089C7.5006 16.0697 7.42 14.25 9.13402 14.25C13.98 14.4286 13.0543 17.8978 13.0543 19.9171Z" fill="#C99688"/>
<path d="M17.2072 13.5372C17.2072 16.8831 16.6875 20.9974 12.5625 20.9974C8.43747 20.9974 6.53563 16.8831 6.53563 13.5372C5.62497 9.5625 5.81247 4.875 12 4.875C18.1875 4.875 17.2072 10.1913 17.2072 13.5372Z" fill="#F5D0C5"/>
<rect x="13.5" y="15.375" width="1.125" height="0.75" rx="0.375" fill="#EAC0B3"/>
</g>
<g clip-path="url(#clip2_4510_24375)">
<g clip-path="url(#clip3_4510_24375)">
<rect x="2.625" y="22.5" width="15" height="8.625" rx="3.375" fill="#3633E0"/>
<path d="M6.375 21.75H13.5V22.875C13.5 22.875 11.625 23.25 9.9375 23.25C8.25 23.25 6.375 22.875 6.375 22.875V21.75Z" fill="#3633E0"/>
<path d="M6.375 21.75H13.5V22.5C13.5 22.5 12.375 23.0625 9.9375 23.0625C7.5 23.0625 6.375 22.5 6.375 22.5V21.75Z" fill="#362ABC"/>
<path d="M6.1875 22.125C6.1875 21.7108 6.52329 21.375 6.9375 21.375H12.9375C13.3517 21.375 13.6875 21.7108 13.6875 22.125C13.6875 22.125 11.8125 22.5 9.9375 22.5C8.0625 22.5 6.1875 22.125 6.1875 22.125Z" fill="#3633E0"/>
</g>
</g>
<path fill-rule="evenodd" clip-rule="evenodd" d="M10.5441 10.2989C13.4678 10.7272 18.5996 11.4791 19.125 6.74997C19.5 3.37498 14.4375 -0.562525 9.00001 2.99997C5.58407 3.50604 4.72915 6.10417 4.53439 8.34514C4.2806 8.61381 4.125 8.97622 4.125 9.37498C4.125 9.5739 4.16372 9.76377 4.23403 9.93748C4.16372 10.1112 4.125 10.3011 4.125 10.5C4.125 10.9146 4.29322 11.2899 4.56513 11.5614C4.52278 11.7001 4.5 11.8474 4.5 12C4.5 12.8284 5.17157 13.5 6 13.5C6.82843 13.5 7.5 12.8284 7.5 12C8.32843 12 9 11.3284 9 10.5C9 10.3707 8.98364 10.2452 8.95288 10.1255C8.96863 10.1252 8.98434 10.125 9.00001 10.125C9.35689 10.125 9.89631 10.204 10.5441 10.2989Z" fill="#AD3A20"/>
<g clip-path="url(#clip4_4510_24375)">
<path d="M10.8483 17.25C10.8483 17.0429 11.0162 16.875 11.2233 16.875H14.6518C14.8589 16.875 15.0268 17.0429 15.0268 17.25C15.0268 18.2855 14.1874 19.125 13.1518 19.125H12.7233C11.6877 19.125 10.8483 18.2855 10.8483 17.25Z" fill="#66253C"/>
<path fill-rule="evenodd" clip-rule="evenodd" d="M13.783 19.0161C13.5858 19.0866 13.3733 19.125 13.1518 19.125H12.7233C11.7128 19.125 10.8891 18.3257 10.8497 17.3249C11.1362 17.2177 11.5615 17.2301 11.9813 17.2423C12.1146 17.2461 12.2474 17.25 12.375 17.25C13.2035 17.25 13.875 17.8376 13.875 18.5625C13.875 18.7219 13.8426 18.8747 13.783 19.0161Z" fill="#B03E67"/>
<path d="M11.25 16.875H15V17.25C15 17.4571 14.8321 17.625 14.625 17.625H11.625C11.4179 17.625 11.25 17.4571 11.25 17.25V16.875Z" fill="white"/>
</g>
<g clip-path="url(#clip5_4510_24375)">
<path d="M16.125 13.6875C16.125 13.9982 15.8732 14.25 15.5625 14.25C15.2518 14.25 15 13.9982 15 13.6875L15 13.2273C15 13.1708 15.0458 13.125 15.1023 13.125L16.0227 13.125C16.0792 13.125 16.125 13.1708 16.125 13.2273L16.125 13.6875Z" fill="#1B0B47"/>
<path d="M12.375 13.6875C12.375 13.9982 12.1232 14.25 11.8125 14.25C11.5018 14.25 11.25 13.9982 11.25 13.6875L11.25 13.2273C11.25 13.1708 11.2958 13.125 11.3523 13.125L12.2727 13.125C12.3292 13.125 12.375 13.1708 12.375 13.2273L12.375 13.6875Z" fill="#1B0B47"/>
<line x1="11.0625" y1="13.3125" x2="12.5625" y2="13.3125" stroke="#1B0B47" stroke-width="0.375" stroke-linecap="round"/>
<line x1="14.8125" y1="13.3125" x2="16.3125" y2="13.3125" stroke="#1B0B47" stroke-width="0.375" stroke-linecap="round"/>
</g>
</g>
<defs>
<clipPath id="clip0_4510_24375">
<rect width="24" height="24" rx="12" fill="white"/>
</clipPath>
<clipPath id="clip1_4510_24375">
<rect width="24" height="24" fill="white"/>
</clipPath>
<clipPath id="clip2_4510_24375">
<rect width="24" height="24" fill="white"/>
</clipPath>
<clipPath id="clip3_4510_24375">
<rect width="24" height="24" fill="white"/>
</clipPath>
<clipPath id="clip4_4510_24375">
<rect width="24" height="24" fill="white" transform="translate(0.375)"/>
</clipPath>
<clipPath id="clip5_4510_24375">
<rect y="-0.375" width="24" height="24" rx="12" fill="white"/>
</clipPath>
</defs>
</svg>
