<svg width="24" height="24" viewBox="0 0 24 24" fill="none" xmlns="http://www.w3.org/2000/svg">
<g clip-path="url(#clip0_4510_24391)">
<rect width="24" height="24" rx="12" fill="#FF70A6"/>
<g clip-path="url(#clip1_4510_24391)">
<circle cx="6.75" cy="13.875" r="1.875" fill="#68463C"/>
<path d="M6.75 15.375H13.125V24.7014C13.125 24.7014 11.7589 25.5 9.9375 25.5C8.11607 25.5 6.75 24.196 6.75 24.196V15.375Z" fill="#68463C"/>
<path d="M13.125 20.2004C13.125 22.3206 12.7942 22.1199 10.6436 22.1199C8.49315 22.1199 7.5006 20.4011 7.5006 18.2809C7.5006 16.1607 7.41898 14.25 9.15484 14.25C14.0625 14.4375 13.125 18.0802 13.125 20.2004Z" fill="#553329"/>
<path d="M17.2072 13.5372C17.2072 16.8831 18.5893 20.9974 12.5625 20.9974C6.53563 20.9974 6.53563 16.8831 6.53563 13.5372C5.62497 9.5625 5.81247 4.875 12 4.875C18.1875 4.875 17.2072 10.1913 17.2072 13.5372Z" fill="#836055"/>
<rect x="13.5" y="15.375" width="1.125" height="0.75" rx="0.375" fill="#68463C"/>
</g>
<g clip-path="url(#clip2_4510_24391)">
<g clip-path="url(#clip3_4510_24391)">
<rect x="2.625" y="22.5" width="15" height="8.625" rx="3.375" fill="#3633E0"/>
</g>
</g>
<path fill-rule="evenodd" clip-rule="evenodd" d="M9 9.375C9 9.57392 8.96128 9.76379 8.89097 9.9375C8.96128 10.1112 9 10.3011 9 10.5C9 11.3284 8.32843 12 7.5 12C7.5 12.8284 6.82843 13.5 6 13.5C5.17157 13.5 4.5 12.8284 4.5 12C4.5 11.6078 4.52445 10.9566 4.63809 10.3795C4.54946 10.1881 4.5 9.97482 4.5 9.75C4.5 8.92157 5.17157 8.25 6 8.25C6.15258 8.25 6.29983 8.27278 6.43855 8.31513C6.71006 8.04322 7.08539 7.875 7.5 7.875C8.32843 7.875 9 8.54657 9 9.375Z" fill="#47280B"/>
<path fill-rule="evenodd" clip-rule="evenodd" d="M17.1932 12.7098C17.8546 12.5534 18.3467 11.9591 18.3467 11.25C18.3467 11.051 18.308 10.8612 18.2377 10.6874C18.308 10.5137 18.3467 10.3239 18.3467 10.125C18.3467 9.36982 17.7887 8.74501 17.0625 8.64038C17.2848 9.81808 17.2434 11.1195 17.2057 12.3055C17.2014 12.4419 17.1971 12.5768 17.1932 12.7098Z" fill="#47280B"/>
<g clip-path="url(#clip4_4510_24391)">
<path d="M10.8483 17.25C10.8483 17.0429 11.0162 16.875 11.2233 16.875H14.6518C14.8589 16.875 15.0268 17.0429 15.0268 17.25C15.0268 18.2855 14.1874 19.125 13.1518 19.125H12.7233C11.6877 19.125 10.8483 18.2855 10.8483 17.25Z" fill="#66253C"/>
<path fill-rule="evenodd" clip-rule="evenodd" d="M13.783 19.0161C13.5858 19.0866 13.3733 19.125 13.1518 19.125H12.7233C11.7128 19.125 10.8891 18.3257 10.8497 17.3249C11.1362 17.2177 11.5615 17.2301 11.9813 17.2423C12.1146 17.2461 12.2474 17.25 12.375 17.25C13.2035 17.25 13.875 17.8376 13.875 18.5625C13.875 18.7219 13.8426 18.8747 13.783 19.0161Z" fill="#B03E67"/>
<path d="M11.25 16.875H15V17.25C15 17.4571 14.8321 17.625 14.625 17.625H11.625C11.4179 17.625 11.25 17.4571 11.25 17.25V16.875Z" fill="white"/>
</g>
<g clip-path="url(#clip5_4510_24391)">
<path d="M16.125 13.6875C16.125 13.9982 15.8732 14.25 15.5625 14.25C15.2518 14.25 15 13.9982 15 13.6875L15 13.2273C15 13.1708 15.0458 13.125 15.1023 13.125L16.0227 13.125C16.0792 13.125 16.125 13.1708 16.125 13.2273L16.125 13.6875Z" fill="#1B0B47"/>
<path d="M12.375 13.6875C12.375 13.9982 12.1232 14.25 11.8125 14.25C11.5018 14.25 11.25 13.9982 11.25 13.6875L11.25 13.2273C11.25 13.1708 11.2958 13.125 11.3523 13.125L12.2727 13.125C12.3292 13.125 12.375 13.1708 12.375 13.2273L12.375 13.6875Z" fill="#1B0B47"/>
<line x1="11.0625" y1="13.3125" x2="12.5625" y2="13.3125" stroke="#1B0B47" stroke-width="0.375" stroke-linecap="round"/>
<line x1="14.8125" y1="13.3125" x2="16.3125" y2="13.3125" stroke="#1B0B47" stroke-width="0.375" stroke-linecap="round"/>
</g>
<g clip-path="url(#clip6_4510_24391)">
<path fill-rule="evenodd" clip-rule="evenodd" d="M14.0625 16.125C11.625 16.6875 9.9375 16.875 9.9375 16.875C9.9375 16.875 10.3125 17.8125 11.25 17.625C12 17.475 13.5 17.125 14.0625 16.875V16.125ZM14.25 16.125C16.5 16.5 18 16.7834 18 16.7834C18 16.7834 17.5804 17.6021 16.6875 17.4375C16.6488 17.4304 16.6086 17.423 16.5673 17.4154C15.8463 17.2829 14.7567 17.0826 14.25 16.875V16.125Z" fill="#47280B"/>
</g>
</g>
<defs>
<clipPath id="clip0_4510_24391">
<rect width="24" height="24" rx="12" fill="white"/>
</clipPath>
<clipPath id="clip1_4510_24391">
<rect width="24" height="24" fill="white"/>
</clipPath>
<clipPath id="clip2_4510_24391">
<rect width="24" height="24" fill="white"/>
</clipPath>
<clipPath id="clip3_4510_24391">
<rect width="24" height="24" fill="white"/>
</clipPath>
<clipPath id="clip4_4510_24391">
<rect width="24" height="24" fill="white" transform="translate(0.375)"/>
</clipPath>
<clipPath id="clip5_4510_24391">
<rect y="-0.375" width="24" height="24" rx="12" fill="white"/>
</clipPath>
<clipPath id="clip6_4510_24391">
<rect width="24" height="24" rx="12" fill="white"/>
</clipPath>
</defs>
</svg>
