<svg width="24" height="24" viewBox="0 0 24 24" fill="none" xmlns="http://www.w3.org/2000/svg">
<g clip-path="url(#clip0_4510_24455)">
<rect width="24" height="24" rx="12" fill="#776BFF"/>
<g clip-path="url(#clip1_4510_24455)">
<circle cx="6.75" cy="13.875" r="1.875" fill="#F0BD70"/>
<path d="M6.75 15.375H13.125V24.7014C13.125 24.7014 11.7589 25.5 9.9375 25.5C8.11607 25.5 6.75 24.196 6.75 24.196V15.375Z" fill="#F0BD70"/>
<path d="M13.0543 19.9171C13.0543 21.9363 12.7276 21.7452 10.6041 21.7452C8.48066 21.7452 7.5006 20.1082 7.5006 18.089C7.5006 16.0697 7.42 14.25 9.13402 14.25C13.98 14.4286 13.0543 17.8978 13.0543 19.9171Z" fill="#E9B05B"/>
<path d="M17.2072 13.5372C17.2072 16.8831 16.6875 20.9974 12.5625 20.9974C8.43747 20.9974 6.53563 16.8831 6.53563 13.5372C5.62497 9.5625 5.81247 4.875 12 4.875C18.1875 4.875 17.2072 10.1913 17.2072 13.5372Z" fill="#FFCB7E"/>
<rect x="13.5" y="15.375" width="1.125" height="0.75" rx="0.375" fill="#F0BD70"/>
</g>
<g clip-path="url(#clip2_4510_24455)">
<g clip-path="url(#clip3_4510_24455)">
<rect x="2.625" y="22.5" width="15" height="8.625" rx="3.375" fill="#FF4DD8"/>
</g>
</g>
<rect x="5.25" y="9.75" width="3.375" height="0.75" rx="0.375" fill="#1B0B47"/>
<rect x="5.25" y="12.375" width="2.625" height="0.75" rx="0.375" fill="#1B0B47"/>
<rect x="4.5" y="10.875" width="4.875" height="1.125" rx="0.5625" fill="#1B0B47"/>
<g clip-path="url(#clip4_4510_24455)">
<path d="M10.8483 17.25C10.8483 17.0429 11.0162 16.875 11.2233 16.875H14.6518C14.8589 16.875 15.0268 17.0429 15.0268 17.25C15.0268 18.2855 14.1874 19.125 13.1518 19.125H12.7233C11.6877 19.125 10.8483 18.2855 10.8483 17.25Z" fill="#66253C"/>
<path fill-rule="evenodd" clip-rule="evenodd" d="M13.783 19.0161C13.5858 19.0866 13.3733 19.125 13.1518 19.125H12.7233C11.7128 19.125 10.8891 18.3257 10.8497 17.3249C11.1362 17.2177 11.5615 17.2301 11.9813 17.2423C12.1146 17.2461 12.2474 17.25 12.375 17.25C13.2035 17.25 13.875 17.8376 13.875 18.5625C13.875 18.7219 13.8426 18.8747 13.783 19.0161Z" fill="#B03E67"/>
<path d="M11.25 16.875H15V17.25C15 17.4571 14.8321 17.625 14.625 17.625H11.625C11.4179 17.625 11.25 17.4571 11.25 17.25V16.875Z" fill="white"/>
</g>
<g clip-path="url(#clip5_4510_24455)">
<path d="M11.25 13.6875C11.25 13.3768 11.5018 13.125 11.8125 13.125C12.1232 13.125 12.375 13.3768 12.375 13.6875V14.1477C12.375 14.2042 12.3292 14.25 12.2727 14.25H11.3523C11.2958 14.25 11.25 14.2042 11.25 14.1477V13.6875Z" fill="#1B0B47"/>
<path d="M15 13.6875C15 13.3768 15.2518 13.125 15.5625 13.125C15.8732 13.125 16.125 13.3768 16.125 13.6875V14.1477C16.125 14.2042 16.0792 14.25 16.0227 14.25H15.1023C15.0458 14.25 15 14.2042 15 14.1477V13.6875Z" fill="#1B0B47"/>
</g>
<g clip-path="url(#clip6_4510_24455)">
<g clip-path="url(#clip7_4510_24455)">
<path d="M10.5 17.25C10.5 16.6287 11.0037 16.125 11.625 16.125H15C15.6213 16.125 16.125 16.6287 16.125 17.25H10.5Z" fill="#1B0B47"/>
</g>
</g>
</g>
<defs>
<clipPath id="clip0_4510_24455">
<rect width="24" height="24" rx="12" fill="white"/>
</clipPath>
<clipPath id="clip1_4510_24455">
<rect width="24" height="24" fill="white"/>
</clipPath>
<clipPath id="clip2_4510_24455">
<rect width="24" height="24" fill="white"/>
</clipPath>
<clipPath id="clip3_4510_24455">
<rect width="24" height="24" fill="white"/>
</clipPath>
<clipPath id="clip4_4510_24455">
<rect width="24" height="24" fill="white" transform="translate(0.375)"/>
</clipPath>
<clipPath id="clip5_4510_24455">
<rect y="-0.375" width="24" height="24" rx="12" fill="white"/>
</clipPath>
<clipPath id="clip6_4510_24455">
<rect width="24" height="24" rx="12" fill="white"/>
</clipPath>
<clipPath id="clip7_4510_24455">
<rect width="24" height="24" fill="white"/>
</clipPath>
</defs>
</svg>
