<svg width="24" height="24" viewBox="0 0 24 24" fill="none" xmlns="http://www.w3.org/2000/svg">
<g clip-path="url(#clip0_4510_24431)">
<rect width="24" height="24" rx="12" fill="#FFCD4E"/>
<g clip-path="url(#clip1_4510_24431)">
<circle cx="6.75" cy="13.875" r="1.875" fill="#68463C"/>
<path d="M6.75 15.375H13.125V24.7014C13.125 24.7014 11.7589 25.5 9.9375 25.5C8.11607 25.5 6.75 24.196 6.75 24.196V15.375Z" fill="#68463C"/>
<path d="M13.0543 19.9171C13.0543 21.9363 12.7276 21.7452 10.6041 21.7452C8.48066 21.7452 7.5006 20.1082 7.5006 18.089C7.5006 16.0697 7.42 14.25 9.13402 14.25C13.98 14.4286 13.0543 17.8978 13.0543 19.9171Z" fill="#553329"/>
<path d="M17.2072 13.5372C17.2072 16.8831 16.6875 20.9974 12.5625 20.9974C8.43747 20.9974 6.53563 16.8831 6.53563 13.5372C5.62497 9.5625 5.81247 4.875 12 4.875C18.1875 4.875 17.2072 10.1913 17.2072 13.5372Z" fill="#836055"/>
<rect x="13.5" y="15.375" width="1.125" height="0.75" rx="0.375" fill="#68463C"/>
</g>
<g clip-path="url(#clip2_4510_24431)">
<g clip-path="url(#clip3_4510_24431)">
<rect x="2.625" y="22.5" width="15" height="8.625" rx="3.375" fill="#E05A33"/>
<path d="M6.375 21.75H13.5V22.875C13.5 22.875 11.625 23.25 9.9375 23.25C8.25 23.25 6.375 22.875 6.375 22.875V21.75Z" fill="#E05A33"/>
<path d="M6.375 21.75H13.5V22.5C13.5 22.5 12.375 23.0625 9.9375 23.0625C7.5 23.0625 6.375 22.5 6.375 22.5V21.75Z" fill="#C53926"/>
<path d="M6.1875 22.125C6.1875 21.7108 6.52329 21.375 6.9375 21.375H12.9375C13.3517 21.375 13.6875 21.7108 13.6875 22.125C13.6875 22.125 11.8125 22.5 9.9375 22.5C8.0625 22.5 6.1875 22.125 6.1875 22.125Z" fill="#E05A33"/>
</g>
</g>
<g clip-path="url(#clip4_4510_24431)">
<path d="M-0.000418901 3.74924C2.99854 0.750687 4.87529 4.87473 4.87529 4.87473L4.12476 7.87452C4.12476 7.87452 3.37464 8.81189 4.12476 11.6244C4.87488 14.4369 3.18713 15.9369 3.18713 15.9369C3.18713 15.9369 1.87495 16.875 0.749945 16.125C-0.375055 15.375 -0.524156 14.6544 -0.375055 13.3125C-0.187555 11.625 0.374624 12.1869 0.374624 10.4994C0.374624 8.81189 -2.99938 6.7478 -0.000418901 3.74924Z" fill="#1B0B47"/>
<path d="M4.88653 4.943L6.95174 5.83599L5.61225 8.93379L3.54705 8.0408C3.54705 8.0408 3.18747 7.31249 3.74932 6.18784C4.31116 5.06319 4.88653 4.943 4.88653 4.943Z" fill="#FF6C98"/>
<path fill-rule="evenodd" clip-rule="evenodd" d="M6.75 15.375L6.25371 12.0664C5.45902 12.2839 4.875 13.0113 4.875 13.875C4.875 14.9105 5.71447 15.75 6.75 15.75V18.8625C6.169 18.3505 5.65289 17.7407 5.21902 17.0511C4.58121 16.0373 4.13594 14.8746 3.91328 13.6413C3.69062 12.4081 3.69574 11.133 3.92832 9.90229C4.16089 8.67156 4.61549 7.51379 5.26142 6.50715C5.90736 5.50051 6.72959 4.66843 7.67261 4.06709C8.61563 3.46576 9.65748 3.10916 10.7278 3.02139C10.9615 3.00223 11.1953 2.99597 11.4285 3.0025C11.4939 3.00083 11.5594 3 11.625 3C12.5607 3 13.4872 3.16974 14.3516 3.49954C15.2161 3.82934 16.0015 4.31273 16.6631 4.92211C17.3248 5.5315 17.8496 6.25494 18.2076 7.05114C18.4876 7.67358 18.6613 8.33096 18.7238 9H18.75V9.5625V10.6071C18.75 10.6071 18.6267 10.6644 18.3756 10.7447V13.9276C18.3756 13.9276 18.3756 14.4539 17.8131 14.8487C17.6184 14.9853 17.3564 15.0904 17.0969 15.1694C17.1705 14.625 17.2083 14.076 17.2083 13.5372C17.2083 13.1494 17.2215 12.7351 17.2351 12.3057L17.2351 12.3055C17.2485 11.8863 17.2623 11.4526 17.2647 11.0151C16.5705 11.1423 15.6272 11.25 14.4231 11.25C11.4808 11.25 9.75 10.6071 9.75 10.6071V10.2327C9.49479 10.6315 9.21898 11.114 9 11.625C8.71875 12.2812 8.71875 12.9539 8.71875 13.5193C8.71875 14.0847 8.71875 14.5428 8.4375 14.7697C7.875 15.2237 6.75 15.375 6.75 15.375Z" fill="#1B0B47"/>
</g>
<g clip-path="url(#clip5_4510_24431)">
<path d="M10.8483 17.25C10.8483 17.0429 11.0162 16.875 11.2233 16.875H14.6518C14.8589 16.875 15.0268 17.0429 15.0268 17.25C15.0268 18.2855 14.1874 19.125 13.1518 19.125H12.7233C11.6877 19.125 10.8483 18.2855 10.8483 17.25Z" fill="#66253C"/>
<path fill-rule="evenodd" clip-rule="evenodd" d="M13.783 19.0161C13.5858 19.0866 13.3733 19.125 13.1518 19.125H12.7233C11.7128 19.125 10.8891 18.3257 10.8497 17.3249C11.1362 17.2177 11.5615 17.2301 11.9813 17.2423C12.1146 17.2461 12.2474 17.25 12.375 17.25C13.2035 17.25 13.875 17.8376 13.875 18.5625C13.875 18.7219 13.8426 18.8747 13.783 19.0161Z" fill="#B03E67"/>
<path d="M11.25 16.875H15V17.25C15 17.4571 14.8321 17.625 14.625 17.625H11.625C11.4179 17.625 11.25 17.4571 11.25 17.25V16.875Z" fill="white"/>
</g>
<g clip-path="url(#clip6_4510_24431)">
<path d="M11.25 13.6875C11.25 13.3768 11.5018 13.125 11.8125 13.125C12.1232 13.125 12.375 13.3768 12.375 13.6875V14.1477C12.375 14.2042 12.3292 14.25 12.2727 14.25H11.3523C11.2958 14.25 11.25 14.2042 11.25 14.1477V13.6875Z" fill="#1B0B47"/>
<path d="M15 13.6875C15 13.3768 15.2518 13.125 15.5625 13.125C15.8732 13.125 16.125 13.3768 16.125 13.6875V14.1477C16.125 14.2042 16.0792 14.25 16.0227 14.25H15.1023C15.0458 14.25 15 14.2042 15 14.1477V13.6875Z" fill="#1B0B47"/>
</g>
</g>
<defs>
<clipPath id="clip0_4510_24431">
<rect width="24" height="24" rx="12" fill="white"/>
</clipPath>
<clipPath id="clip1_4510_24431">
<rect width="24" height="24" fill="white"/>
</clipPath>
<clipPath id="clip2_4510_24431">
<rect width="24" height="24" fill="white"/>
</clipPath>
<clipPath id="clip3_4510_24431">
<rect width="24" height="24" fill="white"/>
</clipPath>
<clipPath id="clip4_4510_24431">
<rect width="24" height="24" fill="white"/>
</clipPath>
<clipPath id="clip5_4510_24431">
<rect width="24" height="24" fill="white" transform="translate(0.375)"/>
</clipPath>
<clipPath id="clip6_4510_24431">
<rect y="-0.375" width="24" height="24" rx="12" fill="white"/>
</clipPath>
</defs>
</svg>
