<svg width="60" height="60" viewBox="0 0 60 60" fill="none" xmlns="http://www.w3.org/2000/svg">
<circle cx="30" cy="30" r="30" fill="#00C590"/>
<path d="M21.0203 41V20H31.2803C33.9203 20 35.9003 20.5 37.2203 21.5C38.5603 22.5 39.2303 23.82 39.2303 25.46C39.2303 26.56 38.9603 27.52 38.4203 28.34C37.8803 29.14 37.1403 29.76 36.2003 30.2C35.2603 30.64 34.1803 30.86 32.9603 30.86L33.5303 29.63C34.8503 29.63 36.0203 29.85 37.0403 30.29C38.0603 30.71 38.8503 31.34 39.4103 32.18C39.9903 33.02 40.2803 34.05 40.2803 35.27C40.2803 37.07 39.5703 38.48 38.1503 39.5C36.7303 40.5 34.6403 41 31.8803 41H21.0203ZM25.8503 37.34H31.5203C32.7803 37.34 33.7303 37.14 34.3703 36.74C35.0303 36.32 35.3603 35.66 35.3603 34.76C35.3603 33.88 35.0303 33.23 34.3703 32.81C33.7303 32.37 32.7803 32.15 31.5203 32.15H25.4903V28.61H30.6803C31.8603 28.61 32.7603 28.41 33.3803 28.01C34.0203 27.59 34.3403 26.96 34.3403 26.12C34.3403 25.3 34.0203 24.69 33.3803 24.29C32.7603 23.87 31.8603 23.66 30.6803 23.66H25.8503V37.34Z" fill="#FEFDFF"/>
</svg>
