<svg width="60" height="60" viewBox="0 0 60 60" fill="none" xmlns="http://www.w3.org/2000/svg">
<circle cx="30" cy="30" r="30" fill="#1192B2"/>
<path d="M31.539 41.36C29.919 41.36 28.409 41.1 27.009 40.58C25.629 40.04 24.429 39.28 23.409 38.3C22.389 37.32 21.589 36.17 21.009 34.85C20.449 33.53 20.169 32.08 20.169 30.5C20.169 28.92 20.449 27.47 21.009 26.15C21.589 24.83 22.389 23.68 23.409 22.7C24.449 21.72 25.659 20.97 27.039 20.45C28.419 19.91 29.929 19.64 31.569 19.64C33.389 19.64 35.029 19.96 36.489 20.6C37.969 21.22 39.209 22.14 40.209 23.36L37.089 26.24C36.369 25.42 35.569 24.81 34.689 24.41C33.809 23.99 32.849 23.78 31.809 23.78C30.829 23.78 29.929 23.94 29.109 24.26C28.289 24.58 27.579 25.04 26.979 25.64C26.379 26.24 25.909 26.95 25.569 27.77C25.249 28.59 25.089 29.5 25.089 30.5C25.089 31.5 25.249 32.41 25.569 33.23C25.909 34.05 26.379 34.76 26.979 35.36C27.579 35.96 28.289 36.42 29.109 36.74C29.929 37.06 30.829 37.22 31.809 37.22C32.849 37.22 33.809 37.02 34.689 36.62C35.569 36.2 36.369 35.57 37.089 34.73L40.209 37.61C39.209 38.83 37.969 39.76 36.489 40.4C35.029 41.04 33.379 41.36 31.539 41.36Z" fill="#FEFDFF"/>
</svg>
