<svg width="60" height="60" viewBox="0 0 60 60" fill="none" xmlns="http://www.w3.org/2000/svg">
<circle cx="30" cy="30" r="30" fill="#521BAF"/>
<path d="M20.0974 41V20H29.6374C31.9174 20 33.9274 20.44 35.6674 21.32C37.4074 22.18 38.7674 23.39 39.7474 24.95C40.7274 26.51 41.2174 28.36 41.2174 30.5C41.2174 32.62 40.7274 34.47 39.7474 36.05C38.7674 37.61 37.4074 38.83 35.6674 39.71C33.9274 40.57 31.9174 41 29.6374 41H20.0974ZM24.9574 37.01H29.3974C30.7974 37.01 32.0074 36.75 33.0274 36.23C34.0674 35.69 34.8674 34.93 35.4274 33.95C36.0074 32.97 36.2974 31.82 36.2974 30.5C36.2974 29.16 36.0074 28.01 35.4274 27.05C34.8674 26.07 34.0674 25.32 33.0274 24.8C32.0074 24.26 30.7974 23.99 29.3974 23.99H24.9574V37.01Z" fill="#FEFDFF"/>
</svg>
