<svg width="60" height="60" viewBox="0 0 60 60" fill="none" xmlns="http://www.w3.org/2000/svg">
<circle cx="30" cy="30" r="30" fill="#22B573"/>
<path d="M31.0577 41.36C29.3977 41.36 27.8677 41.1 26.4677 40.58C25.0877 40.04 23.8777 39.28 22.8377 38.3C21.8177 37.32 21.0177 36.17 20.4377 34.85C19.8777 33.53 19.5977 32.08 19.5977 30.5C19.5977 28.92 19.8777 27.47 20.4377 26.15C21.0177 24.83 21.8277 23.68 22.8677 22.7C23.9077 21.72 25.1277 20.97 26.5277 20.45C27.9277 19.91 29.4677 19.64 31.1477 19.64C33.0077 19.64 34.6777 19.95 36.1577 20.57C37.6577 21.19 38.9177 22.09 39.9377 23.27L36.8177 26.15C36.0577 25.35 35.2277 24.76 34.3277 24.38C33.4277 23.98 32.4477 23.78 31.3877 23.78C30.3677 23.78 29.4377 23.94 28.5977 24.26C27.7577 24.58 27.0277 25.04 26.4077 25.64C25.8077 26.24 25.3377 26.95 24.9977 27.77C24.6777 28.59 24.5177 29.5 24.5177 30.5C24.5177 31.48 24.6777 32.38 24.9977 33.2C25.3377 34.02 25.8077 34.74 26.4077 35.36C27.0277 35.96 27.7477 36.42 28.5677 36.74C29.4077 37.06 30.3277 37.22 31.3277 37.22C32.2877 37.22 33.2177 37.07 34.1177 36.77C35.0377 36.45 35.9277 35.92 36.7877 35.18L39.5477 38.69C38.4077 39.55 37.0777 40.21 35.5577 40.67C34.0577 41.13 32.5577 41.36 31.0577 41.36ZM35.1077 38.06V30.17H39.5477V38.69L35.1077 38.06Z" fill="#FEFDFF"/>
</svg>
