<svg width="60" height="60" viewBox="0 0 60 60" fill="none" xmlns="http://www.w3.org/2000/svg">
<circle cx="30" cy="30" r="30" fill="#B974ED"/>
<path d="M21.5037 41V20H30.5937C32.4737 20 34.0937 20.31 35.4537 20.93C36.8137 21.53 37.8637 22.4 38.6037 23.54C39.3437 24.68 39.7137 26.04 39.7137 27.62C39.7137 29.18 39.3437 30.53 38.6037 31.67C37.8637 32.81 36.8137 33.69 35.4537 34.31C34.0937 34.91 32.4737 35.21 30.5937 35.21H24.2037L26.3637 33.02V41H21.5037ZM26.3637 33.56L24.2037 31.25H30.3237C31.8237 31.25 32.9437 30.93 33.6837 30.29C34.4237 29.65 34.7937 28.76 34.7937 27.62C34.7937 26.46 34.4237 25.56 33.6837 24.92C32.9437 24.28 31.8237 23.96 30.3237 23.96H24.2037L26.3637 21.65V33.56Z" fill="#FEFDFF"/>
</svg>
