<svg width="60" height="60" viewBox="0 0 60 60" fill="none" xmlns="http://www.w3.org/2000/svg">
<circle cx="30" cy="30" r="30" fill="#FFCD4E"/>
<path d="M30.0038 41.36C28.3638 41.36 26.8338 41.09 25.4138 40.55C24.0138 40.01 22.7938 39.25 21.7537 38.27C20.7338 37.29 19.9338 36.14 19.3538 34.82C18.7938 33.5 18.5138 32.06 18.5138 30.5C18.5138 28.94 18.7938 27.5 19.3538 26.18C19.9338 24.86 20.7438 23.71 21.7838 22.73C22.8238 21.75 24.0438 20.99 25.4438 20.45C26.8438 19.91 28.3638 19.64 30.0038 19.64C31.6638 19.64 33.1837 19.91 34.5638 20.45C35.9638 20.99 37.1738 21.75 38.1938 22.73C39.2338 23.69 40.0438 24.83 40.6238 26.15C41.2038 27.47 41.4938 28.92 41.4938 30.5C41.4938 32.06 41.2038 33.51 40.6238 34.85C40.0438 36.17 39.2338 37.32 38.1938 38.3C37.1738 39.26 35.9638 40.01 34.5638 40.55C33.1837 41.09 31.6638 41.36 30.0038 41.36ZM36.8738 45.83C36.0538 45.83 35.2738 45.74 34.5338 45.56C33.8138 45.38 33.0938 45.09 32.3738 44.69C31.6738 44.29 30.9338 43.75 30.1538 43.07C29.3938 42.39 28.5638 41.55 27.6638 40.55L32.7637 39.26C33.3038 40 33.8038 40.59 34.2638 41.03C34.7238 41.47 35.1638 41.78 35.5838 41.96C36.0238 42.14 36.4838 42.23 36.9638 42.23C38.2438 42.23 39.3838 41.71 40.3838 40.67L42.5438 43.25C41.1238 44.97 39.2338 45.83 36.8738 45.83ZM30.0038 37.22C30.9438 37.22 31.8038 37.06 32.5838 36.74C33.3838 36.42 34.0838 35.96 34.6838 35.36C35.2838 34.76 35.7438 34.05 36.0638 33.23C36.4038 32.39 36.5738 31.48 36.5738 30.5C36.5738 29.5 36.4038 28.59 36.0638 27.77C35.7438 26.95 35.2838 26.24 34.6838 25.64C34.0838 25.04 33.3838 24.58 32.5838 24.26C31.8038 23.94 30.9438 23.78 30.0038 23.78C29.0638 23.78 28.1938 23.94 27.3938 24.26C26.5938 24.58 25.8938 25.04 25.2938 25.64C24.7138 26.24 24.2538 26.95 23.9138 27.77C23.5938 28.59 23.4338 29.5 23.4338 30.5C23.4338 31.48 23.5938 32.39 23.9138 33.23C24.2538 34.05 24.7138 34.76 25.2938 35.36C25.8938 35.96 26.5938 36.42 27.3938 36.74C28.1938 37.06 29.0638 37.22 30.0038 37.22Z" fill="#FEFDFF"/>
</svg>
