<svg width="60" height="60" viewBox="0 0 60 60" fill="none" xmlns="http://www.w3.org/2000/svg">
<circle cx="30" cy="30" r="30" fill="#521BAF"/>
<path d="M21.4597 41V20H30.5497C32.4297 20 34.0497 20.31 35.4097 20.93C36.7697 21.53 37.8197 22.4 38.5597 23.54C39.2997 24.68 39.6697 26.04 39.6697 27.62C39.6697 29.18 39.2997 30.53 38.5597 31.67C37.8197 32.79 36.7697 33.65 35.4097 34.25C34.0497 34.85 32.4297 35.15 30.5497 35.15H24.1597L26.3197 33.02V41H21.4597ZM34.8097 41L29.5597 33.38H34.7497L40.0597 41H34.8097ZM26.3197 33.56L24.1597 31.28H30.2797C31.7797 31.28 32.8997 30.96 33.6397 30.32C34.3797 29.66 34.7497 28.76 34.7497 27.62C34.7497 26.46 34.3797 25.56 33.6397 24.92C32.8997 24.28 31.7797 23.96 30.2797 23.96H24.1597L26.3197 21.65V33.56Z" fill="#FEFDFF"/>
</svg>
