<svg width="60" height="60" viewBox="0 0 60 60" fill="none" xmlns="http://www.w3.org/2000/svg">
<circle cx="30" cy="30" r="30" fill="#1192B2"/>
<path d="M29.8246 41.36C28.1446 41.36 26.5346 41.14 24.9946 40.7C23.4546 40.24 22.2146 39.65 21.2746 38.93L22.9246 35.27C23.8246 35.91 24.8846 36.44 26.1046 36.86C27.3446 37.26 28.5946 37.46 29.8546 37.46C30.8146 37.46 31.5846 37.37 32.1646 37.19C32.7646 36.99 33.2046 36.72 33.4846 36.38C33.7646 36.04 33.9046 35.65 33.9046 35.21C33.9046 34.65 33.6846 34.21 33.2446 33.89C32.8046 33.55 32.2246 33.28 31.5046 33.08C30.7846 32.86 29.9846 32.66 29.1046 32.48C28.2446 32.28 27.3746 32.04 26.4946 31.76C25.6346 31.48 24.8446 31.12 24.1246 30.68C23.4046 30.24 22.8146 29.66 22.3546 28.94C21.9146 28.22 21.6946 27.3 21.6946 26.18C21.6946 24.98 22.0146 23.89 22.6546 22.91C23.3146 21.91 24.2946 21.12 25.5946 20.54C26.9146 19.94 28.5646 19.64 30.5446 19.64C31.8646 19.64 33.1646 19.8 34.4446 20.12C35.7246 20.42 36.8546 20.88 37.8346 21.5L36.3346 25.19C35.3546 24.63 34.3746 24.22 33.3946 23.96C32.4146 23.68 31.4546 23.54 30.5146 23.54C29.5746 23.54 28.8046 23.65 28.2046 23.87C27.6046 24.09 27.1746 24.38 26.9146 24.74C26.6546 25.08 26.5246 25.48 26.5246 25.94C26.5246 26.48 26.7446 26.92 27.1846 27.26C27.6246 27.58 28.2046 27.84 28.9246 28.04C29.6446 28.24 30.4346 28.44 31.2946 28.64C32.1746 28.84 33.0446 29.07 33.9046 29.33C34.7846 29.59 35.5846 29.94 36.3046 30.38C37.0246 30.82 37.6046 31.4 38.0446 32.12C38.5046 32.84 38.7346 33.75 38.7346 34.85C38.7346 36.03 38.4046 37.11 37.7446 38.09C37.0846 39.07 36.0946 39.86 34.7746 40.46C33.4746 41.06 31.8246 41.36 29.8246 41.36Z" fill="#FEFDFF"/>
</svg>
