<svg width="60" height="60" viewBox="0 0 60 60" fill="none" xmlns="http://www.w3.org/2000/svg">
<circle cx="30" cy="30" r="30" fill="#776BFF"/>
<path d="M29.9987 41.36C27.0187 41.36 24.6887 40.53 23.0087 38.87C21.3287 37.21 20.4887 34.84 20.4887 31.76V20H25.3487V31.58C25.3487 33.58 25.7587 35.02 26.5787 35.9C27.3987 36.78 28.5487 37.22 30.0287 37.22C31.5087 37.22 32.6587 36.78 33.4787 35.9C34.2987 35.02 34.7087 33.58 34.7087 31.58V20H39.5087V31.76C39.5087 34.84 38.6687 37.21 36.9887 38.87C35.3087 40.53 32.9787 41.36 29.9987 41.36Z" fill="#FEFDFF"/>
</svg>
