<svg width="24" height="24" viewBox="0 0 24 24" fill="none" xmlns="http://www.w3.org/2000/svg">
<path d="M2 10.7778L5.43333 3H7.6L11.0444 10.7778H8.75556L6.06667 4.07778H6.93333L4.24444 10.7778H2ZM3.87778 9.26667L4.44444 7.64444H8.24445L8.81111 9.26667H3.87778Z" fill="#936600"/>
<path d="M3.11108 20.8787V19.5009L7.68886 14.0676L7.95553 14.8454H3.21108V13.1009H9.91108V14.4787L5.33331 19.912L5.06664 19.1342H10.0778V20.8787H3.11108Z" fill="#936600"/>
<path d="M21.9273 11.4982C21.8253 11.3091 21.6313 11.1912 21.4204 11.1912H18.1352V4.70448C18.1352 4.37694 17.8755 4.11111 17.5555 4.11111C17.2356 4.11111 16.9759 4.37694 16.9759 4.70448V11.1912H13.6907C13.479 11.1912 13.285 11.3091 13.1838 11.4982C13.081 11.6872 13.0879 11.9183 13.2 12.101L17.0648 18.3797C17.1715 18.5521 17.3562 18.6566 17.5555 18.6566C17.7549 18.6566 17.9396 18.5521 18.0463 18.3797L21.9111 12.101C21.9698 12.0045 22 11.8945 22 11.7846C22 11.6865 21.9752 11.5876 21.9273 11.4982" fill="#936600"/>
</svg>
