<svg width="24" height="24" viewBox="0 0 24 24" fill="none" xmlns="http://www.w3.org/2000/svg">
<path d="M2 15.625V9.375C2 8.33984 2.83984 7.5 3.875 7.5H4.5V6.875C4.5 5.83984 5.33984 5 6.375 5C7.41016 5 8.25 5.83984 8.25 6.875V10.625H15.75V6.875C15.75 5.83984 16.5898 5 17.625 5C18.6602 5 19.5 5.83984 19.5 6.875V7.5H20.125C21.1602 7.5 22 8.33984 22 9.375V15.625C22 16.6602 21.1602 17.5 20.125 17.5H19.5V18.125C19.5 19.1602 18.6602 20 17.625 20C16.5898 20 15.75 19.1602 15.75 18.125V14.375H8.25V18.125C8.25 19.1602 7.41016 20 6.375 20C5.33984 20 4.5 19.1602 4.5 18.125V17.5H3.875C2.83984 17.5 2 16.6602 2 15.625Z" fill="#936600"/>
</svg>
