<svg width="24" height="24" viewBox="0 0 24 24" fill="none" xmlns="http://www.w3.org/2000/svg">
<path d="M12.5883 20.8234C12.5836 21.2375 12.4703 21.6437 12.2586 22L17.2937 22C17.6062 22 17.9054 21.8758 18.1258 21.6554C18.3469 21.4351 18.4703 21.1359 18.4703 20.8234L18.4703 15.7883C18.8265 16 19.2328 16.1133 19.6468 16.118C20.9468 16.118 22 15.0641 22 13.7648C22 12.4649 20.9469 11.4117 19.6468 11.4117C19.2328 11.4164 18.8265 11.5296 18.4703 11.7413L18.4703 6.70623C18.4703 6.05625 17.9437 5.5297 17.2938 5.5297L12.2586 5.5297C12.4704 5.17346 12.5836 4.76721 12.5883 4.35316C12.5883 3.05318 11.5352 2 10.2352 2C8.93596 2 7.882 3.0531 7.882 4.35316C7.88669 4.76721 7.99997 5.17346 8.21168 5.5297L3.17656 5.5297C2.86407 5.5297 2.56485 5.65313 2.34454 5.87423C2.12422 6.09455 2 6.39376 2 6.70625L2 11.7414C2.35623 11.5296 2.76249 11.4164 3.17654 11.4117C4.47574 11.4117 5.5297 12.4648 5.5297 13.7648C5.5297 15.064 4.47582 16.118 3.17654 16.118C2.76249 16.1133 2.35623 16 2 15.7883L2 20.8234C2 21.1359 2.12422 21.4351 2.34453 21.6555C2.56485 21.8758 2.86407 22 3.17656 22L8.21168 22C7.99996 21.6438 7.88668 21.2375 7.882 20.8235C7.882 19.5243 8.93588 18.4703 10.2352 18.4703C11.5351 18.4703 12.5883 19.5242 12.5883 20.8235L12.5883 20.8234Z" fill="#936600"/>
</svg>
