<svg width="24" height="18" viewBox="0 0 24 18" fill="none" xmlns="http://www.w3.org/2000/svg">
<path d="M9.54569 17.1179C6.76313 16.4359 4.30729 14.7935 2.60684 12.4774C0.906382 10.1614 0.0693174 7.31877 0.241748 4.44578C0.246836 4.36039 0.252866 4.27495 0.259838 4.18945C0.283423 3.89544 0.36443 3.60898 0.49823 3.34645C0.63203 3.08391 0.816 2.85044 1.03963 2.65938C1.26325 2.46833 1.52215 2.32342 1.80153 2.23296C2.08091 2.14249 2.37529 2.10823 2.66784 2.13214C2.9604 2.15606 3.2454 2.23766 3.50656 2.37231C3.76772 2.50695 3.99992 2.69199 4.18988 2.91685C4.37985 3.14171 4.52386 3.40199 4.61368 3.6828C4.7035 3.96361 4.73738 4.25946 4.71338 4.55344C4.70898 4.60793 4.70513 4.66234 4.70183 4.71667C4.59456 6.55337 5.1363 8.36913 6.23146 9.84355C7.32661 11.318 8.90481 12.3563 10.6876 12.7753C12.4703 13.1943 14.3431 12.9671 15.9754 12.1338C17.6077 11.3004 18.8946 9.91447 19.6091 8.22049C19.7231 7.94882 19.8892 7.70237 20.098 7.49522C20.3067 7.28806 20.5541 7.12426 20.8258 7.01316C21.0976 6.90206 21.3885 6.84584 21.6819 6.8477C21.9752 6.84957 22.2654 6.90949 22.5357 7.02404C22.8061 7.13859 23.0513 7.30553 23.2575 7.51532C23.4636 7.72512 23.6266 7.97366 23.7372 8.24676C23.8477 8.51986 23.9037 8.81216 23.9018 9.10699C23.8999 9.40182 23.8403 9.69339 23.7263 9.96506C22.5935 12.6558 20.5444 14.8534 17.946 16.1641C15.3475 17.4747 12.3696 17.8129 9.54567 17.1179L9.54569 17.1179Z" fill="#FEFDFF"/>
<path d="M12.3544 10.4226C15.1747 10.4226 17.461 8.1251 17.461 5.29096C17.461 2.45682 15.1747 0.159302 12.3544 0.159302C9.53413 0.159302 7.24783 2.45682 7.24783 5.29096C7.24783 8.1251 9.53413 10.4226 12.3544 10.4226Z" fill="#FEFDFF"/>
</svg>
