<svg width="160" height="38" viewBox="0 0 160 38" fill="none" xmlns="http://www.w3.org/2000/svg">
<path d="M38.8109 31.2418C34.6903 30.2318 31.0535 27.7996 28.5353 24.3698C26.0171 20.94 24.7775 16.7304 25.0328 12.4758C25.0404 12.3494 25.0493 12.2228 25.0596 12.0962C25.0946 11.6608 25.2145 11.2366 25.4127 10.8478C25.6108 10.459 25.8833 10.1133 26.2144 9.83036C26.5456 9.54742 26.929 9.33284 27.3427 9.19887C27.7564 9.0649 28.1924 9.01417 28.6256 9.04958C29.0589 9.08499 29.4809 9.20584 29.8677 9.40523C30.2544 9.60463 30.5983 9.87865 30.8796 10.2116C31.1609 10.5446 31.3742 10.9301 31.5072 11.3459C31.6402 11.7618 31.6904 12.1999 31.6548 12.6352C31.6483 12.7159 31.6426 12.7965 31.6377 12.877C31.4789 15.5969 32.2811 18.2858 33.9029 20.4693C35.5247 22.6527 37.8619 24.1904 40.5019 24.8109C43.142 25.4314 45.9153 25.095 48.3325 23.8608C50.7498 22.6267 52.6556 20.5743 53.7137 18.0657C53.8825 17.6634 54.1285 17.2985 54.4377 16.9917C54.7468 16.6849 55.1131 16.4423 55.5155 16.2778C55.918 16.1133 56.3487 16.03 56.7832 16.0328C57.2177 16.0355 57.6474 16.1243 58.0477 16.2939C58.4481 16.4636 58.8112 16.7108 59.1165 17.0215C59.4218 17.3321 59.6632 17.7002 59.8269 18.1046C59.9906 18.5091 60.0735 18.9419 60.0707 19.3785C60.068 19.8151 59.9797 20.2469 59.8109 20.6492C58.1333 24.634 55.0987 27.8883 51.2508 29.8293C47.4028 31.7702 42.9929 32.271 38.8109 31.2418L38.8109 31.2418Z" fill="#FEFDFF"/>
<path d="M42.9703 21.3268C47.1468 21.3268 50.5326 17.9244 50.5326 13.7274C50.5326 9.53036 47.1468 6.12799 42.9703 6.12799C38.7938 6.12799 35.408 9.53036 35.408 13.7274C35.408 17.9244 38.7938 21.3268 42.9703 21.3268Z" fill="#FEFDFF"/>
<path d="M85.1073 19.8646L77.2526 26.2479H85.1073V31.7388H69.398V26.2479L77.2527 19.8646H69.398V14.3737H85.1073V19.8646Z" fill="#FEFDFF"/>
<path d="M86.815 23.0562C86.815 18.08 90.7896 14.2495 96.4244 14.2495C102.059 14.2495 105.53 18.08 105.53 23.0562C105.53 28.0324 102.132 31.79 96.4971 31.79C90.8622 31.79 86.815 28.0324 86.815 23.0562ZM99.724 23.0562C99.724 21.1686 98.4262 19.5215 96.2065 19.5215C93.9868 19.5215 92.6207 21.1686 92.6207 23.0562C92.6207 24.9438 93.9867 26.5911 96.2065 26.5911C98.4264 26.5911 99.724 24.9438 99.724 23.0562V23.0562Z" fill="#FEFDFF"/>
<path d="M113.044 31.7388H107.238V6H113.044V31.7388Z" fill="#FEFDFF"/>
<path d="M123.045 14.2495C126.016 14.2495 127.677 15.6092 128.394 17.3593L128.735 14.3737H134.2V31.7388H128.735L128.394 28.7531C127.677 30.5034 126.089 31.79 123.118 31.79C118.166 31.79 114.802 28.0324 114.802 23.0562C114.802 18.0801 118.093 14.2495 123.045 14.2495ZM124.193 26.5911C126.413 26.5911 127.711 24.9438 127.711 23.0562C127.711 21.1687 126.413 19.5215 124.193 19.5215C121.974 19.5215 120.608 21.1686 120.608 23.0562C120.608 24.9438 121.974 26.5911 124.193 26.5911H124.193Z" fill="#FEFDFF"/>
</svg>