<svg width="161" height="40" viewBox="0 0 161 40" fill="none" xmlns="http://www.w3.org/2000/svg">
<path d="M20.5221 36.1156C14.6514 34.6765 9.47007 31.2114 5.88243 26.325C2.29479 21.4385 0.528737 15.4412 0.892532 9.37972C0.903268 9.19956 0.91599 9.01929 0.9307 8.83891C0.98046 8.21861 1.15137 7.61423 1.43366 7.06033C1.71595 6.50642 2.1041 6.01385 2.57591 5.61075C3.04772 5.20766 3.59394 4.90194 4.18338 4.71107C4.77281 4.5202 5.3939 4.44793 6.01114 4.49838C6.62838 4.54882 7.22968 4.721 7.78068 5.00508C8.33167 5.28915 8.82156 5.67955 9.22235 6.15396C9.62314 6.62838 9.92698 7.17751 10.1165 7.76997C10.306 8.36244 10.3775 8.98662 10.3268 9.60686C10.3176 9.72181 10.3094 9.83661 10.3025 9.95125C10.0762 13.8263 11.2191 17.6572 13.5297 20.768C15.8403 23.8787 19.17 26.0694 22.9312 26.9535C26.6925 27.8375 30.6437 27.3581 34.0875 25.5999C37.5313 23.8417 40.2465 20.9176 41.754 17.3436C41.9945 16.7705 42.3449 16.2505 42.7854 15.8135C43.2259 15.3764 43.7477 15.0308 44.3211 14.7964C44.8944 14.562 45.5081 14.4434 46.1271 14.4473C46.7461 14.4513 47.3583 14.5777 47.9286 14.8194C48.499 15.061 49.0164 15.4132 49.4514 15.8559C49.8863 16.2985 50.2302 16.8229 50.4634 17.3991C50.6967 17.9753 50.8147 18.592 50.8108 19.214C50.8069 19.836 50.6811 20.4512 50.4406 21.0244C48.0506 26.7014 43.7273 31.3378 38.2451 34.1031C32.7629 36.8684 26.4801 37.5818 20.5221 36.1156L20.5221 36.1156Z" fill="#FEFDFF"/>
<path d="M26.448 21.9898C32.3983 21.9898 37.2219 17.1425 37.2219 11.163C37.2219 5.18346 32.3983 0.336121 26.448 0.336121C20.4977 0.336121 15.674 5.18346 15.674 11.163C15.674 17.1425 20.4977 21.9898 26.448 21.9898Z" fill="#FEFDFF"/>
<path d="M86.4803 19.9066L75.2898 29.0008H86.4803V36.8237H64.0994V29.0008L75.2898 19.9066H64.0994V12.0837H86.4803V19.9066Z" fill="#FEFDFF"/>
<path d="M88.9133 24.4536C88.9133 17.3641 94.5759 11.9067 102.604 11.9067C110.632 11.9067 115.576 17.3641 115.576 24.4536C115.576 31.5432 110.735 36.8966 102.707 36.8966C94.6794 36.8966 88.9133 31.5431 88.9133 24.4536ZM107.305 24.4536C107.305 21.7644 105.456 19.4177 102.293 19.4177C99.131 19.4177 97.1846 21.7644 97.1846 24.4536C97.1846 27.1428 99.1308 29.4898 102.293 29.4898C105.456 29.4898 107.305 27.1428 107.305 24.4536V24.4536Z" fill="#FEFDFF"/>
<path d="M126.281 36.8237H118.01V0.153748H126.281V36.8237Z" fill="#FEFDFF"/>
<path d="M140.531 11.9067C144.763 11.9067 147.129 13.8439 148.151 16.3373L148.637 12.0836H156.422V36.8237H148.637L148.151 32.57C147.129 35.0636 144.867 36.8966 140.634 36.8966C133.579 36.8966 128.786 31.5432 128.786 24.4537C128.786 17.3642 133.476 11.9067 140.531 11.9067ZM142.166 29.4898C145.329 29.4898 147.178 27.1428 147.178 24.4536C147.178 21.7644 145.329 19.4177 142.166 19.4177C139.004 19.4177 137.057 21.7644 137.057 24.4536C137.057 27.1428 139.004 29.4898 142.166 29.4898H142.166Z" fill="#FEFDFF"/>
</svg>
