<svg width="12" height="12" viewBox="0 0 12 12" fill="none" xmlns="http://www.w3.org/2000/svg">
<path d="M3.29495 5.92926C3.35807 6.04626 3.47809 6.1192 3.60863 6.1192H5.64136V10.1329C5.64136 10.3355 5.80202 10.5 5.99999 10.5C6.19795 10.5 6.35862 10.3355 6.35862 10.1329V6.1192H8.39134C8.52236 6.1192 8.64239 6.04626 8.70503 5.92926C8.76862 5.81227 8.76432 5.66932 8.69498 5.55624L6.30363 1.67134C6.23764 1.56462 6.12336 1.5 5.99999 1.5C5.87662 1.5 5.76233 1.56462 5.69635 1.67134L3.30499 5.55624C3.26865 5.61596 3.25 5.68401 3.25 5.75205C3.25 5.81275 3.2653 5.87395 3.29495 5.92926" fill="#383838"/>
</svg>
