<svg width="24" height="24" viewBox="0 0 24 24" fill="none" xmlns="http://www.w3.org/2000/svg">
<path fill-rule="evenodd" clip-rule="evenodd" d="M20.5005 10.1257C20.5005 9.26786 20.0024 8.53428 19.2841 8.17452C19.6473 7.78429 19.8747 7.26397 19.8747 6.68744C19.8747 5.54488 18.9958 4.61912 17.8791 4.52066C17.9541 4.31793 17.9998 4.10231 17.9998 3.87498C17.9998 2.84023 17.1607 2 16.1248 2C14.0588 2 12.0079 2.36681 10.0676 3.08047L6.66559 4.33436C6.30818 4.44452 5.93552 4.50076 5.5617 4.50076C4.14691 4.50076 3 5.64768 3 7.06246L3 11.9421C3 13.3549 4.14533 14.5002 5.55816 14.5002C5.91908 14.5002 6.26129 14.6549 6.49916 14.928L10.1918 19.1465C10.3899 19.3739 10.5 19.668 10.5 19.9703V21.3754C10.5 21.7235 10.7918 22.0012 11.1422 22C12.8601 21.9918 14.2498 20.5961 14.2498 18.8746V18.8395C14.2498 18.4516 14.1608 18.0684 13.9862 17.7215L13.0006 15.7504H17.62C18.5903 15.7504 19.5008 15.1505 19.7773 14.22C20.0234 13.388 19.782 12.6098 19.284 12.0767C20.0023 11.7169 20.5005 10.9823 20.5005 10.1257Z" fill="#22B573"/>
</svg>
