<svg width="24" height="24" viewBox="0 0 24 24" fill="none" xmlns="http://www.w3.org/2000/svg">
<path fill-rule="evenodd" clip-rule="evenodd" d="M7.33 2H16.66C20.06 2 22 3.92 22 7.33V16.67C22 20.06 20.07 22 16.67 22H7.33C3.92 22 2 20.06 2 16.67V7.33C2 3.92 3.92 2 7.33 2ZM7.0163 12.2826C7.0746 12.6738 7.41402 12.9753 7.82735 12.9685C8.27457 12.9685 8.6398 12.6029 8.6398 12.1553L8.63235 9.77534L11.1368 12.2821L11.134 12.2849L14.2198 15.3736L11.8421 15.3661L11.7224 15.375C11.3315 15.4333 11.0296 15.7724 11.0296 16.1793C11.0296 16.4032 11.1191 16.6121 11.2682 16.7613C11.4098 16.903 11.6185 16.9925 11.8421 16.9925L16.1876 17L16.3159 16.9931C16.4848 16.9693 16.6422 16.8881 16.7615 16.7687C16.918 16.612 17 16.4106 17 16.1868L16.9925 11.8373L16.9837 11.7174C16.9254 11.3262 16.586 11.0247 16.1726 11.0315C15.7254 11.0315 15.3602 11.3971 15.3602 11.8447L15.3677 14.2247L12.8632 11.7179L12.866 11.7151L9.78021 8.62641L12.1579 8.63387L12.2776 8.62502C12.6685 8.56673 12.9704 8.22761 12.9704 7.82067C12.9704 7.59685 12.8809 7.38795 12.7318 7.23874C12.5902 7.09699 12.3815 7.00746 12.1579 7.00746L7.81245 7L7.68406 7.00686C7.5152 7.03074 7.35777 7.11191 7.23852 7.23128C7.08199 7.38795 7 7.58939 7 7.81321L7.00745 12.1627L7.0163 12.2826Z" fill="#58DBCB"/>
</svg>
