<svg width="12" height="12" viewBox="0 0 12 12" fill="none" xmlns="http://www.w3.org/2000/svg">
<path fill-rule="evenodd" clip-rule="evenodd" d="M2.06409 1H9.93591C10.5238 1 11 1.49053 11 2.09613V2.86188C11 3.15566 10.8852 3.43778 10.6813 3.64354L7.42883 6.93351C7.37272 6.99078 7.29653 7.0226 7.21776 7.02207L4.49447 7.01359C4.41158 7.01359 4.33282 6.97806 4.27619 6.91601L1.28726 3.62869C1.10245 3.42559 1 3.15725 1 2.87885V2.09666C1 1.49106 1.47619 1 2.06409 1ZM4.64005 7.91207L7.06734 7.9195C7.21869 7.92003 7.34121 8.04677 7.34121 8.20214V9.56766C7.34121 9.72357 7.25266 9.86463 7.1147 9.92986L4.91135 10.9645C4.85987 10.9883 4.8053 11 4.75073 11C4.67815 11 4.60556 10.9788 4.54224 10.9369C4.43156 10.8637 4.36463 10.7375 4.36463 10.6023V8.19472C4.36463 8.03828 4.48819 7.91154 4.64005 7.91207Z" fill="#FF931E"/>
</svg>
