<svg width="12" height="12" viewBox="0 0 12 12" fill="none" xmlns="http://www.w3.org/2000/svg">
<path fill-rule="evenodd" clip-rule="evenodd" d="M6 11C8.76142 11 11 8.76142 11 6C11 3.23858 8.76142 1 6 1C3.23858 1 1 3.23858 1 6C1 8.76142 3.23858 11 6 11ZM5.99216 4.97319L7.39179 3.57356C7.67276 3.29259 8.12851 3.29259 8.4099 3.57399C8.6913 3.85538 8.6913 4.31114 8.41034 4.5921L7.01071 5.99173L8.41034 7.39136C8.69173 7.67275 8.6913 8.12894 8.41034 8.4099C8.12894 8.6913 7.67319 8.6913 7.39179 8.4099L5.99216 7.01027L4.59253 8.4099C4.31114 8.6913 3.85539 8.6913 3.57399 8.4099C3.2926 8.12851 3.2926 7.67275 3.57399 7.39136L4.97362 5.99173L3.57399 4.5921C3.29303 4.31114 3.29303 3.85538 3.57442 3.57399C3.85539 3.29302 4.31157 3.29259 4.59253 3.57356L5.99216 4.97319Z" fill="#FF931E"/>
</svg>
