<svg width="12" height="12" viewBox="0 0 12 12" fill="none" xmlns="http://www.w3.org/2000/svg">
<path fill-rule="evenodd" clip-rule="evenodd" d="M6 11C8.76142 11 11 8.76142 11 6C11 3.23858 8.76142 1 6 1C3.23858 1 1 3.23858 1 6C1 8.76142 3.23858 11 6 11ZM5.26883 3.03125C5.26883 2.59978 5.6186 2.25 6.05008 2.25C6.48155 2.25 6.83133 2.59978 6.83133 3.03125L6.83133 5.63419C6.83133 6.34462 6.45445 7.00173 5.84125 7.36047L4.20376 8.31845C3.8309 8.53658 3.35174 8.40966 3.13575 8.03556C2.92063 7.66296 3.04829 7.18653 3.42088 6.97141L5.26883 5.9045L5.26883 3.03125Z" fill="#FF931E"/>
</svg>
