<svg width="24" height="24" viewBox="0 0 24 24" fill="none" xmlns="http://www.w3.org/2000/svg">
<path d="M4.3993 2L10.2953 2.19018C11.2082 2.26664 12.0447 2.64601 12.6918 3.293L21.1727 11.7715C22.2758 12.8744 22.2758 14.6616 21.1727 15.7643L15.7716 21.1638C15.2392 21.6961 14.5165 22 13.7939 22C13.0712 22 12.3485 21.7334 11.8161 21.1638L3.33424 12.6843C2.68805 12.0383 2.3076 11.2011 2.23111 10.2512L2.00362 4.39487C1.96538 3.74886 2.2321 3.14009 2.68806 2.68426C3.14403 2.22842 3.75296 2 4.39914 2L4.3993 2ZM7.70879 10.2893C9.11591 10.2893 10.2572 9.14825 10.2572 7.74162C10.2572 6.33498 9.11581 5.19391 7.70879 5.19391C6.30168 5.19391 5.16041 6.33498 5.16041 7.74162C5.16041 9.14825 6.30178 10.2893 7.70879 10.2893Z" fill="#579F00"/>
</svg>
