<svg width="12" height="12" viewBox="0 0 12 12" fill="none" xmlns="http://www.w3.org/2000/svg">
<path fill-rule="evenodd" clip-rule="evenodd" d="M7.92489 1.25035C8.24039 1.25035 8.55539 1.29485 8.85489 1.39535C10.7004 1.99535 11.3654 4.02035 10.8099 5.79036C10.4949 6.69486 9.97989 7.52036 9.30539 8.19486C8.33989 9.12986 7.28039 9.95986 6.13989 10.6749L6.01489 10.7504L5.88489 10.6699C4.74039 9.95986 3.67489 9.12986 2.70039 8.18986C2.03039 7.51536 1.51489 6.69486 1.19489 5.79036C0.629886 4.02035 1.29489 1.99535 3.16039 1.38485C3.30539 1.33485 3.45489 1.29985 3.60489 1.28035H3.66489C3.80539 1.25985 3.94489 1.25035 4.08489 1.25035H4.13989C4.45489 1.25985 4.75989 1.31485 5.05539 1.41535H5.08489C5.10489 1.42485 5.11989 1.43535 5.12989 1.44485C5.24039 1.48035 5.34489 1.52035 5.44489 1.57535L5.63489 1.66035C5.6808 1.68484 5.73233 1.72226 5.77687 1.75459C5.80509 1.77508 5.83049 1.79353 5.84989 1.80535C5.85805 1.81017 5.86634 1.81501 5.8747 1.81989C5.91757 1.84492 5.96223 1.87098 5.99989 1.89985C6.55539 1.47535 7.22989 1.24535 7.92489 1.25035ZM9.25489 4.85035C9.45989 4.84485 9.63489 4.68035 9.64989 4.46985V4.41035C9.66489 3.70985 9.24039 3.07535 8.59489 2.83035C8.38989 2.75985 8.16489 2.87035 8.08989 3.08035C8.01989 3.29035 8.12989 3.52035 8.33989 3.59485C8.66039 3.71485 8.87489 4.03035 8.87489 4.37985V4.39535C8.86539 4.50985 8.89989 4.62035 8.96989 4.70535C9.03989 4.79035 9.14489 4.83985 9.25489 4.85035Z" fill="#7B797D"/>
</svg>
