<svg width="12" height="12" viewBox="0 0 12 12" fill="none" xmlns="http://www.w3.org/2000/svg">
<path fill-rule="evenodd" clip-rule="evenodd" d="M3.66512 1.00006H8.33012C10.0301 1.00006 11.0001 1.96006 11.0001 3.66506V8.33506C11.0001 10.0301 10.0351 11.0001 8.33512 11.0001H3.66512C1.96012 11.0001 1.00012 10.0301 1.00012 8.33506V3.66506C1.00012 1.96006 1.96012 1.00006 3.66512 1.00006ZM6.41012 6.41506H7.83012C8.06012 6.41006 8.24512 6.22506 8.24512 5.99506C8.24512 5.76506 8.06012 5.58006 7.83012 5.58006H6.41012V4.17006C6.41012 3.94006 6.22512 3.75506 5.99512 3.75506C5.76512 3.75506 5.58012 3.94006 5.58012 4.17006V5.58006H4.16512C4.05512 5.58006 3.95012 5.62506 3.87012 5.70006C3.79512 5.78006 3.75012 5.88456 3.75012 5.99506C3.75012 6.22506 3.93512 6.41006 4.16512 6.41506H5.58012V7.83006C5.58012 8.06006 5.76512 8.24506 5.99512 8.24506C6.22512 8.24506 6.41012 8.06006 6.41012 7.83006V6.41506Z" fill="#7B797D"/>
</svg>
