<svg width="12" height="12" viewBox="0 0 12 12" fill="none" xmlns="http://www.w3.org/2000/svg">
<path d="M4.29194 4.491C4.22453 4.4485 4.15567 4.40992 4.08288 4.37328C4.01059 4.33958 3.93537 4.3093 3.85771 4.28194C3.68285 4.22577 3.49529 4.19549 3.30235 4.19549C3.08499 4.19549 2.87593 4.23408 2.68349 4.30441C2.59948 4.33567 2.5223 4.37084 2.44611 4.41333C2.29225 4.49442 2.15109 4.60236 2.0285 4.7235C1.96744 4.78455 1.91078 4.85098 1.85852 4.92083C1.83117 4.95697 1.80332 4.99605 1.77988 5.0361C1.74129 5.09471 1.71003 5.15382 1.67731 5.21731C1.6524 5.27006 1.62993 5.32379 1.6099 5.3785C1.58987 5.43711 1.57131 5.49866 1.55471 5.56216C1.54982 5.58219 1.54591 5.60466 1.54103 5.62859C1.5298 5.67108 1.52247 5.71504 1.51856 5.75998C1.51368 5.78245 1.51221 5.80492 1.50977 5.82739C1.50733 5.84351 1.50488 5.85865 1.50488 5.87477C1.50244 5.9158 1.5 5.95585 1.5 5.99981C1.5 6.01104 1.5 6.02472 1.50244 6.03595C1.50244 6.11459 1.50879 6.19226 1.521 6.27333V6.27822C1.52589 6.30948 1.5298 6.3422 1.53712 6.37346C1.53956 6.3847 1.54201 6.39593 1.54591 6.40717C1.61234 6.69486 1.74716 6.95617 1.9308 7.17109C2.18968 7.47735 2.54478 7.69519 2.94872 7.77237C2.97363 7.77725 2.9961 7.78116 3.02101 7.78116C3.05227 7.78751 3.08499 7.78995 3.11869 7.79484C3.1436 7.79728 3.17145 7.79972 3.19733 7.80119L3.21931 7.80168C3.24667 7.80412 3.27548 7.80412 3.30333 7.80412C3.33703 7.80412 3.37073 7.80412 3.40346 7.79923C3.42593 7.79923 3.44595 7.79923 3.46989 7.79679C3.47477 7.79679 3.48112 7.79435 3.486 7.79435C3.54462 7.78946 3.60372 7.78067 3.66234 7.76944C3.6936 7.76309 3.72339 7.75332 3.75465 7.74697C3.81327 7.73085 3.86846 7.71571 3.92464 7.69422C4.036 7.65319 4.14199 7.6019 4.24213 7.54182C4.33444 7.4832 4.42334 7.41677 4.50492 7.34449C4.52738 7.32446 4.54741 7.3059 4.5689 7.28587L6.82702 8.63982V9.19518C6.82702 10.3079 7.8425 11.191 8.99762 10.9643C9.69805 10.8255 10.2657 10.259 10.4028 9.55905C10.629 8.40486 9.74783 7.38696 8.63375 7.38696C8.13993 7.38696 7.69447 7.58722 7.3682 7.90862L5.10871 6.55129L5.08233 6.53518L5.03593 6.50782C5.08331 6.34663 5.10822 6.17666 5.10822 6.00033C5.10822 5.824 5.08331 5.65403 5.03593 5.49284L5.10822 5.45034L7.36872 4.09252C7.77021 4.49157 8.35782 4.69769 8.9855 4.57998C9.69081 4.44615 10.2598 3.88102 10.401 3.18064C10.655 1.91747 9.58185 0.814606 8.32416 1.02618C7.65498 1.13754 7.10011 1.64015 6.90469 2.29422C6.79332 2.65958 6.80944 3.00198 6.90224 3.31702L4.56847 4.71349C4.48495 4.63094 4.39214 4.55718 4.29202 4.49125L4.29194 4.491Z" fill="#7B797D"/>
</svg>
