<svg width="1002" height="1001" viewBox="0 0 1002 1001" fill="none" xmlns="http://www.w3.org/2000/svg">
<path fill-rule="evenodd" clip-rule="evenodd" d="M49.6037 712.154C53.1746 710.882 56.9324 709.191 59.8303 706.742C63.2719 703.834 64.6716 700.089 65.6116 696.146C66.8183 691.081 67.3005 685.686 68.7638 680.613C69.3056 678.729 70.3483 678.016 70.7957 677.7C71.9265 676.902 73.0695 676.689 74.1449 676.769C75.4194 676.861 77.17 677.343 78.3214 679.48C78.4855 679.785 78.6989 680.251 78.8426 680.89C78.9472 681.358 79.015 682.821 79.1258 683.424C79.4029 684.91 79.6348 686.396 79.8523 687.89C80.5768 692.863 80.9934 697.086 83.2817 701.655C86.3868 707.857 89.4981 711.651 93.7176 713.332C97.7976 714.957 102.676 714.652 108.909 713.377C109.502 713.234 110.089 713.11 110.669 713.01C113.417 712.53 116.044 714.334 116.584 717.071C117.124 719.807 115.377 722.473 112.654 723.074C112.086 723.199 111.525 723.319 110.971 723.427C102.549 725.512 92.7981 732.954 87.1318 739.47C85.3853 741.479 82.8282 747.096 80.2197 750.68C78.2947 753.323 76.1315 755.065 74.3153 755.681C73.0983 756.096 72.0721 756.032 71.2246 755.823C69.9932 755.519 68.9712 754.852 68.1872 753.791C67.7603 753.21 67.3642 752.432 67.1754 751.439C67.0851 750.961 67.0748 749.746 67.0769 749.196C66.5454 747.367 65.8948 745.582 65.4207 743.737C64.2899 739.335 62.0713 736.548 59.4362 732.866C56.9714 729.42 54.324 727.255 50.4432 725.527C49.9383 725.404 45.8645 724.406 44.4259 723.834C42.3243 722.994 41.3228 721.588 40.9595 720.831C40.3418 719.546 40.2782 718.424 40.4013 717.488C40.584 716.107 41.2038 714.925 42.3038 713.97C42.9852 713.377 44.0031 712.801 45.3658 712.519C46.4186 712.3 49.2117 712.173 49.6037 712.154ZM73.5026 704.979C73.6914 705.4 73.8925 705.823 74.1059 706.25C78.6538 715.333 83.7394 720.404 89.9208 722.865L90.1281 722.945C85.9928 726.015 82.2494 729.447 79.3885 732.736C78.2105 734.091 76.6508 736.905 74.9659 739.79C73.4349 734.813 70.9311 731.296 67.7829 726.894C65.3776 723.534 62.8574 721.006 59.7605 718.945C62.1637 717.712 64.4561 716.267 66.453 714.58C69.7777 711.77 71.9757 708.515 73.5026 704.979Z" fill="#CECECE"/>
<circle cx="140.398" cy="106.475" r="20.0098" fill="#CECECE"/>
<circle cx="937.455" cy="523.345" r="20.0098" fill="#CECECE"/>
<path d="M470.561 846.836C680.531 846.836 850.746 676.621 850.746 466.65C850.746 256.68 680.531 86.4648 470.561 86.4648C260.59 86.4648 90.375 256.68 90.375 466.65C90.375 676.621 260.59 846.836 470.561 846.836Z" fill="url(#paint0_linear_4573_24017)"/>
<path fill-rule="evenodd" clip-rule="evenodd" d="M468.888 236.538C510.33 236.538 543.925 202.943 543.925 161.501C543.925 120.06 510.33 86.4648 468.888 86.4648C427.447 86.4648 393.852 120.06 393.852 161.501C393.852 202.943 427.447 236.538 468.888 236.538ZM467.221 203.188C489.323 203.188 507.24 185.271 507.24 163.169C507.24 141.067 489.323 123.149 467.221 123.149C445.119 123.149 427.201 141.067 427.201 163.169C427.201 185.271 445.119 203.188 467.221 203.188Z" fill="black"/>
<path d="M467.389 763.795C548.522 763.795 614.294 698.023 614.294 616.89C614.294 535.757 548.522 469.985 467.389 469.985C386.256 469.985 320.484 535.757 320.484 616.89C320.484 698.023 386.256 763.795 467.389 763.795Z" fill="url(#paint1_linear_4573_24017)"/>
<path d="M699.893 507.667V394.962C699.893 333.486 675.472 274.529 632.002 231.059C588.533 187.59 529.576 163.169 468.1 163.169C406.625 163.169 347.668 187.59 304.198 231.059C260.729 274.529 236.308 333.486 236.308 394.962V507.667C236.31 533.56 228.985 558.925 215.18 580.831C201.374 602.737 181.651 620.288 158.29 631.457C152.921 634.014 148.389 638.043 145.221 643.076C142.053 648.109 140.38 653.938 140.397 659.885V660.496C140.393 662.643 140.812 664.771 141.631 666.757C142.451 668.742 143.653 670.547 145.171 672.067C146.688 673.587 148.49 674.793 150.474 675.616C152.458 676.439 154.585 676.862 156.733 676.862H779.437C781.585 676.862 783.712 676.439 785.696 675.616C787.68 674.793 789.482 673.587 790.999 672.067C792.517 670.547 793.719 668.742 794.539 666.757C795.358 664.771 795.777 662.643 795.773 660.496V659.885C795.775 653.957 794.099 648.149 790.938 643.135C787.776 638.12 783.26 634.103 777.91 631.548C754.536 620.373 734.803 602.807 720.997 580.884C707.19 558.96 699.873 533.576 699.893 507.667Z" fill="#776BFF"/>
<path fill-rule="evenodd" clip-rule="evenodd" d="M797.384 676.753H140.396V656.743H797.384V676.753Z" fill="black"/>
<path d="M653.98 376.606C705.552 376.606 747.359 334.799 747.359 283.228C747.359 231.656 705.552 189.849 653.98 189.849C602.409 189.849 560.602 231.656 560.602 283.228C560.602 334.799 602.409 376.606 653.98 376.606Z" fill="white"/>
<path d="M630.637 283.192C630.637 274.909 632.53 268.398 636.317 263.658C640.156 258.918 646.044 256.548 653.981 256.548C661.867 256.548 667.729 258.942 671.568 263.729C675.407 268.469 677.326 274.957 677.326 283.192C677.326 291.474 675.407 298.01 671.568 302.797C667.729 307.537 661.867 309.907 653.981 309.907C646.044 309.907 640.156 307.537 636.317 302.797C632.53 298.01 630.637 291.474 630.637 283.192ZM660.285 283.192C660.285 279.361 659.87 276.489 659.039 274.574C658.209 272.611 656.523 271.629 653.981 271.629C651.388 271.629 649.676 272.611 648.846 274.574C648.016 276.489 647.601 279.361 647.601 283.192C647.601 287.07 648.016 289.99 648.846 291.953C649.676 293.868 651.388 294.826 653.981 294.826C656.523 294.826 658.209 293.868 659.039 291.953C659.87 289.99 660.285 287.07 660.285 283.192Z" fill="black"/>
<path fill-rule="evenodd" clip-rule="evenodd" d="M287.498 727.785C271.522 742.234 255.591 756.389 240.042 771.296C236.686 774.491 236.559 779.759 239.735 783.079C242.921 786.43 248.218 786.535 251.543 783.35C267.016 768.538 282.809 754.499 298.678 740.154C302.097 737.044 302.362 731.765 299.303 728.372C296.203 724.958 290.917 724.675 287.498 727.785Z" fill="black"/>
<path fill-rule="evenodd" clip-rule="evenodd" d="M648.4 727.791C664.286 742.244 680.129 756.402 695.585 771.311C698.922 774.507 699.022 779.77 695.833 783.083C692.634 786.428 687.342 786.528 684.037 783.343C668.655 768.528 652.95 754.486 637.17 740.138C633.77 737.027 633.532 731.753 636.605 728.367C639.719 724.959 645 724.681 648.4 727.791Z" fill="black"/>
<path fill-rule="evenodd" clip-rule="evenodd" d="M457.728 821.144C457.475 842.639 457.037 863.901 457.41 885.391C457.473 890.014 461.249 893.669 465.837 893.583C470.456 893.511 474.128 889.695 474.05 885.101C473.696 863.73 474.125 842.648 474.382 821.302C474.424 816.69 470.734 812.927 466.172 812.878C461.565 812.845 457.77 816.532 457.728 821.144Z" fill="black"/>
<defs>
<linearGradient id="paint0_linear_4573_24017" x1="467.63" y1="-37.3329" x2="475.418" y2="1297.82" gradientUnits="userSpaceOnUse">
<stop stop-color="#F2F2F2"/>
<stop offset="1" stop-color="#EFEFEF"/>
</linearGradient>
<linearGradient id="paint1_linear_4573_24017" x1="320.484" y1="469.514" x2="616.412" y2="706.27" gradientUnits="userSpaceOnUse">
<stop stop-color="#E1DCEB"/>
<stop offset="1" stop-color="#B3AFBA"/>
</linearGradient>
</defs>
</svg>
