<svg width="12" height="12" viewBox="0 0 12 12" fill="none" xmlns="http://www.w3.org/2000/svg">
<path fill-rule="evenodd" clip-rule="evenodd" d="M4.75 6.27684C6.12729 6.27684 7.23132 5.15853 7.23132 3.76342C7.23132 2.36831 6.12729 1.25 4.75 1.25C3.37271 1.25 2.26868 2.36831 2.26868 3.76342C2.26868 5.15853 3.37271 6.27684 4.75 6.27684ZM4.75 7.5076C2.72711 7.5076 1 7.83103 1 9.12322C1 10.4149 2.7166 10.75 4.75 10.75C6.77239 10.75 8.5 10.4266 8.5 9.13437C8.5 7.84218 6.7834 7.5076 4.75 7.5076ZM9.94897 4.79393H10.5505C10.7981 4.79393 11 4.99865 11 5.24974C11 5.50082 10.7981 5.70555 10.5505 5.70555H9.94897V6.29419C9.94897 6.54528 9.7476 6.75 9.49949 6.75C9.25188 6.75 9.05 6.54528 9.05 6.29419V5.70555H8.44949C8.20137 5.70555 8 5.50082 8 5.24974C8 4.99865 8.20137 4.79393 8.44949 4.79393H9.05V4.20581C9.05 3.95472 9.25188 3.75 9.49949 3.75C9.7476 3.75 9.94897 3.95472 9.94897 4.20581V4.79393Z" fill="#FEFDFF"/>
</svg>
