<svg width="12" height="12" viewBox="0 0 12 12" fill="none" xmlns="http://www.w3.org/2000/svg">
<path d="M10.2871 2.50054C10.109 2.50589 9.93958 2.58089 9.81569 2.70947C8.11416 4.41502 6.29273 6.36906 4.59253 8.09326L2.16583 6.09512C2.02855 5.96053 1.84106 5.88955 1.64888 5.8996C1.45736 5.91031 1.27856 6.00071 1.15603 6.14936C1.03415 6.29735 0.979922 6.49021 1.0067 6.68106C1.03416 6.87124 1.13929 7.04132 1.29799 7.15047L4.21222 9.55043C4.48475 9.77543 4.8832 9.75667 5.13363 9.50757C6.97646 7.66081 8.97597 5.49776 10.7907 3.6791C10.9956 3.4809 11.0565 3.17755 10.9447 2.9164C10.8329 2.65458 10.5717 2.48917 10.2871 2.50055L10.2871 2.50054Z" fill="#FEFDFF"/>
</svg>
