<svg width="12" height="12" viewBox="0 0 12 12" fill="none" xmlns="http://www.w3.org/2000/svg">
<path d="M1 7.8125V4.6875C1 4.16992 1.41992 3.75 1.9375 3.75H2.25V3.4375C2.25 2.91992 2.66992 2.5 3.1875 2.5C3.70508 2.5 4.125 2.91992 4.125 3.4375V5.3125H7.875V3.4375C7.875 2.91992 8.29492 2.5 8.8125 2.5C9.33008 2.5 9.75 2.91992 9.75 3.4375V3.75H10.0625C10.5801 3.75 11 4.16992 11 4.6875V7.8125C11 8.33008 10.5801 8.75 10.0625 8.75H9.75V9.0625C9.75 9.58008 9.33008 10 8.8125 10C8.29492 10 7.875 9.58008 7.875 9.0625V7.1875H4.125V9.0625C4.125 9.58008 3.70508 10 3.1875 10C2.66992 10 2.25 9.58008 2.25 9.0625V8.75H1.9375C1.41992 8.75 1 8.33008 1 7.8125Z" fill="#FEFDFF"/>
</svg>
