<svg width="12" height="12" viewBox="0 0 12 12" fill="none" xmlns="http://www.w3.org/2000/svg">
<path fill-rule="evenodd" clip-rule="evenodd" d="M8.76136 3.698V4.46467C9.62253 4.73348 10.25 5.51307 10.25 6.4442V8.91265C10.25 10.0654 9.29432 11 8.11611 11H3.8844C2.70568 11 1.75 10.0654 1.75 8.91265V6.4442C1.75 5.51307 2.37797 4.73348 3.23864 4.46467V3.698C3.24372 2.20739 4.47833 1 5.99238 1C7.52675 1 8.76136 2.20739 8.76136 3.698ZM6.00254 1.86952C7.03392 1.86952 7.87224 2.68936 7.87224 3.698V4.35685H4.12776V3.68807C4.13284 2.68439 4.97116 1.86952 6.00254 1.86952ZM6.44456 8.22747C6.44456 8.47093 6.24641 8.66471 5.99746 8.66471C5.75359 8.66471 5.55544 8.47093 5.55544 8.22747V7.12442C5.55544 6.88592 5.75359 6.69214 5.99746 6.69214C6.24641 6.69214 6.44456 6.88592 6.44456 7.12442V8.22747Z" fill="#FEFDFF"/>
</svg>
