<svg width="12" height="12" viewBox="0 0 12 12" fill="none" xmlns="http://www.w3.org/2000/svg">
<path fill-rule="evenodd" clip-rule="evenodd" d="M6.97277 6.445C7.11634 6.59 7.34901 6.59 7.49257 6.445C7.64109 6.3 7.64109 6.065 7.49753 5.92L6.07673 4.48C6.04208 4.445 6.00248 4.42 5.95792 4.4C5.91337 4.38 5.86881 4.37 5.81931 4.37C5.7698 4.37 5.7203 4.38 5.67574 4.4C5.63119 4.42 5.59158 4.445 5.55693 4.48L4.14109 5.92C3.99752 6.065 3.99752 6.3 4.14109 6.445C4.28465 6.59 4.51733 6.59 4.66089 6.445L5.44802 5.645V8.06C5.44802 8.265 5.61139 8.43 5.81931 8.43C6.02228 8.43 6.18564 8.265 6.18564 8.06V5.645L6.97277 6.445ZM9.66408 4.51281C9.78045 4.51146 9.90715 4.51 10.0223 4.51C10.146 4.51 10.25 4.61 10.25 4.735V8.755C10.25 9.995 9.25 11 8.02228 11H4.08663C2.79455 11 1.75 9.945 1.75 8.645V3.255C1.75 2.015 2.74505 1 3.98267 1H6.62624C6.75 1 6.85396 1.105 6.85396 1.23V2.84C6.85396 3.755 7.59653 4.505 8.50743 4.51C8.71564 4.51 8.90051 4.51157 9.06289 4.51295C9.19007 4.51404 9.30345 4.515 9.40347 4.515C9.47393 4.515 9.56528 4.51395 9.66408 4.51281ZM9.80233 3.783C9.3954 3.7845 8.91619 3.783 8.57114 3.7795C8.02361 3.7795 7.57262 3.324 7.57262 2.771V1.453C7.57262 1.2375 7.83104 1.1305 7.97906 1.286C8.36045 1.68615 8.94437 2.29948 9.43776 2.81773C9.63732 3.02734 9.82207 3.2214 9.97262 3.3795C10.1167 3.531 10.0107 3.7825 9.80233 3.783Z" fill="#FEFDFF"/>
</svg>
