<svg width="24" height="24" viewBox="0 0 24 24" fill="none" xmlns="http://www.w3.org/2000/svg">
<path d="M5.40936 20.5611C6.71429 20.075 7.38027 18.6158 6.89353 17.309C6.76902 16.9748 6.55346 16.6744 6.31888 16.4157L8.00923 12.3255C8.28597 12.3263 8.58173 12.2853 8.82451 12.1949C9.06729 12.1045 9.31777 11.9419 9.52659 11.7603L13.4922 13.7784C13.484 14.1275 13.5061 14.4653 13.6419 14.83C14.1287 16.1367 15.587 16.8047 16.8919 16.3186C18.1969 15.8326 18.8629 14.3733 18.3761 13.0666C18.2516 12.7323 18.036 12.4319 17.8015 12.1733L19.5108 8.0414C19.7876 8.04213 20.0833 8.00118 20.3565 7.89944C21.6614 7.41338 22.3274 5.95412 21.8406 4.64739C21.3539 3.34065 19.8956 2.67266 18.5906 3.15873C17.2857 3.64479 16.6197 5.10405 17.1065 6.41078C17.231 6.74506 17.4465 7.04543 17.6811 7.30411L16.0021 11.4247C15.7254 11.4239 15.4296 11.4649 15.1565 11.5666C14.8833 11.6684 14.6632 11.8196 14.424 12.0125L10.4585 9.99442C10.4667 9.64531 10.4445 9.30751 10.3087 8.94284C9.82195 7.6361 8.36361 6.96811 7.05868 7.45418C5.75375 7.94024 5.08777 9.39949 5.57451 10.7062C5.69902 11.0405 5.91458 11.3409 6.14916 11.5996L4.48915 15.6784C4.21242 15.6777 3.91665 15.7186 3.64353 15.8204C2.3386 16.3064 1.67262 17.7657 2.15936 19.0724C2.64609 20.3792 4.10443 21.0472 5.40936 20.5611Z" fill="#FF931E"/>
</svg>
