<svg width="12" height="12" viewBox="0 0 12 12" fill="none" xmlns="http://www.w3.org/2000/svg">
<path d="M6.29415 10.4117C6.29181 10.6187 6.23517 10.8219 6.12931 11L8.64687 11C8.80312 11 8.95272 10.9379 9.06288 10.8277C9.17343 10.7176 9.23515 10.568 9.23515 10.4117L9.23515 7.89416C9.41327 8.00001 9.61639 8.05665 9.82342 8.05899C10.4734 8.05899 11 7.53205 11 6.88241C11 6.23243 10.4734 5.70584 9.82342 5.70584C9.61639 5.70818 9.41327 5.76482 9.23515 5.87067L9.23515 3.35312C9.23515 3.02812 8.97187 2.76485 8.64688 2.76485L6.12932 2.76485C6.23518 2.58673 6.29182 2.3836 6.29416 2.17658C6.29416 1.52659 5.76761 1 5.11758 1C4.46798 1 3.941 1.52655 3.941 2.17658C3.94334 2.3836 3.99998 2.58673 4.10584 2.76485L1.58828 2.76485C1.43203 2.76485 1.28243 2.82657 1.17227 2.93711C1.06211 3.04727 1 3.19688 1 3.35313L1 5.87068C1.17812 5.76482 1.38124 5.70818 1.58827 5.70584C2.23787 5.70584 2.76485 6.2324 2.76485 6.88242C2.76485 7.53202 2.23791 8.059 1.58827 8.059C1.38124 8.05666 1.17812 8.00002 1 7.89417L1 10.4117C1 10.568 1.06211 10.7176 1.17227 10.8277C1.28243 10.9379 1.43203 11 1.58828 11L4.10584 11C3.99998 10.8219 3.94334 10.6188 3.941 10.4117C3.941 9.76213 4.46794 9.23515 5.11758 9.23515C5.76757 9.23515 6.29416 9.76209 6.29416 10.4117L6.29415 10.4117Z" fill="#CECECE"/>
</svg>
