<svg width="12" height="12" viewBox="0 0 12 12" fill="none" xmlns="http://www.w3.org/2000/svg">
    <path d="M3.85159 11C4.60599 11 5.32995 10.7004 5.8633 10.1666L7.39962 8.62483L6.68795 7.91316L5.15654 9.45489C4.81127 9.80556 4.34026 10.004 3.84818 10.0055C3.35654 10.0074 2.88406 9.81293 2.53579 9.4652C2.18806 9.11698 1.99357 8.64451 1.99553 8.15281C1.997 7.66068 2.19542 7.18968 2.5461 6.84444L4.08292 5.30813L3.37617 4.60138L1.83444 6.13417C1.30057 6.66804 1 7.3925 1 8.1484C0.999509 8.90377 1.2991 9.62863 1.83297 10.163C2.36684 10.6978 3.09079 10.9989 3.84619 10.9999L3.85159 11Z" fill="#7B797D"/>
    <path d="M6.87661 2.51394C7.34614 2.06602 8.01654 1.89708 8.64226 2.06996C9.26798 2.24284 9.75715 2.73152 9.93 3.3572C10.1034 3.98292 9.93492 4.65337 9.487 5.12285L7.95018 6.66055L8.65693 7.3673L10.1987 5.8345C10.899 5.11057 11.1657 4.07036 10.8995 3.09883C10.6333 2.12687 9.87402 1.36751 8.90201 1.10134C7.93053 0.835136 6.8903 1.10183 6.16634 1.80219L4.63354 3.34391L5.34521 4.05558L6.87661 2.51394Z" fill="#7B797D"/>
    <path d="M3.74683 7.54184L7.57523 3.71344L8.28639 4.4246L4.45799 8.25301L3.74683 7.54184Z" fill="#7B797D"/>
</svg>
