<svg width="12" height="12" viewBox="0 0 12 12" fill="none" xmlns="http://www.w3.org/2000/svg">
<path fill-rule="evenodd" clip-rule="evenodd" d="M6.07673 8.32L7.49753 6.885C7.64109 6.735 7.64109 6.5 7.49257 6.355C7.34901 6.21 7.11634 6.21 6.97277 6.355L6.18564 7.155V4.745C6.18564 4.535 6.02228 4.37 5.81931 4.37C5.61634 4.37 5.44802 4.535 5.44802 4.745V7.155L4.66089 6.355C4.51733 6.21 4.28465 6.21 4.14109 6.355C3.99752 6.5 3.99752 6.735 4.14109 6.885L5.55693 8.32C5.59158 8.355 5.63119 8.38 5.67574 8.4C5.7203 8.42 5.7698 8.43 5.81931 8.43C5.86881 8.43 5.91337 8.42 5.95792 8.4C6.00248 8.38 6.04208 8.355 6.07673 8.32ZM9.66408 4.51281C9.78045 4.51146 9.90715 4.51 10.0223 4.51C10.151 4.51 10.25 4.61 10.25 4.735V8.755C10.25 9.995 9.25 11 8.02228 11H4.08663C2.79455 11 1.75 9.945 1.75 8.645V3.255C1.75 2.015 2.74505 1 3.98267 1H6.62624C6.75 1 6.85396 1.105 6.85396 1.23V2.84C6.85396 3.755 7.59653 4.505 8.50743 4.51C8.71665 4.51 8.90386 4.51159 9.0673 4.51297C9.1939 4.51405 9.30623 4.515 9.40347 4.515C9.47393 4.515 9.56528 4.51395 9.66408 4.51281ZM9.80223 3.78305C9.39579 3.78455 8.91609 3.78305 8.57104 3.77955C8.02351 3.77955 7.57252 3.32405 7.57252 2.77105V1.45305C7.57252 1.23755 7.83144 1.13055 7.97896 1.28605C8.36015 1.686 8.94367 2.2989 9.4369 2.81698C9.63675 3.0269 9.82178 3.22124 9.97252 3.37955C10.1171 3.53105 10.0111 3.78255 9.80223 3.78305Z" fill="#776BFF"/>
</svg>
