<svg width="12" height="12" viewBox="0 0 12 12" fill="none" xmlns="http://www.w3.org/2000/svg">
<path fill-rule="evenodd" clip-rule="evenodd" d="M4.46287 8.195H7.15594C7.35891 8.195 7.52723 8.025 7.52723 7.82C7.52723 7.615 7.35891 7.45 7.15594 7.45H4.46287C4.2599 7.45 4.09158 7.615 4.09158 7.82C4.09158 8.025 4.2599 8.195 4.46287 8.195ZM6.13614 4.95H4.46287C4.2599 4.95 4.09158 5.12 4.09158 5.325C4.09158 5.53 4.2599 5.695 4.46287 5.695H6.13614C6.33911 5.695 6.50743 5.53 6.50743 5.325C6.50743 5.12 6.33911 4.95 6.13614 4.95ZM9.66903 4.51281C9.7854 4.51146 9.9121 4.51 10.0272 4.51C10.151 4.51 10.25 4.61 10.25 4.735V8.755C10.25 9.995 9.25495 11 8.02723 11H4.08663C2.7995 11 1.75 9.945 1.75 8.645V3.255C1.75 2.015 2.75 1 3.98267 1H6.62624C6.75495 1 6.85396 1.105 6.85396 1.23V2.84C6.85396 3.755 7.60149 4.505 8.50743 4.51C8.71903 4.51 8.90559 4.51158 9.06885 4.51297C9.19586 4.51404 9.30877 4.515 9.40842 4.515C9.47889 4.515 9.57023 4.51395 9.66903 4.51281ZM9.80554 3.783C9.39861 3.7845 8.91891 3.783 8.57386 3.7795C8.02634 3.7795 7.57535 3.324 7.57535 2.771V1.453C7.57535 1.2375 7.83426 1.1305 7.98228 1.286L9.97535 3.3795C10.1199 3.531 10.014 3.7825 9.80554 3.783Z" fill="#FEFDFF"/>
</svg>
