<svg width="12" height="12" viewBox="0 0 12 12" fill="none" xmlns="http://www.w3.org/2000/svg">
<path fill-rule="evenodd" clip-rule="evenodd" d="M2.27 1H3.96C4.665 1 5.23 1.575 5.23 2.2805V3.985C5.23 4.695 4.665 5.265 3.96 5.265H2.27C1.57 5.265 1 4.695 1 3.985V2.2805C1 1.575 1.57 1 2.27 1ZM2.27 6.73485H3.96C4.665 6.73485 5.23 7.30535 5.23 8.01535V9.71985C5.23 10.4248 4.665 10.9998 3.96 10.9998H2.27C1.57 10.9998 1 10.4248 1 9.71985V8.01535C1 7.30535 1.57 6.73485 2.27 6.73485ZM9.73005 1H8.04005C7.33505 1 6.77005 1.575 6.77005 2.2805V3.985C6.77005 4.695 7.33505 5.265 8.04005 5.265H9.73005C10.43 5.265 11 4.695 11 3.985V2.2805C11 1.575 10.43 1 9.73005 1ZM8.04005 6.73485H9.73005C10.43 6.73485 11 7.30535 11 8.01535V9.71985C11 10.4248 10.43 10.9998 9.73005 10.9998H8.04005C7.33505 10.9998 6.77005 10.4248 6.77005 9.71985V8.01535C6.77005 7.30535 7.33505 6.73485 8.04005 6.73485Z" fill="#ED1C24"/>
</svg>
