<svg width="24" height="24" viewBox="0 0 24 24" fill="none" xmlns="http://www.w3.org/2000/svg">
<path fill-rule="evenodd" clip-rule="evenodd" d="M11.5634 2H12.1729L12.2197 2.00485C12.8649 2.07178 13.4354 2.45843 13.734 3.03827L13.737 3.04421L15.7594 7.11801C15.7727 7.14538 15.7999 7.16664 15.8332 7.17231L20.3435 7.82662L20.3446 7.82678C21.0633 7.92987 21.6631 8.42599 21.9007 9.10983L21.9035 9.11786L21.9062 9.12593C22.1348 9.82564 21.9376 10.5928 21.4024 11.0964L21.4005 11.0982L18.0098 14.3076C17.9913 14.3266 17.9815 14.3545 17.9853 14.3832L18.7915 18.8454C18.9223 19.5722 18.6178 20.3074 18.0146 20.7297C17.4221 21.1571 16.6405 21.2061 16.0002 20.8654L11.9714 18.7641C11.9606 18.7583 11.9454 18.7531 11.9254 18.7516H11.8322L7.84053 20.843L7.83357 20.8465C7.46529 21.0315 7.04686 21.0976 6.63616 21.0317L6.62367 21.0297L6.61123 21.0273C5.58835 20.8338 4.90662 19.8597 5.07407 18.8326L5.07534 18.8248L5.88378 14.3557C5.88813 14.3224 5.87694 14.2893 5.85374 14.2657L2.57527 11.0881C2.04886 10.5773 1.86353 9.80826 2.10358 9.11328C2.3343 8.43578 2.92094 7.94016 3.63015 7.82854L3.64096 7.82684L8.17717 7.16883L8.19583 7.16691C8.22879 7.16351 8.25892 7.1435 8.27501 7.11293L10.2678 3.0272L10.2732 3.01683C10.3623 2.84554 10.4808 2.68065 10.631 2.53601L10.6655 2.50272L10.7367 2.44736C10.828 2.35867 10.9275 2.28455 11.0316 2.22381L11.101 2.18332L11.259 2.12536L11.5634 2ZM11.886 3.85661L9.90208 7.92405C9.61208 8.50404 9.04855 8.89905 8.40401 8.97292L3.91012 9.62485C3.87092 9.63201 3.83784 9.65987 3.82441 9.69956L3.82201 9.70667C3.81304 9.73246 3.81912 9.76181 3.84078 9.78288L7.12798 12.969C7.57396 13.4081 7.77865 14.0365 7.67715 14.6541L7.67597 14.6613L6.8678 19.1289C6.86163 19.1781 6.89201 19.2239 6.93796 19.2383C6.96338 19.24 6.98932 19.2353 7.01368 19.2238L11.0246 17.1224C11.1972 17.0293 11.3808 16.9708 11.5639 16.9436L11.6305 16.9337H11.9571L11.9701 16.934C12.2631 16.9424 12.5551 17.016 12.8219 17.1573L16.8541 19.2603C16.8874 19.2782 16.9252 19.2742 16.9516 19.2549L16.9614 19.2477L16.9715 19.2408C16.9961 19.2238 17.0073 19.1952 17.0024 19.168L16.1933 14.69L16.1922 14.6835C16.09 14.0669 16.2958 13.4371 16.7463 13.0004L16.754 12.9929L20.1537 9.7752L20.1565 9.77248C20.1778 9.75253 20.186 9.7243 20.1801 9.69787C20.1633 9.65943 20.1277 9.63221 20.0864 9.62631L20.0845 9.62603L15.5597 8.96962C14.9421 8.875 14.4053 8.4849 14.1277 7.91973L12.1161 3.86761C12.1033 3.8445 12.0818 3.82652 12.0553 3.81796H11.9357L11.886 3.85661Z" fill="#521BAF"/>
</svg>
