<svg width="24" height="24" viewBox="0 0 24 24" fill="none" xmlns="http://www.w3.org/2000/svg">
<path fill-rule="evenodd" clip-rule="evenodd" d="M12 22C17.5228 22 22 17.5228 22 12C22 6.47715 17.5228 2 12 2C6.47715 2 2 6.47715 2 12C2 17.5228 6.47715 22 12 22ZM10.5377 6.0625C10.5377 5.19955 11.2372 4.5 12.1002 4.5C12.9631 4.5 13.6627 5.19956 13.6627 6.0625L13.6627 12.4154C13.6627 13.1259 13.2858 13.783 12.6726 14.1417L8.40751 16.6369C7.66179 17.0732 6.70348 16.8193 6.27149 16.0711C5.84126 15.3259 6.09658 14.3731 6.84177 13.9428L10.5377 11.809L10.5377 6.0625Z" fill="#776BFF"/>
</svg>
