<svg width="24" height="24" viewBox="0 0 24 24" fill="none" xmlns="http://www.w3.org/2000/svg">
<path d="M16.0803 7.38245H8.38657C8.38657 7.38245 3 11.9984 3 17.3841C3 20.4602 5.31617 22 6.84695 22H17.6192C19.1565 22 21.4662 20.4611 21.4662 17.3841C21.467 11.9984 16.0805 7.38245 16.0805 7.38245H16.0803ZM13.0016 18.0749V19.3071H11.4644L11.4652 18.0791C10.3326 17.8685 9.62033 17.1694 9.57015 16.1544H10.9026C10.9676 16.6874 11.5047 17.0304 12.2819 17.0304C12.9975 17.0304 13.505 16.6833 13.505 16.1881C13.505 15.767 13.1768 15.5269 12.3683 15.3459L11.5113 15.1625C10.3112 14.9116 9.72151 14.2865 9.72151 13.2822C9.72151 12.278 10.391 11.5533 11.4562 11.3156V10.0761H12.9934V11.3181C14.0339 11.5501 14.7265 12.2591 14.7602 13.2132H13.4738C13.4088 12.6933 12.9243 12.3454 12.2589 12.3454C11.5935 12.3454 11.1132 12.6654 11.1132 13.1663C11.1132 13.5726 11.4266 13.7979 12.1997 13.9707L12.9934 14.1393C14.3177 14.4173 14.8885 14.9815 14.8885 16.0113C14.8885 17.1126 14.1811 17.8496 13.0017 18.075L13.0016 18.0749Z" fill="#00C590"/>
<path d="M16.0802 2.76493H13.954C13.5148 2.278 12.8888 2 12.2333 2C11.5777 2 10.9518 2.278 10.5126 2.76493H8.38636C8.13222 2.76657 7.89451 2.89324 7.7514 3.1038C7.6091 3.31436 7.57949 3.58167 7.67243 3.81773L8.38636 5.84109L16.08 5.84192L16.794 3.81855V3.81773C16.8869 3.58167 16.8573 3.31436 16.715 3.1038C16.5719 2.89324 16.3342 2.76657 16.08 2.76493L16.0802 2.76493Z" fill="#00C590"/>
</svg>
