<svg width="24" height="24" viewBox="0 0 24 24" fill="none" xmlns="http://www.w3.org/2000/svg">
<path d="M2 4.81818C2 3.81403 2.81403 3 3.81818 3H20.1818C21.186 3 22 3.81403 22 4.81818C22 5.82234 21.186 6.63636 20.1818 6.63636H3.81818C2.81403 6.63636 2 5.82234 2 4.81818Z" fill="#FEFDFF"/>
<path d="M2 12.0909C2 11.0868 2.81403 10.2727 3.81818 10.2727H20.1818C21.186 10.2727 22 11.0868 22 12.0909C22 13.0951 21.186 13.9091 20.1818 13.9091H3.81818C2.81403 13.9091 2 13.0951 2 12.0909Z" fill="#FEFDFF"/>
<path d="M2 19.3636C2 18.3595 2.81403 17.5455 3.81818 17.5455H20.1818C21.186 17.5455 22 18.3595 22 19.3636C22 20.3678 21.186 21.1818 20.1818 21.1818H3.81818C2.81403 21.1818 2 20.3678 2 19.3636Z" fill="#FEFDFF"/>
</svg>
