<svg width="24" height="24" viewBox="0 0 24 24" fill="none" xmlns="http://www.w3.org/2000/svg">
<path d="M20.5742 5.00107C20.218 5.01178 19.8792 5.16178 19.6314 5.41894C16.2283 8.83003 12.5855 12.7381 9.18506 16.1865L4.33165 12.1902C4.05711 11.9211 3.68212 11.7791 3.29775 11.7992C2.91472 11.8206 2.55712 12.0014 2.31205 12.2987C2.06831 12.5947 1.95984 12.9804 2.0134 13.3621C2.06831 13.7425 2.27858 14.0826 2.59597 14.3009L8.42444 19.1009C8.96951 19.5509 9.7664 19.5133 10.2673 19.0151C13.9529 15.3216 17.9519 10.9955 21.5814 7.35821C21.9912 6.9618 22.113 6.35509 21.8894 5.83279C21.6657 5.30916 21.1434 4.97834 20.5742 5.0011L20.5742 5.00107Z" fill="#383838"/>
</svg>
