<svg width="24" height="24" viewBox="0 0 24 24" fill="none" xmlns="http://www.w3.org/2000/svg">
<path d="M12 2C6.47863 2 2 6.47863 2 12C2 17.5214 6.47863 22 12 22C17.5214 22 22 17.5214 22 12C22 6.47863 17.5214 2 12 2ZM12 18.6144C8.34994 18.6144 5.3856 15.6501 5.3856 12C5.3856 8.34994 8.34994 5.3856 12 5.3856C15.6501 5.3856 18.6144 8.34994 18.6144 12C18.6144 15.6501 15.6501 18.6144 12 18.6144Z" fill="#383838"/>
<path d="M12 7.94998C9.76431 7.94998 7.94995 9.76427 7.94995 12C7.94995 14.2358 9.76424 16.0501 12 16.0501C14.2358 16.0501 16.0501 14.2358 16.0501 12C16.0501 9.76427 14.2358 7.94998 12 7.94998V7.94998ZM12 13.5715C11.1357 13.5715 10.4286 12.8715 10.4286 12C10.4286 11.1286 11.1286 10.4286 12 10.4286C12.8643 10.4286 13.5714 11.1286 13.5714 12C13.5714 12.8643 12.8643 13.5715 12 13.5715Z" fill="#383838"/>
</svg>
