<svg width="12" height="12" viewBox="0 0 12 12" fill="none" xmlns="http://www.w3.org/2000/svg">
<path fill-rule="evenodd" clip-rule="evenodd" d="M11 6C11 8.76 8.755 11 6 11L5.86012 10.9981C3.16471 10.9239 1 8.71322 1 6C1 3.245 3.24 1 6 1C8.755 1 11 3.245 11 6ZM5.01 4C4.865 4.15 4.865 4.385 5.015 4.53L6.49 6L5.015 7.47C4.865 7.615 4.865 7.855 5.01 8C5.16 8.15 5.395 8.15 5.54 8L7.285 6.265C7.355 6.195 7.395 6.1 7.395 6C7.395 5.9 7.355 5.805 7.285 5.735L5.54 4C5.47 3.925 5.375 3.89 5.28 3.89C5.18 3.89 5.085 3.925 5.01 4Z" fill="#383838"/>
</svg>
