<svg width="12" height="12" viewBox="0 0 12 12" fill="none" xmlns="http://www.w3.org/2000/svg">
<path fill-rule="evenodd" clip-rule="evenodd" d="M9.35354 4.39816C9.35354 5.02613 9.51951 5.39626 9.88476 5.8228C10.1615 6.13703 10.25 6.5404 10.25 6.97801C10.25 7.41512 10.1064 7.83007 9.81866 8.16697C9.44199 8.57084 8.91077 8.82867 8.36862 8.87349C7.58297 8.94047 6.79683 8.99687 6.00025 8.99687C5.20317 8.99687 4.41752 8.96313 3.63188 8.87349C3.08923 8.82867 2.55801 8.57084 2.18183 8.16697C1.89411 7.83007 1.75 7.41512 1.75 6.97801C1.75 6.5404 1.83895 6.13703 2.11524 5.8228C2.49192 5.39626 2.64696 5.02613 2.64696 4.39816V4.18515C2.64696 3.34417 2.85666 2.79426 3.2885 2.25593C3.93053 1.47085 4.95968 1 5.97789 1H6.02261C7.06269 1 8.12512 1.49351 8.75623 2.31233C9.1657 2.83958 9.35354 3.36633 9.35354 4.18515V4.39816ZM4.53684 10.0304C4.53684 9.77863 4.76791 9.66331 4.98159 9.61396C5.23155 9.56108 6.75464 9.56108 7.0046 9.61396C7.21828 9.66331 7.44935 9.77863 7.44935 10.0304C7.43692 10.2701 7.29629 10.4826 7.10199 10.6176C6.85005 10.814 6.55438 10.9384 6.24529 10.9832C6.07434 11.0054 5.90638 11.0059 5.7414 10.9832C5.43181 10.9384 5.13614 10.814 4.88469 10.6171C4.68989 10.4826 4.54926 10.2701 4.53684 10.0304Z" fill="#383838"/>
</svg>
