<svg width="10" height="10" viewBox="0 0 10 10" fill="none" xmlns="http://www.w3.org/2000/svg">
<path fill-rule="evenodd" clip-rule="evenodd" d="M5 10C2.24 10 0 7.755 0 5C0 2.24 2.24 0 5 0C7.755 0 10 2.24 10 5C10 7.755 7.755 10 5 10ZM7 4.01C6.85 3.865 6.615 3.865 6.47 4.015L5 5.49L3.53 4.015C3.385 3.865 3.145 3.865 3 4.01C2.85 4.16 2.85 4.395 3 4.54L4.735 6.285C4.805 6.355 4.9 6.395 5 6.395C5.1 6.395 5.195 6.355 5.265 6.285L7 4.54C7.075 4.47 7.11 4.375 7.11 4.28C7.11 4.18 7.075 4.085 7 4.01Z" fill="#F3F3F3"/>
</svg>
