<svg width="12" height="12" viewBox="0 0 12 12" fill="none" xmlns="http://www.w3.org/2000/svg">
<path d="M6 1C3.23931 1 1 3.23931 1 6C1 8.76069 3.23931 11 6 11C8.76069 11 11 8.76069 11 6C11 3.23931 8.76069 1 6 1ZM6 9.3072C4.17497 9.3072 2.6928 7.82503 2.6928 6C2.6928 4.17497 4.17497 2.6928 6 2.6928C7.82503 2.6928 9.3072 4.17497 9.3072 6C9.3072 7.82503 7.82503 9.3072 6 9.3072Z" fill="#F3F3F3"/>
<path d="M6.00013 3.97499C4.88227 3.97499 3.9751 4.88213 3.9751 6.00002C3.9751 7.1179 4.88224 8.02505 6.00013 8.02505C7.11801 8.02505 8.02515 7.1179 8.02515 6.00002C8.02515 4.88213 7.11801 3.97499 6.00013 3.97499V3.97499ZM6.00013 6.78573C5.56799 6.78573 5.21441 6.43573 5.21441 6.00002C5.21441 5.56431 5.56441 5.21431 6.00013 5.21431C6.43226 5.21431 6.78584 5.56431 6.78584 6.00002C6.78584 6.43216 6.43226 6.78573 6.00013 6.78573Z" fill="#FEFDFF"/>
</svg>
