<svg width="1002" height="1001" viewBox="0 0 1002 1001" fill="none" xmlns="http://www.w3.org/2000/svg">
<path d="M546.024 923.54C769.808 923.54 951.222 742.127 951.222 518.342C951.222 294.558 769.808 113.145 546.024 113.145C322.239 113.145 140.826 294.558 140.826 518.342C140.826 742.127 322.239 923.54 546.024 923.54Z" fill="url(#paint0_linear_4573_24013)"/>
<path d="M511.266 106.888L190.85 364.732V781.804C190.85 818.641 220.712 848.503 257.549 848.503H846.473C883.31 848.503 913.172 818.641 913.172 781.804V364.732L595.068 107.026C570.654 87.2464 535.746 87.1891 511.266 106.888Z" fill="black"/>
<rect x="295.08" y="186.328" width="516.291" height="642.7" rx="80.0391" fill="url(#paint1_linear_4573_24013)"/>
<path d="M339.502 283.228C339.502 275.86 345.474 269.888 352.842 269.888H741.222C748.59 269.888 754.562 275.86 754.562 283.228C754.562 290.595 748.59 296.567 741.222 296.567H352.842C345.474 296.567 339.502 290.595 339.502 283.228Z" fill="black"/>
<path d="M339.502 369.937C339.502 362.569 345.474 356.597 352.842 356.597H741.222C748.59 356.597 754.562 362.569 754.562 369.937C754.562 377.304 748.59 383.276 741.222 383.276H352.842C345.474 383.276 339.502 377.304 339.502 369.937Z" fill="#CECECE"/>
<path d="M339.502 456.646C339.502 449.278 345.474 443.306 352.842 443.306H741.222C748.59 443.306 754.562 449.278 754.562 456.646C754.562 464.013 748.59 469.985 741.222 469.985H352.842C345.474 469.985 339.502 464.013 339.502 456.646Z" fill="#CECECE"/>
<path d="M339.502 543.354C339.502 535.987 345.474 530.015 352.842 530.015H741.222C748.59 530.015 754.562 535.987 754.562 543.354C754.562 550.722 748.59 556.694 741.222 556.694H352.842C345.474 556.694 339.502 550.722 339.502 543.354Z" fill="#CECECE"/>
<path fill-rule="evenodd" clip-rule="evenodd" d="M190.85 364.043V781.804C190.85 818.641 220.712 848.503 257.549 848.503H661.297C726.195 848.503 752.87 765.221 700.048 727.516L190.85 364.043Z" fill="url(#paint2_linear_4573_24013)"/>
<path fill-rule="evenodd" clip-rule="evenodd" d="M913.168 364.045V781.805C913.168 818.642 883.306 848.504 846.469 848.504H253.164L913.168 364.045Z" fill="#776BFF"/>
<path fill-rule="evenodd" clip-rule="evenodd" d="M914.533 370.324L278.068 848.504H251.504L906.707 359.546L914.533 370.324Z" fill="black"/>
<path d="M51.7475 663.595L51.7482 663.595C67.0712 673.484 77.0535 687.149 82.1366 704.673C82.9974 707.682 86.1399 709.413 89.1443 708.534L89.1464 708.533C92.129 707.656 93.863 704.506 92.9843 701.501C87.1258 681.306 75.545 665.473 57.8572 654.053L51.7475 663.595ZM51.7475 663.595C49.13 661.904 48.3643 658.398 50.0521 655.765M51.7475 663.595L50.0521 655.765M50.0521 655.765C51.7275 653.126 55.2325 652.358 57.8568 654.053L50.0521 655.765Z" fill="black" stroke="black" stroke-width="3.33496"/>
<path d="M270.764 710.736L270.765 710.735C274.68 708.734 276.089 704.916 275.729 700.809C275.411 697.042 273.42 692.821 272.336 690.894C270.107 686.927 267.519 683.187 264.65 679.696C278.439 653.267 308.997 642.511 335.991 654.904L335.993 654.905C338.846 656.21 342.186 654.942 343.489 652.105L343.494 652.095L343.494 652.095C344.774 649.259 343.544 645.892 340.694 644.588C309.294 630.171 273.829 641.731 256.481 671.115C253.878 668.74 251.127 666.527 248.265 664.485L248.265 664.485C215.851 641.372 168.48 649.065 132.46 683.074L132.459 683.074C126.666 688.547 122.149 696.543 118.653 705.988C115.151 715.45 112.632 726.48 110.901 738.134M270.764 710.736L112.551 738.379M270.764 710.736C266.164 713.083 262.258 712.921 259.148 711.364L270.764 710.736ZM110.901 738.134L112.551 738.379M110.901 738.134C110.901 738.134 110.901 738.134 110.901 738.134L112.551 738.379M110.901 738.134C107.536 760.786 106.952 785.951 107.155 806.112M112.551 738.379C108.966 762.509 108.551 789.548 108.877 810.306C108.315 808.901 107.741 807.504 107.155 806.112M107.155 806.112C103.331 797.019 99.0265 788.18 94.4415 779.368L94.4414 779.367C92.6882 775.999 90.9373 772.614 89.1816 769.22C68.1997 728.656 46.5227 686.749 11.8332 655.781L11.8285 655.777C9.4903 653.706 5.91925 653.906 3.85306 656.256M107.155 806.112C107.171 807.652 107.191 809.162 107.215 810.64C103.034 800.232 98.1868 790.178 92.9622 780.137L3.85306 656.256M3.85306 656.256L5.10098 657.362M3.85306 656.256L10.7227 657.025C9.06647 655.558 6.5502 655.709 5.10098 657.362M3.85306 656.256C3.85107 656.258 3.84909 656.26 3.84711 656.263L5.10098 657.362M3.85306 656.256L5.43555 663.015C3.79523 661.549 3.63583 659.015 5.10098 657.362M3.85306 656.256C1.77454 658.601 2.0043 662.185 4.32449 664.258L4.32492 664.259C37.5737 693.947 58.3508 734.168 78.7963 773.747C80.6732 777.38 82.5473 781.008 84.428 784.622L85.8699 783.872L84.428 784.622C91.4314 798.077 97.7119 811.502 102.563 825.805L102.564 825.808C102.752 826.357 102.939 826.904 103.126 827.45C104.408 831.189 105.67 834.869 106.741 838.626M3.85306 656.256L106.741 838.626M252.679 703.504L252.679 703.505C254.005 707.043 256.181 709.88 259.147 711.363L252.679 703.504ZM252.679 703.504C251.414 700.127 250.906 695.961 250.853 692.012C250.805 688.447 251.127 684.945 251.662 682.188C248.605 679.089 245.276 676.264 241.726 673.734C213.776 653.813 172.381 660.95 140.196 691.338M252.679 703.504L140.196 691.338M117.774 840.577C117.729 838.962 117.646 836.84 117.547 834.287C116.883 817.212 115.47 780.846 119.335 747.837L117.774 840.577ZM117.774 840.577C117.854 843.643 117.567 845.463 117.408 845.826M117.774 840.577L117.408 845.826M140.196 691.338C134.804 696.43 130.697 704.449 127.583 714.375C124.477 724.272 122.41 735.897 120.991 748.03L120.991 748.031C117.143 780.893 118.549 817.104 119.213 834.203C119.312 836.767 119.395 838.901 119.441 840.53L119.441 840.534C119.482 842.125 119.429 843.413 119.341 844.368C119.297 844.845 119.243 845.25 119.185 845.576C119.137 845.848 119.064 846.194 118.942 846.479C117.896 848.969 115.954 849.659 114.726 849.893L114.718 849.894L114.709 849.896C112.977 850.207 111.537 849.873 110.378 849.269L110.369 849.264C108.789 848.428 107.537 846.963 106.974 844.851L106.971 844.839C106.672 843.684 106.615 842.208 106.647 840.806L106.648 840.797L106.648 840.789C106.657 840.51 106.678 840.234 106.698 839.989C106.702 839.934 106.706 839.88 106.711 839.829C106.726 839.64 106.74 839.474 106.75 839.309C106.762 839.103 106.766 838.942 106.76 838.814C106.76 838.801 106.759 838.789 106.759 838.778C106.756 838.733 106.753 838.699 106.749 838.672C106.745 838.64 106.741 838.626 106.741 838.626M140.196 691.338L106.743 838.633C106.742 838.63 106.741 838.628 106.741 838.626M117.408 845.826C116.659 847.614 115.338 848.079 114.414 848.255M117.408 845.826L114.414 848.255M114.414 848.255C113.076 848.495 112.009 848.239 111.149 847.79M114.414 848.255L111.149 847.79M111.149 847.79C109.987 847.175 109.031 846.092 108.585 844.421M111.149 847.79L108.585 844.421M108.585 844.421C108.346 843.499 108.283 842.214 108.314 840.844L108.585 844.421ZM266.105 702.248C265.006 702.793 264.146 703.056 263.445 702.702C262.569 702.266 262.123 701.241 261.693 700.096C260.921 698.047 260.522 695.523 260.39 692.991C261.099 694.085 261.777 695.203 262.428 696.345M266.105 702.248H264.437C264.437 702.102 264.434 701.869 264.42 701.626C264.409 701.434 264.394 701.274 264.377 701.159M266.105 702.248C266.105 701.912 266.089 701.185 265.993 700.72M266.105 702.248L265.41 700.847L265.993 700.72M264.377 701.159C264.348 701.166 264.32 701.173 264.293 701.178C264.228 701.191 264.187 701.195 264.164 701.196M264.377 701.159C264.526 701.12 264.715 701.052 264.961 700.944L264.364 701.074C264.363 701.07 264.362 701.067 264.361 701.063M264.377 701.159C264.372 701.122 264.367 701.09 264.361 701.063M264.164 701.196C264.173 701.201 264.181 701.205 264.188 701.209L264.197 701.213C264.194 701.212 264.191 701.21 264.188 701.209C264.17 701.201 264.156 701.197 264.148 701.196M264.164 701.196C264.157 701.196 264.152 701.196 264.148 701.196M264.164 701.196C264.1 701.157 263.985 701.061 263.829 700.801C263.642 700.493 263.469 700.081 263.254 699.509L263.254 699.508C262.898 698.564 262.626 697.491 262.428 696.345M264.148 701.196C264.143 701.196 264.14 701.195 264.141 701.195C264.141 701.195 264.143 701.195 264.148 701.196ZM262.428 696.345C262.453 696.388 262.477 696.431 262.502 696.475M262.428 696.345C262.215 695.112 262.088 693.796 262.036 692.467C262.701 693.511 263.34 694.574 263.955 695.657M262.502 696.475C263.067 697.487 263.984 699.332 264.361 701.063M262.502 696.475C262.503 696.476 262.504 696.478 262.505 696.48L263.955 695.657M262.502 696.475C262.501 696.473 262.5 696.472 262.499 696.47L263.955 695.657M263.955 695.657C264.544 696.711 265.563 698.737 265.993 700.72M265.993 700.72L265.407 700.841L265.364 700.754C265.235 700.819 265.117 700.874 265.009 700.923L264.36 701.056C264.36 701.058 264.361 701.061 264.361 701.063" fill="black" stroke="black" stroke-width="3.33496"/>
<path fill-rule="evenodd" clip-rule="evenodd" d="M882.768 209.67C886.807 193.294 886.543 177.524 887.027 160.913C887.121 157.669 884.565 154.972 881.321 154.875C878.076 154.777 875.367 157.337 875.271 160.581C874.812 176.332 875.183 191.32 871.349 206.875C870.573 210.022 872.503 213.207 875.655 213.969C878.805 214.751 881.994 212.816 882.768 209.67Z" fill="black"/>
<path fill-rule="evenodd" clip-rule="evenodd" d="M917.087 241.406C944.491 216.431 970.312 184.304 988.359 151.865C989.933 149.032 988.908 145.455 986.07 143.892C983.232 142.329 979.649 143.345 978.075 146.178C960.624 177.543 935.652 208.615 909.153 232.749C906.758 234.937 906.592 238.65 908.781 241.034C910.97 243.419 914.692 243.594 917.087 241.406Z" fill="black"/>
<path fill-rule="evenodd" clip-rule="evenodd" d="M924.026 268.687C949.09 272.81 974.924 265.775 997.715 255.828C1000.69 254.519 1002.04 251.06 1000.75 248.109C999.444 245.139 995.972 243.791 992.999 245.08C972.243 254.148 948.769 260.87 925.941 257.118C922.738 256.59 919.71 258.76 919.183 261.945C918.654 265.13 920.826 268.159 924.026 268.687Z" fill="black"/>
<path fill-rule="evenodd" clip-rule="evenodd" d="M200.104 151.881C203.675 150.608 207.432 148.917 210.33 146.469C213.772 143.561 215.172 139.815 216.112 135.873C217.318 130.808 217.801 125.412 219.264 120.339C219.806 118.455 220.848 117.743 221.296 117.427C222.426 116.629 223.57 116.415 224.645 116.495C225.919 116.588 227.67 117.07 228.821 119.206C228.986 119.512 229.199 119.978 229.343 120.616C229.447 121.084 229.515 122.547 229.626 123.151C229.903 124.637 230.135 126.122 230.352 127.617C231.077 132.589 231.493 136.813 233.782 141.381C236.887 147.583 239.998 151.378 244.218 153.059C248.298 154.684 253.176 154.378 259.409 153.104C260.002 152.96 260.589 152.837 261.169 152.736C263.917 152.256 266.544 154.06 267.084 156.798C267.624 159.534 265.877 162.2 263.154 162.801C262.586 162.926 262.025 163.045 261.471 163.154C253.049 165.239 243.298 172.681 237.632 179.197C235.885 181.206 233.328 186.823 230.72 190.406C228.795 193.049 226.632 194.792 224.815 195.408C223.598 195.822 222.572 195.759 221.725 195.549C220.493 195.245 219.471 194.578 218.687 193.517C218.26 192.937 217.864 192.159 217.675 191.165C217.585 190.687 217.575 189.472 217.577 188.922C217.045 187.094 216.395 185.308 215.921 183.463C214.79 179.061 212.571 176.274 209.936 172.592C207.471 169.146 204.824 166.981 200.943 165.253C200.438 165.13 196.365 164.133 194.926 163.56C192.824 162.721 191.823 161.315 191.46 160.558C190.842 159.273 190.778 158.15 190.901 157.215C191.084 155.833 191.704 154.651 192.804 153.697C193.485 153.104 194.503 152.527 195.866 152.246C196.919 152.026 199.712 151.899 200.104 151.881ZM224.003 144.706C224.191 145.127 224.393 145.549 224.606 145.976C229.154 155.06 234.239 160.131 240.421 162.592L240.628 162.672C236.493 165.742 232.749 169.173 229.888 172.463C228.71 173.818 227.151 176.631 225.466 179.517C223.935 174.54 221.431 171.022 218.283 166.62C215.878 163.261 213.357 160.732 210.26 158.672C212.664 157.438 214.956 155.993 216.953 154.306C220.278 151.497 222.476 148.242 224.003 144.706Z" fill="#CECECE"/>
<defs>
<linearGradient id="paint0_linear_4573_24013" x1="542.9" y1="-18.7978" x2="551.201" y2="1404.2" gradientUnits="userSpaceOnUse">
<stop stop-color="#F2F2F2"/>
<stop offset="1" stop-color="#EFEFEF"/>
</linearGradient>
<linearGradient id="paint1_linear_4573_24013" x1="553.225" y1="186.328" x2="553.225" y2="829.028" gradientUnits="userSpaceOnUse">
<stop stop-color="white"/>
<stop offset="0.71875" stop-color="#EAEAEA"/>
</linearGradient>
<linearGradient id="paint2_linear_4573_24013" x1="190.85" y1="363.266" x2="687.759" y2="920.204" gradientUnits="userSpaceOnUse">
<stop stop-color="#E1DCEB"/>
<stop offset="1" stop-color="#B3AFBA"/>
</linearGradient>
</defs>
</svg>
