<svg width="1002" height="1001" viewBox="0 0 1002 1001" fill="none" xmlns="http://www.w3.org/2000/svg">
<path d="M482.912 876.851C694.286 876.851 865.639 707.382 865.639 498.333C865.639 289.283 694.286 119.814 482.912 119.814C271.538 119.814 100.186 289.283 100.186 498.333C100.186 707.382 271.538 876.851 482.912 876.851Z" fill="url(#paint0_linear_4573_24016)"/>
<path fill-rule="evenodd" clip-rule="evenodd" d="M813.12 739.624C816.608 738.395 820.278 736.761 823.109 734.396C826.47 731.587 827.837 727.969 828.755 724.161C829.934 719.268 830.405 714.056 831.834 709.156C832.363 707.336 833.382 706.648 833.819 706.343C834.923 705.572 836.039 705.366 837.09 705.443C838.335 705.532 840.044 705.998 841.169 708.062C841.329 708.357 841.538 708.807 841.678 709.424C841.78 709.876 841.846 711.289 841.955 711.872C842.225 713.307 842.452 714.742 842.664 716.186C843.372 720.989 843.779 725.069 846.014 729.482C849.046 735.473 852.085 739.138 856.206 740.762C860.191 742.332 864.956 742.036 871.043 740.805C871.623 740.667 872.196 740.548 872.763 740.45C875.447 739.987 878.013 741.729 878.54 744.374C879.067 747.016 877.361 749.591 874.701 750.172C874.146 750.293 873.599 750.408 873.058 750.513C864.832 752.527 855.308 759.716 849.774 766.01C848.068 767.951 845.571 773.376 843.023 776.838C841.143 779.391 839.03 781.074 837.256 781.669C836.067 782.069 835.065 782.008 834.237 781.806C833.035 781.512 832.037 780.868 831.271 779.843C830.854 779.282 830.467 778.531 830.283 777.571C830.194 777.109 830.184 775.936 830.186 775.404C829.667 773.638 829.032 771.913 828.569 770.131C827.464 765.879 825.298 763.187 822.724 759.63C820.316 756.302 817.731 754.21 813.94 752.541C813.447 752.422 809.468 751.459 808.063 750.906C806.011 750.095 805.033 748.737 804.678 748.005C804.074 746.764 804.012 745.68 804.133 744.776C804.311 743.442 804.916 742.3 805.991 741.378C806.656 740.805 807.65 740.248 808.981 739.977C810.01 739.764 812.738 739.642 813.12 739.624ZM836.462 732.693C836.647 733.1 836.843 733.508 837.052 733.92C841.494 742.694 846.461 747.593 852.498 749.97L852.701 750.047C848.662 753.013 845.005 756.328 842.211 759.505C841.061 760.814 839.537 763.532 837.892 766.319C836.396 761.512 833.951 758.114 830.876 753.861C828.527 750.616 826.065 748.174 823.041 746.184C825.388 744.992 827.627 743.597 829.577 741.967C832.824 739.253 834.971 736.109 836.462 732.693Z" fill="#CECECE"/>
<ellipse cx="48.8235" cy="424.572" rx="18.1262" ry="17.9269" fill="#CECECE"/>
<path d="M176.492 227.691L176.492 227.69C174.046 226.128 173.32 222.873 174.906 220.425C176.475 217.981 179.741 217.281 182.183 218.841C198.237 229.092 208.755 243.311 214.074 261.447C214.902 264.248 213.263 267.161 210.488 267.969L210.486 267.969C207.698 268.776 204.759 267.193 203.949 264.395C199.357 248.738 190.341 236.529 176.492 227.691Z" fill="black" stroke="black" stroke-width="3.33496"/>
<path d="M375.037 269.931L375.038 269.931C378.655 268.102 379.956 264.603 379.625 260.864C379.333 257.447 377.513 253.636 376.528 251.905L375.037 269.931ZM375.037 269.931C370.832 272.053 367.247 271.912 364.384 270.493C361.653 269.143 359.657 266.563 358.444 263.362L358.444 263.361M375.037 269.931L358.444 263.361M255.657 251.308C245.342 260.944 240.379 281.179 237.797 303.012C234.295 332.585 235.576 365.166 236.177 380.464C236.267 382.751 236.342 384.652 236.383 386.099L255.657 251.308ZM255.657 251.308L256.795 252.527C256.795 252.527 256.795 252.527 256.795 252.527L255.657 251.308ZM358.444 263.361C357.287 260.307 356.826 256.551 356.778 253.001M358.444 263.361L356.778 253.001M370.751 262.169C369.755 262.657 368.976 262.893 368.342 262.576C367.548 262.185 367.144 261.267 366.755 260.241C366.089 258.493 365.729 256.359 365.593 254.201C366.204 255.144 366.79 256.107 367.354 257.089C367.483 257.318 367.632 257.593 367.789 257.902M370.751 262.169H369.083C369.083 262.041 369.08 261.836 369.068 261.623C369.058 261.44 369.043 261.296 369.028 261.202C369.027 261.196 369.027 261.191 369.026 261.185C369.023 261.171 369.021 261.158 369.019 261.147C369.012 261.116 369.005 261.085 368.998 261.054C368.989 261.053 368.984 261.053 368.984 261.053C368.984 261.053 368.989 261.053 368.997 261.052C368.994 261.036 368.99 261.02 368.986 261.004M370.751 262.169C370.751 261.868 370.736 261.217 370.65 260.8M370.751 262.169L370.135 260.913L370.65 260.8M368.986 261.004C368.943 260.959 368.887 260.888 368.819 260.776C368.659 260.516 368.508 260.16 368.314 259.649L368.313 259.647C368.108 259.11 367.934 258.523 367.789 257.902M368.986 261.004C369.004 261.023 369.019 261.038 369.033 261.048C369.046 261.047 369.062 261.044 369.082 261.04C369.266 261.003 369.555 260.899 370.017 260.672L370.132 260.908L370.65 260.8M368.986 261.004C368.725 259.91 368.229 258.774 367.789 257.902M367.789 257.902C367.717 257.596 367.652 257.28 367.594 256.958L368.803 256.264M368.803 256.264C368.299 255.385 367.776 254.52 367.234 253.67C367.288 254.797 367.405 255.909 367.592 256.948L368.803 256.264ZM368.803 256.264C369.337 257.208 370.26 259.024 370.65 260.8M356.778 253.001C356.735 249.838 357.019 246.728 357.495 244.258L356.778 253.001ZM231.651 294.539L230.002 294.292C231.571 283.842 233.855 273.947 237.034 265.454C240.206 256.977 244.31 249.786 249.584 244.859L249.585 244.858C282.252 214.355 325.238 207.432 354.674 228.19L354.675 228.191C357.223 229.989 359.675 231.935 361.998 234.021C377.792 207.739 409.929 197.432 438.378 210.35C441.036 211.553 442.201 214.674 440.995 217.315L440.995 217.315L440.991 217.325C439.768 219.956 436.652 221.114 434.002 219.915L433.999 219.914C409.649 208.857 382.102 218.426 369.627 241.942C372.2 245.049 374.524 248.376 376.528 251.904L231.651 294.539ZM226.654 358.877C226.631 357.428 226.613 355.944 226.599 354.43C227.184 355.793 227.757 357.162 228.316 358.538C228.341 360.17 228.371 361.76 228.405 363.302C227.837 361.818 227.253 360.344 226.654 358.877ZM133.068 220.849C133.069 220.848 133.07 220.847 133.071 220.845C133.072 220.844 133.073 220.843 133.074 220.842L134.316 221.955L133.068 220.849ZM226.24 384.409C226.239 384.406 226.238 384.403 226.237 384.399C226.237 384.398 226.237 384.4 226.238 384.403L227.842 383.948L226.24 384.409ZM237.587 391.452C237.586 391.454 237.584 391.457 237.583 391.459C237.581 391.465 237.578 391.471 237.576 391.477L236.051 390.802L237.587 391.452ZM348.583 236.77C348.583 236.77 348.583 236.77 348.583 236.77L349.544 235.407L348.583 236.77Z" fill="black" stroke="black" stroke-width="3.33496"/>
<rect x="306.273" y="316.2" width="658.843" height="234.893" rx="80.0391" fill="black"/>
<rect x="578.242" y="397.064" width="222.168" height="30.8056" rx="15.4028" fill="#6355FF"/>
<rect x="363.736" y="443.273" width="437.795" height="30.8056" rx="15.4028" fill="white"/>
<ellipse cx="880.856" cy="435.572" rx="38.3048" ry="38.5071" fill="#776BFF"/>
<rect x="30.6973" y="512.586" width="658.843" height="234.893" rx="80.0391" fill="#776BFF"/>
<rect x="195.414" y="593.45" width="222.168" height="30.8056" rx="15.4028" fill="black"/>
<rect x="195.414" y="639.659" width="437.795" height="30.8057" rx="15.4028" fill="white"/>
<ellipse cx="126.467" cy="631.957" rx="38.3048" ry="38.5071" fill="#6355FF"/>
<defs>
<linearGradient id="paint0_linear_4573_24016" x1="479.962" y1="-3.44033" x2="487.631" y2="1325.86" gradientUnits="userSpaceOnUse">
<stop stop-color="#F2F2F2"/>
<stop offset="1" stop-color="#EFEFEF"/>
</linearGradient>
</defs>
</svg>
