<svg width="1002" height="1001" viewBox="0 0 1002 1001" fill="none" xmlns="http://www.w3.org/2000/svg">
<g clip-path="url(#clip0_4573_24019)">
<path d="M500.865 896.86C721.887 896.86 901.061 717.687 901.061 496.665C901.061 275.643 721.887 96.4697 500.865 96.4697C279.843 96.4697 100.67 275.643 100.67 496.665C100.67 717.687 279.843 896.86 500.865 896.86Z" fill="url(#paint0_linear_4573_24019)"/>
<g filter="url(#filter0_d_4573_24019)">
<rect x="297.432" y="211.715" width="415.326" height="517.015" rx="53.3594" fill="url(#paint1_linear_4573_24019)"/>
</g>
<rect x="334.117" y="278.414" width="166.748" height="32.6826" rx="16.3413" fill="black"/>
<rect x="334.117" y="371.126" width="333.496" height="32.6826" rx="16.3413" fill="#CECECE"/>
<rect x="334.117" y="463.838" width="333.496" height="32.6826" rx="16.3413" fill="#CECECE"/>
<rect x="334.117" y="556.55" width="333.496" height="32.6826" rx="16.3413" fill="#CECECE"/>
<rect x="334.117" y="649.262" width="333.496" height="32.6826" rx="16.3413" fill="#CECECE"/>
<g filter="url(#filter1_d_4573_24019)">
<path d="M961.59 154.578H761.224C751.887 154.578 744.318 162.543 744.318 172.369V271.481C744.318 281.307 751.887 289.273 761.224 289.273H961.59C970.927 289.273 978.496 281.307 978.496 271.481V172.369C978.496 162.543 970.927 154.578 961.59 154.578Z" fill="white"/>
</g>
<path d="M794.344 243.208C805.395 243.208 814.354 234.249 814.354 223.198C814.354 212.147 805.395 203.188 794.344 203.188C783.293 203.188 774.334 212.147 774.334 223.198C774.334 234.249 783.293 243.208 794.344 243.208Z" fill="#6355FF"/>
<rect x="841.033" y="203.188" width="106.719" height="40.0195" rx="20.0098" fill="#CECECE"/>
<path fill-rule="evenodd" clip-rule="evenodd" d="M617.951 752.001C660.905 752.001 700.824 739.007 733.993 716.737L869.724 846.305L918.949 789.193L787.974 664.165C812.163 630.124 826.386 588.506 826.386 543.565C826.386 428.45 733.066 335.13 617.951 335.13C502.835 335.13 409.516 428.45 409.516 543.565C409.516 658.681 502.835 752.001 617.951 752.001ZM795.741 543.566C795.741 641.024 716.736 720.03 619.278 720.03C521.819 720.03 442.814 641.024 442.814 543.566C442.814 446.108 521.819 367.103 619.278 367.103C716.736 367.103 795.741 446.108 795.741 543.566Z" fill="#6355FF"/>
<g filter="url(#filter2_b_4573_24019)">
<path d="M619.255 723.442C719.636 723.442 801.011 642.814 801.011 543.354C801.011 443.894 719.636 363.266 619.255 363.266C518.875 363.266 437.5 443.894 437.5 543.354C437.5 642.814 518.875 723.442 619.255 723.442Z" fill="white" fill-opacity="0.3"/>
</g>
<path d="M650.681 543.354L694.665 499.54C698.786 495.205 701.044 489.444 700.959 483.482C700.874 477.519 698.453 471.824 694.21 467.607C689.968 463.391 684.238 460.984 678.239 460.9C672.239 460.816 666.443 463.06 662.082 467.155L617.999 510.969L574.015 467.155C571.898 464.929 569.354 463.147 566.533 461.915C563.711 460.683 560.67 460.026 557.588 459.982C554.507 459.939 551.448 460.51 548.592 461.662C545.737 462.814 543.143 464.524 540.964 466.69C538.785 468.856 537.065 471.434 535.905 474.272C534.746 477.11 534.172 480.15 534.215 483.213C534.259 486.276 534.92 489.299 536.16 492.103C537.399 494.907 539.192 497.436 541.432 499.54L585.49 543.354L541.432 587.168C539.192 589.272 537.399 591.801 536.16 594.605C534.92 597.409 534.259 600.432 534.215 603.495C534.172 606.558 534.746 609.598 535.905 612.436C537.065 615.274 538.785 617.852 540.964 620.018C543.143 622.184 545.737 623.894 548.592 625.046C551.448 626.198 554.507 626.769 557.588 626.726C560.67 626.682 563.711 626.025 566.533 624.793C569.354 623.561 571.898 621.779 574.015 619.553L618.098 575.739L662.181 619.553C666.583 623.407 672.298 625.447 678.162 625.258C684.025 625.07 689.596 622.666 693.738 618.536C697.88 614.407 700.282 608.863 700.454 603.035C700.626 597.207 698.556 591.532 694.665 587.168L650.681 543.354Z" fill="black"/>
<path d="M869.717 846.311L918.942 789.199L926.356 796.277C933.549 803.144 937.856 812.737 938.329 822.946C938.802 833.155 935.402 843.143 928.877 850.714C922.352 858.285 913.236 862.817 903.535 863.315C893.835 863.812 884.343 860.234 877.15 853.367L869.735 846.289L869.717 846.311Z" fill="#776BFF"/>
<path fill-rule="evenodd" clip-rule="evenodd" d="M188.429 303.81C188.366 299.055 187.769 294.258 186.576 289.428C182.392 272.48 163.723 261.599 143.853 259.041C123.991 256.482 103.337 262.304 95.3761 277.047C90.8227 285.476 90.1947 292.741 92.0553 298.866C93.908 304.958 98.304 310.009 104.27 313.945C120.906 324.908 150.04 327.146 163.331 322.563C169.478 320.439 175.483 317.881 181.332 314.954C177.987 334.116 165.528 352.27 148.901 368.628C112.765 404.181 56.6884 431.166 26.1497 441.088C24.509 441.621 23.5982 443.441 24.1085 445.155C24.6188 446.868 26.3616 447.828 28.0024 447.295C59.1455 437.176 116.313 409.618 153.164 373.359C172.202 354.631 185.767 333.55 188.083 311.387C231.12 287.37 266.463 243.798 296.68 207.129C297.803 205.776 297.653 203.718 296.35 202.546C295.047 201.381 293.084 201.529 291.962 202.89C262.977 238.058 229.338 279.892 188.429 303.81ZM182.172 307.295C182.407 301.949 181.905 296.521 180.547 291.044C176.927 276.375 160.292 267.699 143.092 265.486C132.548 264.133 121.707 265.248 113.205 269.216C107.858 271.709 103.454 275.325 100.801 280.245C97.3149 286.698 96.5612 292.216 97.99 296.898C99.4188 301.613 102.968 305.401 107.592 308.443C122.751 318.438 149.278 320.562 161.376 316.389C168.512 313.929 175.436 310.862 182.172 307.295Z" fill="black"/>
<circle cx="951.086" cy="613.388" r="20.0098" fill="#CECECE"/>
<path fill-rule="evenodd" clip-rule="evenodd" d="M195.332 751.438C198.903 750.099 202.661 748.319 205.559 745.742C209 742.682 210.4 738.74 211.34 734.591C212.547 729.261 213.029 723.583 214.492 718.243C215.034 716.261 216.077 715.511 216.524 715.179C217.655 714.339 218.798 714.114 219.873 714.198C221.148 714.295 222.899 714.803 224.05 717.051C224.214 717.373 224.427 717.863 224.571 718.535C224.676 719.028 224.743 720.567 224.854 721.202C225.131 722.766 225.363 724.33 225.581 725.902C226.305 731.136 226.722 735.58 229.01 740.388C232.115 746.915 235.227 750.909 239.446 752.678C243.526 754.388 248.404 754.066 254.637 752.725C255.23 752.574 255.817 752.444 256.398 752.339C259.146 751.833 261.773 753.732 262.313 756.613C262.852 759.492 261.106 762.297 258.383 762.93C257.814 763.062 257.254 763.187 256.7 763.302C248.277 765.496 238.527 773.328 232.86 780.185C231.114 782.3 228.557 788.211 225.948 791.982C224.023 794.764 221.86 796.598 220.044 797.246C218.827 797.682 217.801 797.615 216.953 797.395C215.722 797.075 214.7 796.373 213.916 795.256C213.489 794.645 213.093 793.827 212.904 792.781C212.814 792.278 212.803 790.999 212.805 790.421C212.274 788.496 211.623 786.617 211.149 784.675C210.018 780.043 207.8 777.11 205.165 773.235C202.7 769.608 200.053 767.33 196.172 765.511C195.667 765.382 191.593 764.332 190.154 763.729C188.053 762.846 187.051 761.367 186.688 760.57C186.07 759.218 186.007 758.036 186.13 757.051C186.313 755.598 186.932 754.354 188.032 753.349C188.714 752.725 189.732 752.118 191.094 751.822C192.147 751.591 194.94 751.457 195.332 751.438ZM219.231 743.887C219.42 744.33 219.621 744.775 219.834 745.224C224.382 754.783 229.468 760.12 235.649 762.71L235.857 762.794C231.721 766.025 227.978 769.637 225.117 773.099C223.939 774.524 222.379 777.485 220.694 780.522C219.163 775.285 216.66 771.583 213.511 766.95C211.106 763.414 208.586 760.753 205.489 758.585C207.892 757.287 210.185 755.766 212.181 753.991C215.506 751.034 217.704 747.608 219.231 743.887Z" fill="#6355FF"/>
</g>
<defs>
<filter id="filter0_d_4573_24019" x="267.432" y="201.715" width="475.326" height="577.015" filterUnits="userSpaceOnUse" color-interpolation-filters="sRGB">
<feFlood flood-opacity="0" result="BackgroundImageFix"/>
<feColorMatrix in="SourceAlpha" type="matrix" values="0 0 0 0 0 0 0 0 0 0 0 0 0 0 0 0 0 0 127 0" result="hardAlpha"/>
<feOffset dy="20"/>
<feGaussianBlur stdDeviation="15"/>
<feComposite in2="hardAlpha" operator="out"/>
<feColorMatrix type="matrix" values="0 0 0 0 0.570833 0 0 0 0 0.570833 0 0 0 0 0.570833 0 0 0 0.19 0"/>
<feBlend mode="normal" in2="BackgroundImageFix" result="effect1_dropShadow_4573_24019"/>
<feBlend mode="normal" in="SourceGraphic" in2="effect1_dropShadow_4573_24019" result="shape"/>
</filter>
<filter id="filter1_d_4573_24019" x="720.974" y="124.563" width="320.887" height="221.404" filterUnits="userSpaceOnUse" color-interpolation-filters="sRGB">
<feFlood flood-opacity="0" result="BackgroundImageFix"/>
<feColorMatrix in="SourceAlpha" type="matrix" values="0 0 0 0 0 0 0 0 0 0 0 0 0 0 0 0 0 0 127 0" result="hardAlpha"/>
<feOffset dx="20.0098" dy="13.3398"/>
<feGaussianBlur stdDeviation="21.6772"/>
<feComposite in2="hardAlpha" operator="out"/>
<feColorMatrix type="matrix" values="0 0 0 0 0.104618 0 0 0 0 0.465612 0 0 0 0 0.545833 0 0 0 0.09 0"/>
<feBlend mode="normal" in2="BackgroundImageFix" result="effect1_dropShadow_4573_24019"/>
<feBlend mode="normal" in="SourceGraphic" in2="effect1_dropShadow_4573_24019" result="shape"/>
</filter>
<filter id="filter2_b_4573_24019" x="429.5" y="355.266" width="379.512" height="376.176" filterUnits="userSpaceOnUse" color-interpolation-filters="sRGB">
<feFlood flood-opacity="0" result="BackgroundImageFix"/>
<feGaussianBlur in="BackgroundImage" stdDeviation="4"/>
<feComposite in2="SourceAlpha" operator="in" result="effect1_backgroundBlur_4573_24019"/>
<feBlend mode="normal" in="SourceGraphic" in2="effect1_backgroundBlur_4573_24019" result="shape"/>
</filter>
<linearGradient id="paint0_linear_4573_24019" x1="497.78" y1="-33.8437" x2="505.978" y2="1371.58" gradientUnits="userSpaceOnUse">
<stop stop-color="#F2F2F2"/>
<stop offset="1" stop-color="#EFEFEF"/>
</linearGradient>
<linearGradient id="paint1_linear_4573_24019" x1="505.095" y1="211.715" x2="505.095" y2="728.73" gradientUnits="userSpaceOnUse">
<stop stop-color="white"/>
<stop offset="0.71875" stop-color="#FAFAFA"/>
</linearGradient>
<clipPath id="clip0_4573_24019">
<rect width="1000.49" height="1000.49" fill="white" transform="translate(0.867188)"/>
</clipPath>
</defs>
</svg>
