<svg width="12" height="12" viewBox="0 0 12 12" fill="none" xmlns="http://www.w3.org/2000/svg">
<path fill-rule="evenodd" clip-rule="evenodd" d="M1 6.00751C1 3.37356 3.105 1 6.01 1C8.85 1 11 3.32849 11 5.99249C11 9.08212 8.48 11 6 11C5.18 11 4.27 10.7797 3.54 10.349C3.285 10.1938 3.07 10.0786 2.795 10.1688L1.785 10.4692C1.53 10.5493 1.3 10.349 1.375 10.0786L1.71 8.95694C1.765 8.8017 1.755 8.63645 1.675 8.50626C1.245 7.71507 1 6.84877 1 6.00751ZM5.35 6.00751C5.35 6.36304 5.635 6.64847 5.99 6.65348C6.345 6.65348 6.63 6.36304 6.63 6.01252C6.63 5.65699 6.345 5.37156 5.99 5.37156C5.64 5.36655 5.35 5.65699 5.35 6.00751ZM7.655 6.01252C7.655 6.36304 7.94 6.65348 8.295 6.65348C8.65 6.65348 8.935 6.36304 8.935 6.01252C8.935 5.65699 8.65 5.37156 8.295 5.37156C7.94 5.37156 7.655 5.65699 7.655 6.01252ZM3.685 6.65348C3.335 6.65348 3.045 6.36304 3.045 6.01252C3.045 5.65699 3.33 5.37156 3.685 5.37156C4.04 5.37156 4.325 5.65699 4.325 6.01252C4.325 6.36304 4.04 6.64847 3.685 6.65348Z" fill="#EAEAEA"/>
</svg>
