<svg width="12" height="12" viewBox="0 0 12 12" fill="none" xmlns="http://www.w3.org/2000/svg">
<path fill-rule="evenodd" clip-rule="evenodd" d="M7.92501 1.25035C8.24051 1.25035 8.55551 1.29485 8.85501 1.39535C10.7005 1.99535 11.3655 4.02035 10.81 5.79036C10.495 6.69486 9.98001 7.52036 9.30551 8.19486C8.34001 9.12986 7.28051 9.95986 6.14001 10.6749L6.01501 10.7504L5.88501 10.6699C4.74051 9.95986 3.67501 9.12986 2.70051 8.18986C2.03051 7.51536 1.51501 6.69486 1.19501 5.79036C0.630008 4.02035 1.29501 1.99535 3.16051 1.38485C3.30551 1.33485 3.45501 1.29985 3.60501 1.28035H3.66501C3.80551 1.25985 3.94501 1.25035 4.08501 1.25035H4.14001C4.45501 1.25985 4.76001 1.31485 5.05551 1.41535H5.08501C5.10501 1.42485 5.12001 1.43535 5.13001 1.44485C5.24051 1.48035 5.34501 1.52035 5.44501 1.57535L5.63501 1.66035C5.68092 1.68484 5.73245 1.72226 5.77699 1.75459C5.80521 1.77508 5.83062 1.79353 5.85001 1.80535C5.85817 1.81017 5.86646 1.81501 5.87482 1.81989C5.91769 1.84492 5.96235 1.87098 6.00001 1.89985C6.55551 1.47535 7.23001 1.24535 7.92501 1.25035ZM9.25501 4.85035C9.46001 4.84485 9.63501 4.68035 9.65001 4.46985V4.41035C9.66501 3.70985 9.24051 3.07535 8.59501 2.83035C8.39001 2.75985 8.16501 2.87035 8.09001 3.08035C8.02001 3.29035 8.13001 3.52035 8.34001 3.59485C8.66051 3.71485 8.87501 4.03035 8.87501 4.37985V4.39535C8.86551 4.50985 8.90001 4.62035 8.97001 4.70535C9.04001 4.79035 9.14501 4.83985 9.25501 4.85035Z" fill="#EAEAEA"/>
</svg>
