<svg width="24" height="24" viewBox="0 0 24 24" fill="none" xmlns="http://www.w3.org/2000/svg">
<path d="M12.4166 6C11.6838 6 10.9495 6.1069 10.3669 6.33202L3.78954 8.87733C3.49855 8.98978 3.26673 9.11923 3.10123 9.27571C2.95025 9.4185 2.8573 9.5929 2.84117 9.7774C2.84098 9.78 2.84137 9.78236 2.84117 9.78472C2.83752 9.79678 2.83498 9.80913 2.83359 9.82162C2.83356 9.82422 2.83359 9.82658 2.83359 9.82894C2.83354 9.83138 2.83354 9.83382 2.83359 9.83626V12.5735H2.29822H2.22937H2.22178C2.158 12.5735 2.12474 12.5858 2.08412 12.6178C2.04349 12.6497 2 12.7155 2 12.7875V16.3288V16.4174L2.06882 16.4764L2.08399 16.4618C2.10455 16.4821 2.11875 16.5125 2.13752 16.5208C2.18402 16.5411 2.2293 16.543 2.2293 16.543H2.32874L2.39758 16.4692L3.04002 15.7167L3.6901 16.4692L3.75129 16.543H3.85836H3.88137L3.90437 16.5357C3.97484 16.522 4.0439 16.4625 4.06497 16.4176C4.08602 16.3728 4.08039 16.3291 4.08039 16.3291V12.7877C4.08039 12.7876 4.08333 12.7564 4.08039 12.7435C4.07746 12.7305 4.06987 12.7173 4.06497 12.7066C4.05592 12.6851 4.04319 12.6662 4.02675 12.6475C3.99402 12.6102 3.93313 12.5738 3.85849 12.5738H3.27723V10.5227C3.41959 10.6224 3.58819 10.7104 3.78964 10.7883L6.48179 11.8286V14.7871C6.48179 15.1538 6.68311 15.4897 7.00186 15.7683C7.32066 16.0469 7.7598 16.2865 8.29441 16.484C9.36363 16.8788 10.8147 17.1111 12.4168 17.1111C14.0189 17.1111 15.469 16.8788 16.5392 16.484C17.0744 16.2866 17.5202 16.0469 17.8394 15.7683C18.1586 15.4898 18.3595 15.1539 18.3595 14.7871V11.8286L21.0516 10.7883C21.3427 10.6758 21.5668 10.539 21.7323 10.3825C21.8978 10.226 22 10.0338 22 9.82918C22 9.62451 21.8978 9.43236 21.7323 9.27583C21.5668 9.11932 21.3427 8.98987 21.0516 8.87744L14.4666 6.33213C13.8841 6.10702 13.1498 6.00012 12.4169 6.00012L12.4166 6Z" fill="#CECECE"/>
</svg>
