<svg width="261" height="64" viewBox="0 0 261 64" fill="none" xmlns="http://www.w3.org/2000/svg">
<path d="M32.6145 58.4862C23.1074 56.1558 14.7166 50.5443 8.90675 42.6311C3.09687 34.718 0.236894 25.0057 0.82603 15.1897C0.843416 14.8979 0.864019 14.606 0.88784 14.3139C0.968422 13.3094 1.2452 12.3306 1.70235 11.4336C2.15949 10.5366 2.78806 9.73895 3.55211 9.08617C4.31617 8.43338 5.20074 7.9383 6.15528 7.62921C7.10982 7.32011 8.11562 7.20307 9.11519 7.28477C10.1148 7.36646 11.0885 7.64529 11.9808 8.10533C12.8731 8.56536 13.6664 9.19758 14.3155 9.96585C14.9645 10.7341 15.4566 11.6234 15.7635 12.5828C16.0704 13.5423 16.1861 14.5531 16.1041 15.5575C16.0891 15.7437 16.0759 15.9296 16.0647 16.1152C15.6981 22.3906 17.5491 28.5945 21.2909 33.6321C25.0327 38.6697 30.4248 42.2173 36.5159 43.6489C42.607 45.0806 49.0055 44.3043 54.5825 41.457C60.1595 38.6097 64.5566 33.8744 66.9977 28.0866C67.3872 27.1584 67.9548 26.3164 68.6681 25.6086C69.3814 24.9008 70.2264 24.3412 71.1549 23.9616C72.0835 23.582 73.0773 23.3899 74.0797 23.3963C75.0821 23.4026 76.0735 23.6074 76.9971 23.9987C77.9208 24.3901 78.7587 24.9605 79.463 25.6773C80.1674 26.3941 80.7243 27.2433 81.102 28.1764C81.4798 29.1094 81.6709 30.1082 81.6646 31.1155C81.6582 32.1228 81.4545 33.119 81.065 34.0472C77.1946 43.2407 70.1933 50.749 61.3154 55.2271C52.4375 59.7053 42.2629 60.8606 32.6144 58.4862L32.6145 58.4862Z" fill="#776BFF"/>
<path d="M42.2109 35.6107C51.8469 35.6107 59.6584 27.7608 59.6584 18.0775C59.6584 8.39418 51.8469 0.544312 42.2109 0.544312C32.5749 0.544312 24.7634 8.39418 24.7634 18.0775C24.7634 27.7608 32.5749 35.6107 42.2109 35.6107Z" fill="#776BFF"/>
<path d="M139.428 32.2372L121.306 46.9645H139.428V59.6329H103.184V46.9645L121.306 32.2372H103.184V19.5685H139.428V32.2372Z" fill="#776BFF"/>
<path d="M143.368 39.6007C143.368 28.1197 152.538 19.2819 165.539 19.2819C178.54 19.2819 186.546 28.1197 186.546 39.6007C186.546 51.0816 178.707 59.751 165.707 59.751C152.706 59.751 143.368 51.0816 143.368 39.6007ZM173.152 39.6007C173.152 35.2457 170.157 31.4454 165.036 31.4454C159.915 31.4454 156.763 35.2457 156.763 39.6007C156.763 43.9556 159.915 47.7563 165.036 47.7563C170.158 47.7563 173.152 43.9556 173.152 39.6007Z" fill="#776BFF"/>
<path d="M203.882 59.6329H190.487V0.249023H203.882V59.6329Z" fill="#776BFF"/>
<path d="M226.958 19.2819C233.813 19.2819 237.643 22.4191 239.298 26.4569L240.086 19.5685H252.693V59.6329H240.086L239.298 52.7445C237.643 56.7826 233.98 59.751 227.126 59.751C215.701 59.751 207.939 51.0816 207.939 39.6007C207.939 28.1198 215.533 19.2819 226.958 19.2819ZM229.607 47.7563C234.728 47.7563 237.722 43.9556 237.722 39.6007C237.722 35.2457 234.728 31.4454 229.607 31.4454C224.486 31.4454 221.334 35.2457 221.334 39.6007C221.334 43.9556 224.485 47.7563 229.607 47.7563H229.607Z" fill="#776BFF"/>
</svg>
