<svg width="82" height="60" viewBox="0 0 82 60" fill="none" xmlns="http://www.w3.org/2000/svg">
<path d="M32.6145 58.4862C23.1074 56.1558 14.7166 50.5443 8.90675 42.6311C3.09687 34.718 0.236894 25.0057 0.82603 15.1897C0.843416 14.8979 0.864019 14.606 0.88784 14.3139C0.968422 13.3094 1.2452 12.3306 1.70235 11.4336C2.15949 10.5366 2.78806 9.73895 3.55211 9.08617C4.31617 8.43338 5.20074 7.9383 6.15528 7.62921C7.10982 7.32011 8.11562 7.20307 9.11519 7.28477C10.1148 7.36646 11.0885 7.64529 11.9808 8.10533C12.8731 8.56536 13.6664 9.19758 14.3155 9.96585C14.9645 10.7341 15.4566 11.6234 15.7635 12.5828C16.0704 13.5423 16.1861 14.5531 16.1041 15.5575C16.0891 15.7437 16.0759 15.9296 16.0647 16.1152C15.6982 22.3906 17.5491 28.5945 21.2909 33.6321C25.0327 38.6697 30.4248 42.2173 36.5159 43.6489C42.607 45.0806 49.0055 44.3043 54.5825 41.457C60.1595 38.6097 64.5566 33.8744 66.9977 28.0866C67.3872 27.1584 67.9548 26.3164 68.6681 25.6086C69.3814 24.9008 70.2264 24.3412 71.1549 23.9616C72.0835 23.582 73.0773 23.3899 74.0797 23.3963C75.0821 23.4026 76.0735 23.6074 76.9971 23.9987C77.9208 24.3901 78.7587 24.9605 79.463 25.6773C80.1674 26.3941 80.7243 27.2433 81.102 28.1764C81.4798 29.1094 81.6709 30.1082 81.6646 31.1155C81.6582 32.1228 81.4545 33.119 81.065 34.0472C77.1946 43.2407 70.1933 50.749 61.3154 55.2271C52.4375 59.7053 42.2629 60.8606 32.6144 58.4862L32.6145 58.4862Z" fill="#FEFDFF"/>
<path d="M42.2109 35.6107C51.8469 35.6107 59.6584 27.7608 59.6584 18.0775C59.6584 8.39418 51.8469 0.544312 42.2109 0.544312C32.5749 0.544312 24.7634 8.39418 24.7634 18.0775C24.7634 27.7608 32.5749 35.6107 42.2109 35.6107Z" fill="#FEFDFF"/>
</svg>
