<svg id="zola-logo" xmlns="http://www.w3.org/2000/svg" width="24" height="24" viewBox="0 0 24 24" fill="none">
<path d="M10.0707 19.8675C8.16687 19.4014 6.48656 18.2791 5.32309 16.6965C4.15962 15.1138 3.5869 13.1714 3.70487 11.2082C3.70836 11.1498 3.71248 11.0914 3.71725 11.033C3.73339 10.8321 3.78881 10.6364 3.88036 10.457C3.97191 10.2776 4.09778 10.118 4.25079 9.98746C4.4038 9.8569 4.58094 9.75789 4.77209 9.69607C4.96325 9.63425 5.16466 9.61084 5.36483 9.62718C5.56501 9.64352 5.76001 9.69929 5.93869 9.79129C6.11738 9.8833 6.27625 10.0097 6.40623 10.1634C6.5362 10.3171 6.63474 10.4949 6.6962 10.6868C6.75766 10.8787 6.78084 11.0808 6.76441 11.2817C6.7614 11.319 6.75877 11.3561 6.75651 11.3933C6.68312 12.6484 7.05378 13.8891 7.8031 14.8966C8.55242 15.9042 9.63223 16.6137 10.852 16.9C12.0718 17.1863 13.3531 17.0311 14.47 16.4616C15.5868 15.8922 16.4673 14.9451 16.9562 13.7875C17.0342 13.6019 17.1479 13.4335 17.2907 13.2919C17.4335 13.1504 17.6028 13.0385 17.7887 12.9625C17.9747 12.8866 18.1737 12.8482 18.3744 12.8495C18.5752 12.8508 18.7737 12.8917 18.9587 12.97C19.1436 13.0483 19.3114 13.1623 19.4525 13.3057C19.5935 13.449 19.705 13.6189 19.7807 13.8055C19.8563 13.9921 19.8946 14.1919 19.8933 14.3933C19.8921 14.5948 19.8513 14.794 19.7733 14.9797C18.9982 16.8184 17.5961 18.32 15.8183 19.2157C14.0404 20.1113 12.0029 20.3424 10.0707 19.8675L10.0707 19.8675Z" fill="#776BFF" id="zola-logo-spin"/>
<path d="M11.9925 15.6221C13.9222 15.6221 15.4865 14.0522 15.4865 12.1155C15.4865 10.1788 13.9222 8.60886 11.9925 8.60886C10.0628 8.60886 8.49854 10.1788 8.49854 12.1155C8.49854 14.0522 10.0628 15.6221 11.9925 15.6221Z" fill="#776BFF"/>
</svg>