<svg width="24" height="24" viewBox="0 0 24 24" fill="none" xmlns="http://www.w3.org/2000/svg">
<path d="M10.3207 17.6972C8.41687 17.2312 6.73656 16.1089 5.57309 14.5262C4.40962 12.9436 3.8369 11.0011 3.95487 9.03794C3.95836 8.97959 3.96248 8.9212 3.96725 8.86278C3.98339 8.66187 4.03881 8.46613 4.13036 8.28673C4.22191 8.10733 4.34778 7.94779 4.50079 7.81723C4.6538 7.68668 4.83094 7.58766 5.02209 7.52584C5.21325 7.46402 5.41466 7.44061 5.61483 7.45695C5.81501 7.47329 6.01001 7.52906 6.18869 7.62107C6.36738 7.71307 6.52625 7.83952 6.65623 7.99317C6.7862 8.14683 6.88474 8.32468 6.9462 8.51657C7.00766 8.70846 7.03084 8.91062 7.01441 9.11151C7.0114 9.14874 7.00877 9.18592 7.00651 9.22305C6.93312 10.4781 7.30378 11.7189 8.0531 12.7264C8.80242 13.7339 9.88223 14.4435 11.102 14.7298C12.3218 15.0161 13.6031 14.8609 14.72 14.2914C15.8368 13.7219 16.7173 12.7749 17.2062 11.6173C17.2842 11.4317 17.3979 11.2633 17.5407 11.1217C17.6835 10.9802 17.8528 10.8682 18.0387 10.7923C18.2247 10.7164 18.4237 10.678 18.6244 10.6793C18.8252 10.6805 19.0237 10.7215 19.2087 10.7997C19.3936 10.878 19.5614 10.9921 19.7025 11.1355C19.8435 11.2788 19.955 11.4487 20.0307 11.6353C20.1063 11.8219 20.1446 12.0216 20.1433 12.2231C20.1421 12.4246 20.1013 12.6238 20.0233 12.8094C19.2482 14.6481 17.8461 16.1498 16.0683 17.0454C14.2904 17.9411 12.2529 18.1721 10.3207 17.6972L10.3207 17.6972Z" fill="#7B797D"/>
<path d="M12.2425 13.1222C14.1722 13.1222 15.7365 11.5522 15.7365 9.61552C15.7365 7.67886 14.1722 6.10889 12.2425 6.10889C10.3128 6.10889 8.74854 7.67886 8.74854 9.61552C8.74854 11.5522 10.3128 13.1222 12.2425 13.1222Z" fill="#7B797D"/>
</svg>
