<svg width="12" height="12" viewBox="0 0 12 12" fill="none" xmlns="http://www.w3.org/2000/svg">
<path fill-rule="evenodd" clip-rule="evenodd" d="M1 5.99966C1 3.24016 3.24 0.999664 6 0.999664C8.765 0.999664 11 3.24016 11 5.99966C11 8.76016 8.765 10.9997 6 10.9997C3.24 10.9997 1 8.76016 1 5.99966ZM5.56 4.10466C5.56 3.86516 5.76 3.66466 6 3.66466C6.24 3.66466 6.435 3.86516 6.435 4.10466V6.31466C6.435 6.55516 6.24 6.74966 6 6.74966C5.76 6.74966 5.56 6.55516 5.56 6.31466V4.10466ZM6.005 8.34016C5.76 8.34016 5.565 8.14016 5.565 7.90016C5.565 7.66016 5.76 7.46516 6 7.46516C6.245 7.46516 6.44 7.66016 6.44 7.90016C6.44 8.14016 6.245 8.34016 6.005 8.34016Z" fill="#22B573"/>
</svg>
