<svg width="12" height="12" viewBox="0 0 12 12" fill="none" xmlns="http://www.w3.org/2000/svg">
<path d="M6 1C3.23762 1 1 3.23687 1 6C1 8.76238 3.23687 11 6 11C8.76238 11 11 8.76313 11 6C11 3.23762 8.76253 1 6 1V1ZM8.95772 5.08381L5.71427 8.32726C5.4738 8.56773 5.08378 8.56773 4.84331 8.32726L3.08675 6.5707C2.84628 6.33023 2.84628 5.94021 3.08675 5.69974L3.31197 5.47452C3.55245 5.23405 3.94246 5.23405 4.18294 5.47452L5.27912 6.5707L7.86148 3.98835C8.10195 3.74788 8.49197 3.74788 8.73244 3.98835L8.95766 4.21357C9.19813 4.45345 9.19813 4.84406 8.95766 5.08395L8.95772 5.08381Z" fill="#070214"/>
</svg>
