<svg width="24" height="24" viewBox="0 0 24 24" fill="none" xmlns="http://www.w3.org/2000/svg">
<path d="M12 2C6.47524 2 2 6.47374 2 12C2 17.5248 6.47374 22 12 22C17.5248 22 22 17.5263 22 12C22 6.47524 17.5251 2 12 2V2ZM17.9154 10.1676L11.4285 16.6545C10.9476 17.1355 10.1676 17.1355 9.68662 16.6545L6.17351 13.1414C5.69256 12.6605 5.69256 11.8804 6.17351 11.3995L6.62394 10.949C7.10489 10.4681 7.88493 10.4681 8.36587 10.949L10.5582 13.1414L15.7229 7.9767C16.2039 7.49575 16.9839 7.49575 17.4649 7.9767L17.9153 8.42713C18.3963 8.90691 18.3963 9.68812 17.9153 10.1679L17.9154 10.1676Z" fill="#22B573"/>
</svg>
