<svg width="24" height="24" viewBox="0 0 24 24" fill="none" xmlns="http://www.w3.org/2000/svg">
  <path fill-rule="evenodd" clip-rule="evenodd"
    d="M17.7892 6.00019V19.0001C17.7892 19.5513 17.3175 19.9994 16.7362 19.9994H8.4963C8.65123 20.4175 8.90387 20.8019 9.24135 21.1206C9.83245 21.6841 10.6357 22 11.4735 22H18.8422C19.68 22 20.4833 21.6841 21.0744 21.1206C21.6674 20.5591 22 19.796 22 19.0001V9.00011C22 8.2042 21.6674 7.4411 21.0744 6.87957C20.4833 6.31614 19.68 6.00021 18.8422 6.00021L17.7892 6.00019ZM8.31568 17.9998H14.6314C14.9106 17.9998 15.179 17.8948 15.3754 17.7064C15.5738 17.5198 15.6843 17.2648 15.6843 16.9995V4.9999C15.6843 4.20399 15.3517 3.44089 14.7586 2.87935C14.1676 2.31593 13.3643 2 12.5265 2H5.15784C4.32003 2 3.51675 2.31593 2.92565 2.87935C2.33256 3.44089 2 4.20399 2 4.9999V14.9999C2 15.7958 2.33256 16.5589 2.92565 17.1204C3.51675 17.6839 4.32003 17.9998 5.15784 17.9998H8.31568Z"
    fill="#C00748" />
</svg>
