<svg width="24" height="24" viewBox="0 0 24 24" fill="none" xmlns="http://www.w3.org/2000/svg">
<path d="M7.70319 22C9.21197 22 10.6599 21.4008 11.7266 20.3331L14.7992 17.2496L13.3759 15.8263L10.3131 18.9097C9.62254 19.6111 8.68053 20.0079 7.69635 20.0109C6.71308 20.0148 5.76813 19.6258 5.07158 18.9304C4.37613 18.2339 3.98714 17.289 3.99106 16.3056C3.99401 15.3213 4.39084 14.3793 5.0922 13.6889L8.16583 10.6162L6.75233 9.20273L3.66889 12.2683C2.60115 13.3361 2 14.785 2 16.2968C1.99902 17.8075 2.59821 19.2572 3.66595 20.326C4.73368 21.3957 6.18159 21.9978 7.69238 21.9997L7.70319 22Z" fill="#F3F3F3"/>
<path d="M13.7532 5.02789C14.6923 4.13205 16.0331 3.79416 17.2845 4.13992C18.536 4.48568 19.5143 5.46304 19.86 6.7144C20.2068 7.96583 19.8698 9.30674 18.974 10.2457L15.9004 13.3211L17.3139 14.7346L20.3973 11.669C21.798 10.2211 22.3314 8.14073 21.799 6.19767C21.2666 4.25373 19.748 2.73502 17.804 2.20267C15.8611 1.67027 13.7806 2.20365 12.3327 3.60438L9.26709 6.68782L10.6904 8.11115L13.7532 5.02789Z" fill="#F3F3F3"/>
<path d="M7.49365 15.0837L15.1505 7.42688L16.5728 8.84921L8.91598 16.506L7.49365 15.0837Z" fill="#F3F3F3"/>
</svg>
