<svg width="24" height="24" viewBox="0 0 24 24" fill="none" xmlns="http://www.w3.org/2000/svg">
<path d="M11 4.5C11 5.88071 9.88071 7 8.5 7C7.11929 7 6 5.88071 6 4.5C6 3.11929 7.11929 2 8.5 2C9.88071 2 11 3.11929 11 4.5Z" fill="#1192B2"/>
<path d="M18.5 4.5C18.5 5.88071 17.3807 7 16 7C14.6193 7 13.5 5.88071 13.5 4.5C13.5 3.11929 14.6193 2 16 2C17.3807 2 18.5 3.11929 18.5 4.5Z" fill="#1192B2"/>
<path d="M11 12C11 13.3807 9.88071 14.5 8.5 14.5C7.11929 14.5 6 13.3807 6 12C6 10.6193 7.11929 9.5 8.5 9.5C9.88071 9.5 11 10.6193 11 12Z" fill="#1192B2"/>
<path d="M18.5 12C18.5 13.3807 17.3807 14.5 16 14.5C14.6193 14.5 13.5 13.3807 13.5 12C13.5 10.6193 14.6193 9.5 16 9.5C17.3807 9.5 18.5 10.6193 18.5 12Z" fill="#1192B2"/>
<path d="M11 19.5C11 20.8807 9.88071 22 8.5 22C7.11929 22 6 20.8807 6 19.5C6 18.1193 7.11929 17 8.5 17C9.88071 17 11 18.1193 11 19.5Z" fill="#1192B2"/>
<path d="M18.5 19.5C18.5 20.8807 17.3807 22 16 22C14.6193 22 13.5 20.8807 13.5 19.5C13.5 18.1193 14.6193 17 16 17C17.3807 17 18.5 18.1193 18.5 19.5Z" fill="#1192B2"/>
</svg>
