<svg width="12" height="12" viewBox="0 0 12 12" fill="none" xmlns="http://www.w3.org/2000/svg">
<path fill-rule="evenodd" clip-rule="evenodd" d="M4.43887 3.18928C4.43887 4.12261 3.66943 4.87911 2.71944 4.87911C1.77 4.87911 1 4.12261 1 3.18928C1 2.25649 1.77 1.5 2.71944 1.5C3.66943 1.5 4.43887 2.25649 4.43887 3.18928ZM10.2467 2.44916C10.6622 2.44916 11 2.78101 11 3.18928C11 3.59809 10.6622 3.92994 10.2467 3.92994H6.95891C6.5428 3.92994 6.20503 3.59809 6.20503 3.18928C6.20503 2.78101 6.5428 2.44916 6.95891 2.44916H10.2467ZM1.75388 7.97898H5.04164C5.45775 7.97898 5.79553 8.31083 5.79553 8.71964C5.79553 9.12791 5.45775 9.4603 5.04164 9.4603H1.75388C1.33778 9.4603 1 9.12791 1 8.71964C1 8.31083 1.33778 7.97898 1.75388 7.97898ZM9.28057 10.3889C10.2306 10.3889 11 9.6324 11 8.69961C11 7.76627 10.2306 7.00978 9.28057 7.00978C8.33113 7.00978 7.56113 7.76627 7.56113 8.69961C7.56113 9.6324 8.33113 10.3889 9.28057 10.3889Z" fill="#EAEAEA"/>
</svg>
