<svg width="12" height="12" viewBox="0 0 12 12" fill="none" xmlns="http://www.w3.org/2000/svg">
<path d="M2.70468 10.2805C3.35714 10.0375 3.69013 9.30789 3.44676 8.65452C3.38451 8.48738 3.27673 8.33719 3.15944 8.20786L4.00462 6.16277C4.14298 6.16314 4.29087 6.14266 4.41225 6.09744C4.53364 6.05223 4.65889 5.97097 4.7633 5.88017L6.74608 6.8892C6.74198 7.06375 6.75306 7.23266 6.82097 7.41499C7.06434 8.06836 7.79351 8.40235 8.44597 8.15932C9.09844 7.91629 9.43143 7.18666 9.18806 6.53329C9.1258 6.36615 9.01802 6.21597 8.90073 6.08663L9.75542 4.0207C9.89379 4.02107 10.0417 4.00059 10.1782 3.94972C10.8307 3.70669 11.1637 2.97706 10.9203 2.32369C10.677 1.67033 9.94779 1.33633 9.29532 1.57936C8.64286 1.8224 8.30987 2.55202 8.55323 3.20539C8.61549 3.37253 8.72327 3.52272 8.84056 3.65206L8.00104 5.71234C7.86268 5.71197 7.71479 5.73244 7.57823 5.78331C7.44167 5.83418 7.3316 5.90978 7.21201 6.00623L5.22924 4.99721C5.23333 4.82265 5.22226 4.65375 5.15434 4.47142C4.91097 3.81805 4.18181 3.48406 3.52934 3.72709C2.87687 3.97012 2.54389 4.69975 2.78725 5.35311C2.84951 5.52026 2.95729 5.67044 3.07458 5.79978L2.24458 7.83921C2.10621 7.83884 1.95833 7.85932 1.82176 7.91019C1.1693 8.15322 0.836311 8.88285 1.07968 9.53622C1.32305 10.1896 2.05221 10.5236 2.70468 10.2805Z" fill="#EAEAEA"/>
</svg>
