<svg width="12" height="12" viewBox="0 0 12 12" fill="none" xmlns="http://www.w3.org/2000/svg">
<path fill-rule="evenodd" clip-rule="evenodd" d="M1 6.00289C1 3.24313 3.24421 1 6 1C8.75579 1 11 3.24313 11 6.00289C11 8.75687 8.75579 11 6 11C3.24421 11 1 8.75687 1 6.00289ZM7.83398 6.50892C7.88707 6.45586 7.95463 6.37385 7.96911 6.35456C8.04633 6.25326 8.08494 6.12783 8.08494 6.00289C8.08494 5.86252 8.04151 5.73227 7.95946 5.62615C7.95274 5.61942 7.93957 5.6051 7.92241 5.58642C7.89031 5.55148 7.84423 5.50132 7.80019 5.45731C7.40444 5.0328 6.37162 4.33816 5.83108 4.1259C5.74903 4.09262 5.54151 4.01978 5.4305 4.01495C5.32432 4.01495 5.22297 4.03907 5.12645 4.08731C5.00579 4.15485 4.90927 4.26097 4.85618 4.3864C4.82239 4.47323 4.7693 4.73372 4.7693 4.73854C4.71622 5.02315 4.68726 5.48625 4.68726 5.99759C4.68726 6.48529 4.71622 6.92861 4.75965 7.21804C4.76085 7.21924 4.765 7.23993 4.77145 7.27209C4.79106 7.36986 4.8319 7.57353 4.87548 7.65702C4.98166 7.85962 5.18919 7.98505 5.4112 7.98505H5.4305C5.57529 7.98022 5.87934 7.8548 5.87934 7.84998C6.39093 7.63772 7.39961 6.97685 7.80502 6.53787L7.83398 6.50892Z" fill="#EAEAEA"/>
</svg>
