<svg width="12" height="12" viewBox="0 0 12 12" fill="none" xmlns="http://www.w3.org/2000/svg">
<path fill-rule="evenodd" clip-rule="evenodd" d="M3.77309 1.63897C3.85618 1.69895 3.99018 1.83672 3.99018 1.83672C4.51039 2.32429 5.29393 3.53697 5.54555 4.15222C5.55081 4.15222 5.70003 4.51804 5.70588 4.69204V4.71521C5.70588 4.98185 5.55667 5.23128 5.31675 5.35896C5.21784 5.4116 4.97728 5.46056 4.86122 5.48417C4.82278 5.492 4.79799 5.49704 4.79654 5.49852C4.45363 5.55078 3.92757 5.58522 3.35002 5.58522C2.74379 5.58522 2.1949 5.55078 1.85726 5.48664C1.85141 5.48664 1.54303 5.4231 1.44004 5.38212C1.29141 5.31858 1.1656 5.20218 1.08543 5.05727C1.02809 4.94147 1 4.81913 1 4.69204C1.00527 4.55842 1.09129 4.309 1.13108 4.21042C1.3827 3.56013 2.20602 2.31835 2.70926 1.84266C2.76154 1.78961 2.82103 1.73403 2.86242 1.69536C2.88451 1.67472 2.90145 1.6589 2.90939 1.65084C3.0352 1.55226 3.18968 1.5 3.35587 1.5C3.50391 1.5 3.65254 1.54632 3.77309 1.63897ZM9.11431 5.08089C9.11431 5.34279 8.90541 5.55481 8.64735 5.55481C8.38929 5.55481 8.18039 5.34279 8.18039 5.08089L8.05165 2.79148C8.05165 2.45772 8.31849 2.1875 8.64735 2.1875C8.97621 2.1875 9.24246 2.45772 9.24246 2.79148L9.11431 5.08089ZM10.56 6.6178C10.7086 6.68194 10.8344 6.79774 10.9146 6.94265C10.9719 7.05846 11 7.1808 11 7.30848C10.9947 7.44151 10.9087 7.69153 10.8683 7.79012C10.6173 8.43983 9.79339 9.68163 9.29074 10.1579C9.23933 10.2097 9.18094 10.2642 9.13965 10.3027L9.13961 10.3028C9.11653 10.3243 9.09879 10.3408 9.09061 10.3492C8.96422 10.4477 8.81032 10.5 8.64472 10.5C8.4955 10.5 8.34687 10.4537 8.22691 10.3604C8.14382 10.3011 8.00982 10.1633 8.00982 10.1633C7.48902 9.67629 6.70607 8.46299 6.45445 7.84772C6.4486 7.84772 6.29997 7.48249 6.29412 7.30848V7.28532C6.29412 7.01807 6.44275 6.76864 6.68325 6.64096C6.78196 6.58887 7.02176 6.53978 7.13808 6.51597L7.1381 6.51596C7.17693 6.50801 7.202 6.50288 7.20346 6.5014C7.54637 6.44913 8.07243 6.41469 8.64998 6.41469C9.25621 6.41469 9.8051 6.44913 10.1427 6.51327C10.148 6.51327 10.457 6.57682 10.56 6.6178ZM3.35277 6.44526C3.09471 6.44526 2.88581 6.65728 2.88581 6.91917L2.75707 9.20854C2.75707 9.54229 3.0239 9.8125 3.35277 9.8125C3.68163 9.8125 3.94788 9.54229 3.94788 9.20854L3.81973 6.91917C3.81973 6.65728 3.61082 6.44526 3.35277 6.44526Z" fill="#EAEAEA"/>
</svg>
