<svg width="12" height="12" viewBox="0 0 12 12" fill="none" xmlns="http://www.w3.org/2000/svg">
<path d="M2.19965 1L5.14767 1.09509C5.60412 1.13332 6.02234 1.32301 6.34592 1.6465L10.5863 5.88577C11.1379 6.43718 11.1379 7.33078 10.5863 7.88213L7.88582 10.5819C7.6196 10.8481 7.25826 11 6.89693 11C6.53559 11 6.17425 10.8667 5.90803 10.5819L1.66712 6.34213C1.34403 6.01913 1.1538 5.60054 1.11556 5.12559L1.00181 2.19744C0.982692 1.87443 1.11605 1.57005 1.34403 1.34213C1.57202 1.11421 1.87648 1 2.19957 1L2.19965 1ZM3.8544 5.14466C4.55795 5.14466 5.12859 4.57412 5.12859 3.87081C5.12859 3.16749 4.5579 2.59696 3.8544 2.59696C3.15084 2.59696 2.5802 3.16749 2.5802 3.87081C2.5802 4.57412 3.15089 5.14466 3.8544 5.14466Z" fill="#EAEAEA"/>
</svg>
