<svg width="24" height="24" viewBox="0 0 24 24" fill="none" xmlns="http://www.w3.org/2000/svg">
<g clip-path="url(#clip0_3544_14686)">
<path fill-rule="evenodd" clip-rule="evenodd" d="M1 4H23V20.5H1V4Z" fill="white"/>
<path fill-rule="evenodd" clip-rule="evenodd" d="M1 4H8.33219V20.5H1V4Z" fill="#002654"/>
<path fill-rule="evenodd" clip-rule="evenodd" d="M15.6678 4H23V20.5H15.6678V4Z" fill="#CE1126"/>
</g>
<defs>
<clipPath id="clip0_3544_14686">
<path d="M1 12C1 8.22876 1 6.34315 2.17157 5.17157C3.34315 4 5.22876 4 9 4H15C18.7712 4 20.6569 4 21.8284 5.17157C23 6.34315 23 8.22876 23 12V12.5C23 16.2712 23 18.1569 21.8284 19.3284C20.6569 20.5 18.7712 20.5 15 20.5H9C5.22876 20.5 3.34315 20.5 2.17157 19.3284C1 18.1569 1 16.2712 1 12.5V12Z" fill="white"/>
</clipPath>
</defs>
</svg>