<svg width="24" height="24" viewBox="0 0 24 24" fill="none" xmlns="http://www.w3.org/2000/svg">
<g clip-path="url(#clip0_3544_14687)">
<path d="M1 4H23V20.5H1V4Z" fill="#012169"/>
<path d="M3.57812 4L11.9656 10.2219L20.3188 4H23V6.13125L14.75 12.2844L23 18.4031V20.5H20.25L12 14.3469L3.78437 20.5H1V18.4375L9.21562 12.3188L1 6.2V4H3.57812Z" fill="white"/>
<path d="M15.575 13.6594L23 19.125V20.5L13.6844 13.6594H15.575ZM9.25 14.3469L9.45625 15.55L2.85625 20.5H1L9.25 14.3469ZM23 4V4.10313L14.4406 10.5656L14.5094 9.05312L21.2812 4H23ZM1 4L9.21562 10.05H7.15313L1 5.44375V4Z" fill="#C8102E"/>
<path d="M9.28438 4V20.5H14.7844V4H9.28438ZM1 9.5V15H23V9.5H1Z" fill="white"/>
<path d="M1 10.6344V13.9344H23V10.6344H1ZM10.3844 4V20.5H13.6844V4H10.3844Z" fill="#C8102E"/>
</g>
<defs>
<clipPath id="clip0_3544_14687">
<path d="M1 12C1 8.22876 1 6.34315 2.17157 5.17157C3.34315 4 5.22876 4 9 4H15C18.7712 4 20.6569 4 21.8284 5.17157C23 6.34315 23 8.22876 23 12V12.5C23 16.2712 23 18.1569 21.8284 19.3284C20.6569 20.5 18.7712 20.5 15 20.5H9C5.22876 20.5 3.34315 20.5 2.17157 19.3284C1 18.1569 1 16.2712 1 12.5V12Z" fill="white"/>
</clipPath>
</defs>
</svg>