<svg width="24" height="24" viewBox="0 0 24 24" fill="none" xmlns="http://www.w3.org/2000/svg">
<path d="M3.18047 9.40061C4.86507 9.40061 6.50776 10.0957 7.66593 11.3172L7.83455 11.4858L9.47721 9.7798L9.3933 9.6959C7.7926 8.0113 5.51914 7.04224 3.20282 7.04224C2.5497 7.04224 2.02326 7.56867 2.02326 8.22179C2.00105 8.87409 2.52748 9.40053 3.1806 9.40053L3.18047 9.40061Z" fill="#521BAF"/>
<path d="M21.7316 15.9069L18.2152 13.3585C17.7727 13.0427 17.1623 13.3585 17.1623 13.9064V15.2537C15.5411 15.2118 14.0037 14.5167 12.8875 13.3585L12.7188 13.1694L11.0762 14.8754L11.1601 14.9593C12.718 16.6019 14.887 17.5495 17.1615 17.5914V18.9602C17.1615 19.508 17.7718 19.8239 18.2143 19.508L21.7307 16.9596C22.0894 16.7071 22.0894 16.1593 21.7316 15.9068L21.7316 15.9069Z" fill="#521BAF"/>
<path d="M17.1624 9.40059V10.7479C17.1624 11.2958 17.7727 11.6116 18.2153 11.2958L21.7316 8.74739C22.0895 8.47347 22.0895 7.94703 21.7316 7.67312L18.2153 5.12558C17.7727 4.80972 17.1624 5.12558 17.1624 5.67341V7.04215C14.9094 7.0841 12.7188 8.05226 11.161 9.6735L7.66502 13.3379C6.50685 14.5594 4.86416 15.2545 3.17956 15.2545C2.52644 15.2545 2 15.7809 2 16.4341C2 17.0872 2.52644 17.6136 3.17956 17.6136C5.49588 17.6136 7.7703 16.6446 9.37004 14.9599L12.866 11.2964C14.0036 10.1374 15.5409 9.46288 17.1622 9.40036L17.1624 9.40059Z" fill="#521BAF"/>
</svg>
