<svg width="12" height="12" viewBox="0 0 12 12" fill="none" xmlns="http://www.w3.org/2000/svg">
<g clip-path="url(#clip0_3544_14691)">
<path d="M1 2H11V9.5H1V2Z" fill="#012169"/>
<path d="M2.17188 2L5.98438 4.82812L9.78125 2H11V2.96875L7.25 5.76562L11 8.54688V9.5H9.75L6 6.70312L2.26562 9.5H1V8.5625L4.73438 5.78125L1 3V2H2.17188Z" fill="white"/>
<path d="M7.625 6.39062L11 8.875V9.5L6.76562 6.39062H7.625ZM4.75 6.70312L4.84375 7.25L1.84375 9.5H1L4.75 6.70312ZM11 2V2.04688L7.10938 4.98438L7.14062 4.29688L10.2188 2H11ZM1 2L4.73438 4.75H3.79688L1 2.65625V2Z" fill="#C8102E"/>
<path d="M4.76562 2V9.5H7.26562V2H4.76562ZM1 4.5V7H11V4.5H1Z" fill="white"/>
<path d="M1 5.01562V6.51562H11V5.01562H1ZM5.26562 2V9.5H6.76562V2H5.26562Z" fill="#C8102E"/>
</g>
<defs>
<clipPath id="clip0_3544_14691">
<path d="M1 5.75C1 4.10626 1 3.28439 1.45398 2.73121C1.53709 2.62995 1.62995 2.53709 1.73121 2.45398C2.28439 2 3.10626 2 4.75 2H7.25C8.89374 2 9.71561 2 10.2688 2.45398C10.3701 2.53709 10.4629 2.62995 10.546 2.73121C11 3.28439 11 4.10626 11 5.75C11 7.39374 11 8.21561 10.546 8.76879C10.4629 8.87005 10.3701 8.96291 10.2688 9.04602C9.71561 9.5 8.89374 9.5 7.25 9.5H4.75C3.10626 9.5 2.28439 9.5 1.73121 9.04602C1.62995 8.96291 1.53709 8.87005 1.45398 8.76879C1 8.21561 1 7.39374 1 5.75Z" fill="white"/>
</clipPath>
</defs>
</svg>