<svg width="12" height="12" viewBox="0 0 12 12" fill="none" xmlns="http://www.w3.org/2000/svg">
<path fill-rule="evenodd" clip-rule="evenodd" d="M6.725 2.44009H8.26C10.105 2.44009 11.005 3.42509 11 5.44509V7.88009C11 9.81009 9.81 11.0001 7.875 11.0001H4.12C2.195 11.0001 1 9.81009 1 7.87509V4.12009C1 2.05009 1.92 1.00009 3.735 1.00009H4.525C4.9905 0.995085 5.425 1.21009 5.71 1.57509L6.15 2.16009C6.29 2.33509 6.5 2.44009 6.725 2.44009ZM3.685 7.64509H8.315C8.52 7.64509 8.685 7.47509 8.685 7.27009C8.685 7.06009 8.52 6.89509 8.315 6.89509H3.685C3.475 6.89509 3.31 7.06009 3.31 7.27009C3.31 7.47509 3.475 7.64509 3.685 7.64509Z" fill="#776BFF"/>
</svg>
