<svg width="12" height="12" viewBox="0 0 12 12" fill="none" xmlns="http://www.w3.org/2000/svg">
<path fill-rule="evenodd" clip-rule="evenodd" d="M1 5.99994C1 3.23994 3.235 0.999939 6 0.999939C8.76 0.999939 11 3.23994 11 5.99994C11 8.75994 8.76 10.9999 6 10.9999C3.235 10.9999 1 8.75994 1 5.99994ZM3.76 6.59994C3.43 6.59994 3.16 6.32994 3.16 5.99994C3.16 5.66994 3.43 5.40044 3.76 5.40044C4.09 5.40044 4.355 5.66994 4.355 5.99994C4.355 6.32994 4.09 6.59994 3.76 6.59994ZM5.4 5.99994C5.4 6.32994 5.67 6.59994 6 6.59994C6.33 6.59994 6.595 6.32994 6.595 5.99994C6.595 5.66994 6.33 5.40044 6 5.40044C5.67 5.40044 5.4 5.66994 5.4 5.99994ZM7.64 5.99994C7.64 6.32994 7.905 6.59994 8.24 6.59994C8.57 6.59994 8.835 6.32994 8.835 5.99994C8.835 5.66994 8.57 5.40044 8.24 5.40044C7.905 5.40044 7.64 5.66994 7.64 5.99994Z" fill="#776BFF"/>
</svg>
