<svg width="24" height="24" viewBox="0 0 24 24" fill="none" xmlns="http://www.w3.org/2000/svg">
<path fill-rule="evenodd" clip-rule="evenodd" d="M12 2C6.48 2 2 6.481 2 12C2 17.521 6.48 22 12 22C17.53 22 22 17.521 22 12C22 6.481 17.53 2 12 2ZM12.75 16.1668C12.75 16.6269 12.377 17 11.9168 17C11.4567 17 11.0836 16.6269 11.0836 16.1668C11.0836 15.7062 11.4567 15.3332 11.9168 15.3332C12.377 15.3332 12.75 15.7062 12.75 16.1668ZM13.375 7.39053C14.2778 7.91163 14.8336 8.87454 14.8336 9.91675L14.8336 9.91672C14.8324 10.5444 14.6293 11.155 14.2543 11.6581C13.8789 12.1616 13.3516 12.5304 12.75 12.7104V13.875C12.75 14.3351 12.3769 14.7082 11.9168 14.7082C11.4566 14.7082 11.0836 14.3351 11.0836 13.875V11.9999C11.0836 11.5398 11.4566 11.1667 11.9168 11.1667C12.4223 11.1667 12.8781 10.862 13.0715 10.3948C13.2653 9.92766 13.1582 9.39015 12.8008 9.03273C12.4434 8.67531 11.9055 8.56828 11.4383 8.76164C10.9715 8.95541 10.6668 9.41088 10.6668 9.91675C10.6668 10.3769 10.2938 10.75 9.8336 10.75C9.37305 10.75 9 10.3769 9 9.91675C9 8.87454 9.55587 7.91162 10.4586 7.39053C11.3609 6.86982 12.4727 6.86982 13.375 7.39053Z" fill="#776BFF"/>
</svg>
