<svg width="24" height="24" viewBox="0 0 24 24" fill="none" xmlns="http://www.w3.org/2000/svg">
<path fill-rule="evenodd" clip-rule="evenodd" d="M20.5005 13.8743C20.5005 14.7321 20.0024 15.4657 19.2841 15.8255C19.6473 16.2157 19.8747 16.736 19.8747 17.3126C19.8747 18.4551 18.9958 19.3809 17.8791 19.4793C17.9541 19.6821 17.9998 19.8977 17.9998 20.125C17.9998 21.1598 17.1607 22 16.1248 22C14.0588 22 12.0079 21.6332 10.0676 20.9195L6.66559 19.6656C6.30818 19.5555 5.93552 19.4992 5.5617 19.4992C4.14691 19.4992 3 18.3523 3 16.9375L3 12.0579C3 10.6451 4.14533 9.49976 5.55816 9.49976C5.91908 9.49976 6.26129 9.34507 6.49916 9.07202L10.1918 4.85348C10.3899 4.62614 10.5 4.33199 10.5 4.02966V2.6246C10.5 2.27654 10.7918 1.99883 11.1422 2C12.8601 2.00821 14.2498 3.4039 14.2498 5.12536V5.16052C14.2498 5.54842 14.1608 5.9316 13.9862 6.27849L13.0006 8.24955H17.62C18.5903 8.24955 19.5008 8.84955 19.7773 9.78001C20.0234 10.612 19.782 11.3902 19.284 11.9233C20.0023 12.2831 20.5005 13.0177 20.5005 13.8743Z" fill="#070214"/>
</svg>
