<svg width="24" height="24" viewBox="0 0 24 24" fill="none" xmlns="http://www.w3.org/2000/svg">
<path fill-rule="evenodd" clip-rule="evenodd" d="M16.66 2H7.33C3.92 2 2 3.92 2 7.33V16.67C2 20.06 3.92 22 7.33 22H16.67C20.07 22 22 20.06 22 16.67V7.33C22 3.92 20.06 2 16.66 2ZM12.8677 18.1601C12.4419 18.1671 12.0923 17.8568 12.0322 17.4542L12.0231 17.3308L12.0154 12.8543C12.0154 12.624 12.0999 12.4167 12.2611 12.2554C12.384 12.1326 12.5461 12.049 12.7201 12.0245L12.8524 12.0174L17.3289 12.0251C17.5592 12.0251 17.7742 12.1172 17.9201 12.2631C18.0737 12.4167 18.1658 12.6317 18.1658 12.862C18.1658 13.2808 17.8549 13.6299 17.4522 13.6899L17.3289 13.699L14.8795 13.6913L17.4671 16.2789C17.7936 16.6054 17.7936 17.1348 17.4671 17.4614C17.1405 17.7879 16.6111 17.7879 16.2846 17.4614L13.697 14.8738L13.7047 17.3232C13.7047 17.7839 13.3284 18.1601 12.8677 18.1601ZM12.1336 6.70605C12.0735 6.30344 11.7239 5.99314 11.2981 6.00012C10.8374 6.00012 10.4611 6.37636 10.4611 6.83706L10.4688 9.28646L7.8812 6.69885C7.55467 6.37232 7.02526 6.37232 6.69873 6.69885C6.3722 7.02538 6.3722 7.55479 6.69873 7.88132L9.28635 10.4689L6.83694 10.4613L6.71361 10.4704C6.31094 10.5304 6 10.8794 6 11.2982C6 11.5286 6.09214 11.7435 6.24571 11.8971C6.3916 12.043 6.60659 12.1351 6.83694 12.1351L11.3134 12.1428L11.4457 12.1358C11.6197 12.1112 11.7818 12.0276 11.9047 11.9048C12.0659 11.7435 12.1504 11.5362 12.1504 11.3059L12.1427 6.82938L12.1336 6.70605Z" fill="#776BFF"/>
</svg>
