<svg width="12" height="12" viewBox="0 0 12 12" fill="none" xmlns="http://www.w3.org/2000/svg">
<path d="M5.92926 8.70505C6.04626 8.64193 6.1192 8.52191 6.1192 8.39137V6.35864H10.1329C10.3355 6.35864 10.5 6.19798 10.5 6.00001C10.5 5.80205 10.3355 5.64138 10.1329 5.64138H6.1192V3.60866C6.1192 3.47764 6.04626 3.35762 5.92926 3.29497C5.81227 3.23138 5.66932 3.23568 5.55624 3.30502L1.67134 5.69637C1.56462 5.76236 1.5 5.87664 1.5 6.00001C1.5 6.12338 1.56462 6.23767 1.67134 6.30365L5.55624 8.69501C5.61596 8.73135 5.68401 8.75 5.75205 8.75C5.81275 8.75 5.87395 8.7347 5.92926 8.70505" fill="#ED1C24"/>
</svg>
