<svg width="12" height="12" viewBox="0 0 12 12" fill="none" xmlns="http://www.w3.org/2000/svg">
<path fill-rule="evenodd" clip-rule="evenodd" d="M8.46974 1.5C9.14024 1.5 9.78524 1.765 10.2597 2.2405C10.7347 2.715 11.0002 3.355 11.0002 4.025V7.975C11.0002 9.37 9.86524 10.5 8.46974 10.5H3.53024C2.13474 10.5 1.00024 9.37 1.00024 7.975V4.025C1.00024 2.63 2.12974 1.5 3.53024 1.5H8.46974ZM9.26524 4.77L9.30524 4.73C9.42474 4.585 9.42474 4.375 9.29974 4.23C9.23024 4.1555 9.13474 4.11 9.03524 4.1C8.93024 4.0945 8.83024 4.13 8.75474 4.2L6.50024 6C6.21024 6.2405 5.79474 6.2405 5.50024 6L3.25024 4.2C3.09474 4.085 2.87974 4.1 2.75024 4.235C2.61524 4.37 2.60024 4.585 2.71474 4.735L2.78024 4.8L5.05524 6.575C5.33524 6.795 5.67474 6.915 6.03024 6.915C6.38474 6.915 6.73024 6.795 7.00974 6.575L9.26524 4.77Z" fill="#ED1C24"/>
</svg>
