<svg width="12" height="12" viewBox="0 0 12 12" fill="none" xmlns="http://www.w3.org/2000/svg">
<path d="M2.91652 5.01407C2.94975 4.91572 2.98652 4.81825 3.02639 4.72168C3.00424 4.77484 2.98209 4.828 2.95993 4.88027C3.09196 4.57016 3.26207 4.27778 3.46719 4.00976C3.43263 4.05406 3.39719 4.09924 3.36308 4.14355C3.56775 3.87996 3.80387 3.64294 4.06746 3.43916C4.02316 3.47372 3.97798 3.50916 3.93367 3.54327C4.19505 3.34259 4.48079 3.17557 4.78337 3.04621C4.73021 3.06836 4.67705 3.09052 4.62478 3.11267C4.94906 2.97534 5.29151 2.88231 5.64148 2.83579C5.583 2.84376 5.52408 2.85129 5.46428 2.85882C5.80628 2.81452 6.15183 2.81452 6.49295 2.85971C6.43447 2.85173 6.37554 2.8442 6.31574 2.83667C6.65775 2.88319 6.99267 2.97622 7.31163 3.11046C7.25847 3.08831 7.2053 3.06616 7.15303 3.044C7.46314 3.17691 7.75553 3.34747 8.02223 3.55435C7.97792 3.5198 7.93274 3.48436 7.88843 3.45025C8.1476 3.65315 8.38107 3.88528 8.58308 4.14577C8.54852 4.10147 8.51308 4.05628 8.47897 4.01198C8.68364 4.27779 8.85331 4.56929 8.984 4.87807C8.96185 4.8249 8.9397 4.77174 8.91755 4.71947C9.00615 4.933 9.07702 5.15362 9.12798 5.37867C9.16342 5.53727 9.29544 5.69543 9.43366 5.77649C9.5763 5.85978 9.78585 5.89522 9.94533 5.84295C10.1057 5.79067 10.2607 5.69144 10.3432 5.53727C10.4282 5.37424 10.4504 5.20589 10.4096 5.02559C10.239 4.27159 9.86382 3.57473 9.35081 2.99883C8.84932 2.43621 8.20253 2.0242 7.49904 1.76367C7.1402 1.63077 6.76807 1.56077 6.38797 1.52002C5.99723 1.47793 5.6127 1.50673 5.22505 1.56432C4.82103 1.62413 4.44092 1.75482 4.06792 1.91873C3.70243 2.0791 3.37682 2.29972 3.06672 2.54869C2.76104 2.79457 2.50631 3.08695 2.27284 3.40149C2.03893 3.7169 1.86749 4.06246 1.72129 4.42572C1.69028 4.50325 1.66148 4.58078 1.63623 4.66052C1.58307 4.81911 1.62073 5.03175 1.70268 5.17219C1.78331 5.30952 1.94191 5.44154 2.10051 5.47787C2.27107 5.51685 2.46156 5.50799 2.61218 5.41142C2.76148 5.3144 2.86027 5.18504 2.91653 5.01404L2.91652 5.01407Z" fill="#ED1C24"/>
<path d="M9.69481 3.41167C9.53002 3.88349 9.36477 4.35617 9.19953 4.8284C9.17649 4.89485 9.15301 4.96131 9.12953 5.02908C9.40198 4.87403 9.67444 4.71986 9.94688 4.5648C9.47507 4.4 9.00239 4.23475 8.53016 4.06951C8.4637 4.04648 8.39725 4.023 8.32948 3.99952C8.17354 3.94503 7.95601 3.98534 7.8178 4.06597C7.68047 4.1466 7.54845 4.3052 7.51212 4.46379C7.47314 4.63435 7.482 4.82485 7.57858 4.97547C7.61313 5.01977 7.64857 5.06496 7.68268 5.10926C7.76597 5.19122 7.86344 5.24881 7.97595 5.27982C8.44776 5.44461 8.92045 5.60987 9.39268 5.77511C9.45913 5.79814 9.52559 5.82162 9.59336 5.8451C9.68196 5.87257 9.77056 5.877 9.85828 5.85751C9.94688 5.85308 10.0288 5.82738 10.1055 5.77865C10.1498 5.7441 10.195 5.70865 10.2393 5.67454C10.3212 5.59126 10.3788 5.49379 10.4098 5.38127C10.5746 4.90946 10.7399 4.43678 10.9051 3.96454C10.9282 3.89809 10.9516 3.83164 10.9751 3.76386C11.0296 3.60792 10.9893 3.3904 10.9087 3.25219C10.828 3.11486 10.6694 2.98284 10.5108 2.94651C10.3403 2.90753 10.1498 2.91639 9.99916 3.01296C9.95486 3.04752 9.90967 3.08296 9.86537 3.11707C9.78341 3.20124 9.72714 3.29871 9.69481 3.41168L9.69481 3.41167Z" fill="#ED1C24"/>
<path d="M9.07453 7.09006C9.0444 7.17866 9.01029 7.26726 8.97485 7.35365C8.997 7.30049 9.01915 7.24732 9.0413 7.19505C8.90928 7.50605 8.73784 7.79976 8.53095 8.06778C8.56551 8.02348 8.60095 7.97829 8.63506 7.93399C8.43216 8.19449 8.19869 8.42795 7.93865 8.6304C7.98295 8.59585 8.02814 8.56041 8.07244 8.5263C7.80575 8.73097 7.51425 8.90197 7.20503 9.03221C7.25819 9.01006 7.31135 8.98791 7.36362 8.96576C7.04244 9.09955 6.70442 9.19169 6.3602 9.2382C6.41867 9.23023 6.4776 9.2227 6.5374 9.21517C6.1954 9.25947 5.84985 9.25947 5.50873 9.21428C5.56721 9.22226 5.62613 9.22979 5.68594 9.23732C5.34393 9.1908 5.00901 9.09777 4.69005 8.96353C4.74321 8.98568 4.79637 9.00783 4.84865 9.02998C4.53853 8.89708 4.24615 8.72652 3.97945 8.51964C4.02375 8.55419 4.06894 8.58963 4.11324 8.62374C3.85408 8.42084 3.62061 8.18871 3.4186 7.92822C3.45316 7.97252 3.4886 8.01771 3.52271 8.06201C3.31804 7.7962 3.14836 7.5047 3.01768 7.19592C3.03983 7.24909 3.06198 7.30225 3.08413 7.35452C2.99553 7.14099 2.92465 6.92037 2.8737 6.69532C2.83826 6.53672 2.70623 6.37856 2.56802 6.2975C2.42537 6.21421 2.21582 6.17877 2.05634 6.23104C1.89597 6.28332 1.74093 6.38255 1.65852 6.53672C1.57346 6.69975 1.55131 6.86809 1.59207 7.0484C1.76263 7.80063 2.13609 8.49348 2.64556 9.06938C3.14394 9.632 3.78851 10.0418 4.48848 10.3053C4.8451 10.4391 5.21413 10.5091 5.5907 10.5525C5.97834 10.5968 6.35932 10.5694 6.74477 10.5149C7.15145 10.4573 7.53023 10.3288 7.90633 10.1671C8.27314 10.0098 8.59743 9.79144 8.90975 9.546C9.21764 9.30235 9.47149 9.01439 9.70717 8.70207C9.94551 8.38754 10.1183 8.04198 10.2689 7.67872C10.3008 7.60119 10.33 7.52366 10.3575 7.44392C10.412 7.28666 10.373 7.0718 10.2911 6.93225C10.2104 6.79492 10.0518 6.6629 9.89323 6.62657C9.72267 6.58759 9.53218 6.59645 9.38155 6.69302C9.22961 6.7896 9.13347 6.9194 9.07455 7.08996L9.07453 7.09006Z" fill="#ED1C24"/>
<path d="M2.3066 8.66274C2.4714 8.19092 2.63665 7.71824 2.80189 7.246C2.82492 7.17955 2.8484 7.1131 2.87188 7.04532C2.59944 7.20038 2.32698 7.35455 2.05453 7.50961C2.52634 7.6744 2.99903 7.83965 3.47126 8.00489C3.53771 8.02793 3.60417 8.05141 3.67194 8.07489C3.82788 8.12938 4.0454 8.08907 4.18362 8.00844C4.32095 7.92781 4.45297 7.76921 4.48929 7.61061C4.52828 7.44006 4.51942 7.24956 4.42284 7.09894C4.38829 7.05464 4.35285 7.00945 4.31873 6.96515C4.23545 6.88319 4.13798 6.82559 4.02547 6.79459C3.55365 6.62979 3.08097 6.46454 2.60874 6.2993C2.54228 6.27626 2.47583 6.25278 2.40806 6.2293C2.31945 6.20184 2.23085 6.19741 2.14314 6.2169C2.05454 6.22133 1.97258 6.24702 1.89594 6.29575C1.85164 6.33031 1.80645 6.36575 1.76215 6.39986C1.68019 6.48315 1.62259 6.58062 1.59159 6.69313C1.42501 7.16405 1.25977 7.63675 1.09497 8.10896C1.07194 8.17541 1.04846 8.24186 1.02498 8.30964C0.970485 8.46558 1.0108 8.6831 1.09143 8.82131C1.17206 8.95864 1.33066 9.09067 1.48925 9.12699C1.65981 9.16598 1.85031 9.15712 2.00093 9.06054C2.04523 9.02598 2.09042 8.99054 2.13472 8.95643C2.218 8.8727 2.2756 8.77435 2.3066 8.66272L2.3066 8.66274Z" fill="#ED1C24"/>
</svg>
