<svg width="24" height="24" viewBox="0 0 24 24" fill="none" xmlns="http://www.w3.org/2000/svg">
<path d="M21.8035 11.876L18.2225 9.79004V15.587H22V12.218C22 12.0775 21.925 11.947 21.8035 11.876Z" fill="#1A237E"/>
<path d="M16.9595 4.42H21.4825V3.866C21.4825 3.3875 21.095 3 20.617 3H8.83353C8.35553 3 7.96753 3.3875 7.96753 3.866V4.42H12.47H16.9595Z" fill="#0C4999"/>
<path d="M16.9595 16.7609H20.6165C21.0945 16.7609 21.4825 16.3734 21.4825 15.8949V12.4814H16.9595V16.7609Z" fill="#0F73D9"/>
<path d="M7.96802 12.4819V15.8954C7.96802 16.3734 8.35552 16.7614 8.83402 16.7614H12.4705V12.4824L7.96802 12.4819Z" fill="#0F439D"/>
<path d="M16.9595 4.41992H21.4825V8.43342H16.9595V4.41992Z" fill="#2ECDFD"/>
<path d="M7.96802 4.41992H12.4705V8.43342H7.96802V4.41992Z" fill="#1C5FB0"/>
<path d="M12.47 12.4819H16.9595V16.7609H12.47V12.4819Z" fill="#1467C7"/>
<path d="M12.47 4.41992H16.9595V8.43342H12.47V4.41992Z" fill="#1690D5"/>
<path d="M16.9595 8.43359H21.4825V12.4816H16.9595V8.43359Z" fill="#1BB4FF"/>
<path d="M7.96802 8.43359H12.4705V12.4816H7.96802V8.43359Z" fill="#074DAF"/>
<path d="M12.47 8.43359H16.9595V12.4816H12.47V8.43359Z" fill="#2076D4"/>
<path d="M7.72045 21C7.95195 21 21.1554 21 21.1554 21C21.6219 21 21.9999 20.622 21.9999 20.1555V12.219C21.9999 12.219 21.9849 12.548 21.1244 13.0275C20.4744 13.3895 7.37195 20.783 7.37195 20.783C7.37195 20.783 7.48895 21 7.72045 21Z" fill="#2ED0FF"/>
<path d="M21.1395 20.9984C21.059 20.9984 7.8445 20.9999 7.8445 20.9999C7.378 20.9999 7 20.6219 7 20.1554V12.5334L21.6815 20.8144C21.559 20.9124 21.4035 20.9984 21.1395 20.9984Z" fill="#139FE2"/>
<path d="M11.1595 17H2.8405C2.3765 17 2 16.6235 2 16.1595V7.8405C2 7.3765 2.3765 7 2.8405 7H11.1595C11.6235 7 12 7.3765 12 7.8405V16.1595C12 16.6235 11.6235 17 11.1595 17Z" fill="#00488D"/>
<path d="M6.95699 9.36694C5.39149 9.36694 4.44849 10.5629 4.44849 12.0384C4.44849 13.5139 5.38799 14.7094 6.95699 14.7094C8.52649 14.7094 9.46549 13.5134 9.46549 12.0384C9.46549 10.5629 8.52249 9.36694 6.95699 9.36694ZM6.95699 13.8079C6.06899 13.8079 5.53799 13.0159 5.53799 12.0384C5.53799 11.0609 6.07149 10.2689 6.95699 10.2689C7.84249 10.2689 8.37649 11.0614 8.37649 12.0384C8.37649 13.0154 7.84449 13.8079 6.95699 13.8079Z" fill="white"/>
</svg>
