<svg width="24" height="24" viewBox="0 0 24 24" fill="none" xmlns="http://www.w3.org/2000/svg">
<path d="M5.83316 10.0281C5.89961 9.83143 5.97315 9.6365 6.0529 9.44336C6.0086 9.54969 5.96429 9.65601 5.91999 9.76055C6.18404 9.14033 6.52427 8.55556 6.9345 8.01951C6.86539 8.10811 6.79451 8.19849 6.72628 8.28709C7.13563 7.75992 7.60787 7.28588 8.13505 6.87833C8.04645 6.94744 7.95607 7.01832 7.86747 7.08654C8.39022 6.68518 8.9617 6.35114 9.56686 6.09243C9.46054 6.13673 9.35422 6.18103 9.24967 6.22533C9.89825 5.95068 10.5831 5.76461 11.2831 5.67157C11.1661 5.68752 11.0483 5.70258 10.9287 5.71764C11.6127 5.62904 12.3038 5.62904 12.986 5.71941C12.8691 5.70347 12.7512 5.6884 12.6316 5.67334C13.3156 5.76638 13.9855 5.95245 14.6234 6.22091C14.5171 6.17661 14.4107 6.13231 14.3062 6.08801C14.9264 6.35382 15.5112 6.69494 16.0446 7.10871C15.956 7.0396 15.8656 6.96871 15.777 6.90049C16.2953 7.3063 16.7623 7.77056 17.1663 8.29154C17.0972 8.20294 17.0263 8.11257 16.9581 8.02396C17.3674 8.55559 17.7068 9.13859 17.9681 9.75613C17.9238 9.64981 17.8795 9.54349 17.8352 9.43894C18.0124 9.866 18.1542 10.3072 18.2561 10.7573C18.327 11.0745 18.591 11.3909 18.8674 11.553C19.1527 11.7196 19.5718 11.7904 19.8908 11.6859C20.2115 11.5813 20.5216 11.3829 20.6864 11.0745C20.8565 10.7485 20.9008 10.4118 20.8193 10.0512C20.4782 8.54319 19.7278 7.14946 18.7017 5.99766C17.6988 4.87242 16.4052 4.0484 14.9982 3.52734C14.2805 3.26153 13.5363 3.12154 12.7761 3.04004C11.9946 2.95587 11.2255 3.01346 10.4502 3.12864C9.64217 3.24825 8.88196 3.50963 8.13596 3.83746C7.40498 4.15821 6.75376 4.59944 6.13356 5.09739C5.52221 5.58914 5.01274 6.1739 4.54581 6.80297C4.07799 7.43381 3.7351 8.12491 3.4427 8.85144C3.38068 9.0065 3.32309 9.16155 3.27259 9.32103C3.16626 9.63822 3.24158 10.0635 3.40549 10.3444C3.56675 10.619 3.88395 10.8831 4.20114 10.9557C4.54225 11.0337 4.92325 11.016 5.22449 10.8228C5.52308 10.6288 5.72066 10.3701 5.83319 10.0281L5.83316 10.0281Z" fill="#FEFDFF"/>
<path d="M19.3894 6.82335C19.0599 7.76697 18.7294 8.71234 18.3989 9.6568C18.3528 9.78971 18.3058 9.92262 18.2589 10.0582C18.8038 9.74805 19.3487 9.43971 19.8936 9.1296C18.95 8.80001 18.0046 8.46951 17.0601 8.13903C16.9272 8.09295 16.7943 8.04599 16.6588 7.99903C16.3469 7.89005 15.9118 7.97068 15.6354 8.13194C15.3608 8.29319 15.0967 8.6104 15.0241 8.92758C14.9461 9.2687 14.9638 9.64969 15.157 9.95094C15.2261 10.0395 15.297 10.1299 15.3652 10.2185C15.5318 10.3824 15.7267 10.4976 15.9517 10.5596C16.8953 10.8892 17.8407 11.2197 18.7852 11.5502C18.9181 11.5963 19.051 11.6432 19.1865 11.6902C19.3637 11.7451 19.5409 11.754 19.7164 11.715C19.8936 11.7062 20.0575 11.6548 20.2108 11.5573C20.2994 11.4882 20.3897 11.4173 20.4784 11.3491C20.6423 11.1825 20.7575 10.9876 20.8195 10.7625C21.1491 9.81892 21.4796 8.87355 21.81 7.92909C21.8561 7.79619 21.9031 7.66328 21.95 7.52773C22.059 7.21585 21.9784 6.7808 21.8171 6.50438C21.6559 6.22972 21.3387 5.96567 21.0215 5.89302C20.6804 5.81505 20.2994 5.83277 19.9981 6.02593C19.9095 6.09504 19.8192 6.16592 19.7306 6.23414C19.5666 6.40249 19.4541 6.59742 19.3894 6.82336L19.3894 6.82335Z" fill="#FEFDFF"/>
<path d="M18.1492 14.1801C18.0889 14.3573 18.0207 14.5345 17.9498 14.7073C17.9941 14.601 18.0384 14.4947 18.0827 14.3901C17.8187 15.0121 17.4758 15.5995 17.062 16.1356C17.1311 16.047 17.202 15.9566 17.2702 15.868C16.8644 16.389 16.3975 16.8559 15.8774 17.2608C15.966 17.1917 16.0564 17.1208 16.145 17.0526C15.6116 17.462 15.0286 17.804 14.4102 18.0644C14.5165 18.0201 14.6228 17.9758 14.7274 17.9315C14.085 18.1991 13.409 18.3834 12.7205 18.4764C12.8375 18.4605 12.9553 18.4454 13.0749 18.4304C12.3909 18.519 11.6998 18.519 11.0176 18.4286C11.1345 18.4445 11.2524 18.4596 11.372 18.4747C10.688 18.3816 10.0181 18.1955 9.38023 17.9271C9.48655 17.9714 9.59287 18.0157 9.69741 18.06C9.07719 17.7942 8.49242 17.4531 7.95903 17.0393C8.04763 17.1084 8.138 17.1793 8.22661 17.2475C7.70828 16.8417 7.24134 16.3774 6.83732 15.8565C6.90644 15.9451 6.97732 16.0354 7.04554 16.124C6.6362 15.5924 6.29685 15.0094 6.03548 14.3919C6.07978 14.4982 6.12408 14.6045 6.16838 14.7091C5.99118 14.282 5.84943 13.8408 5.74752 13.3907C5.67663 13.0735 5.41259 12.7571 5.13616 12.595C4.85087 12.4284 4.43177 12.3575 4.11281 12.4621C3.79206 12.5667 3.48197 12.7651 3.31717 13.0735C3.14705 13.3995 3.10275 13.7362 3.18426 14.0968C3.52538 15.6013 4.2723 16.987 5.29123 18.1388C6.288 19.264 7.57714 20.0836 8.97709 20.6107C9.69033 20.8782 10.4284 21.0182 11.1815 21.1051C11.9568 21.1937 12.7188 21.1387 13.4897 21.0298C14.303 20.9146 15.0606 20.6576 15.8128 20.3342C16.5464 20.0197 17.195 19.5829 17.8196 19.092C18.4354 18.6047 18.9431 18.0288 19.4145 17.4042C19.8911 16.7751 20.2367 16.084 20.5379 15.3574C20.6017 15.2024 20.6602 15.0473 20.7151 14.8879C20.8241 14.5733 20.7461 14.1436 20.5822 13.8645C20.421 13.5899 20.1038 13.3258 19.7866 13.2532C19.4455 13.1752 19.0645 13.1929 18.7632 13.3861C18.4593 13.5792 18.2671 13.8388 18.1492 14.1799L18.1492 14.1801Z" fill="#FEFDFF"/>
<path d="M4.6132 17.3255C4.94279 16.3818 5.2733 15.4365 5.60378 14.492C5.64985 14.3591 5.69681 14.2262 5.74377 14.0906C5.19887 14.4008 4.65396 14.7091 4.10906 15.0192C5.05269 15.3488 5.99806 15.6793 6.94252 16.0098C7.07543 16.0559 7.20833 16.1028 7.34388 16.1498C7.65576 16.2588 8.09081 16.1781 8.36724 16.0169C8.64189 15.8556 8.90594 15.5384 8.97859 15.2212C9.05656 14.8801 9.03884 14.4991 8.84568 14.1979C8.77657 14.1093 8.70569 14.0189 8.63747 13.9303C8.4709 13.7664 8.27596 13.6512 8.05093 13.5892C7.10731 13.2596 6.16194 12.9291 5.21747 12.5986C5.08457 12.5525 4.95166 12.5056 4.81611 12.4586C4.63891 12.4037 4.4617 12.3948 4.28628 12.4338C4.10907 12.4427 3.94516 12.494 3.79187 12.5915C3.70327 12.6606 3.6129 12.7315 3.52429 12.7997C3.36038 12.9663 3.24519 13.1612 3.18317 13.3863C2.85002 14.3281 2.51954 15.2735 2.18994 16.2179C2.14387 16.3508 2.09691 16.4837 2.04995 16.6193C1.94097 16.9312 2.0216 17.3662 2.18286 17.6426C2.34411 17.9173 2.66131 18.1813 2.9785 18.254C3.31962 18.332 3.70061 18.3142 4.00185 18.1211C4.09046 18.052 4.18083 17.9811 4.26944 17.9129C4.43601 17.7454 4.55119 17.5487 4.61321 17.3254L4.6132 17.3255Z" fill="#FEFDFF"/>
</svg>
