<svg width="16" height="16" viewBox="0 0 16 16" fill="none" xmlns="http://www.w3.org/2000/svg">
    <path fill-rule="evenodd" clip-rule="evenodd" d="M8 14.4762C11.5767 14.4762 14.4762 11.5767 14.4762 8C14.4762 4.4233 11.5767 1.52381 8 1.52381C4.4233 1.52381 1.52381 4.4233 1.52381 8C1.52381 11.5767 4.4233 14.4762 8 14.4762ZM8 16C12.4183 16 16 12.4183 16 8C16 3.58172 12.4183 0 8 0C3.58172 0 0 3.58172 0 8C0 12.4183 3.58172 16 8 16Z" fill="#070214"/>
    <path fill-rule="evenodd" clip-rule="evenodd" d="M11.6086 7.0369H8.96241V4.39073C8.96241 3.85954 8.53077 3.42871 7.99957 3.42871C7.46756 3.42871 7.03673 3.85954 7.03673 4.39073V7.0369H4.39057C3.85856 7.0369 3.42773 7.46772 3.42773 7.99973C3.42773 8.53174 3.85856 8.96257 4.39057 8.96257H7.03673V11.6087C7.03673 12.1407 7.46756 12.5716 7.99957 12.5716C8.53077 12.5716 8.96241 12.1407 8.96241 11.6087V8.96257H11.6086C12.1398 8.96257 12.5706 8.53174 12.5706 7.99973C12.5706 7.46772 12.1398 7.0369 11.6086 7.0369Z" fill="#070214"/>
</svg>
